<svg id="Layer_1" height="512" viewBox="0 0 512 512" width="512" xmlns="http://www.w3.org/2000/svg" data-name="Layer 1"><path d="m458.68 139.38-211.03 10.64a3.975 3.975 0 0 1 -3.07-1.21l-38.83-39.98-129.41 11.24v24.3l115.5-1.29 16.28 43.38 264.36-33.61z" fill="#f9d438"/><path d="m415.53 403.17a56.957 56.957 0 1 1 49.32-28.48 56.889 56.889 0 0 1 -49.32 28.48z" fill="#6d7486"/><path d="m136.92 289.27a56.95 56.95 0 1 1 -56.95 56.95 56.941 56.941 0 0 1 56.95-56.95z" fill="#6d7486"/><path d="m215.98 335.94 12.61 28.24h49.61v-28.59z" fill="#f9d438"/><path d="m422.62 240.22-232.96-2.71.51 40.61 25.81 57.82h143.53a56.948 56.948 0 0 1 91.07-34.6l.01-.01 12.33-11.89z" fill="#7878a0"/><path d="m14.28 304.3v23.5h49.74l6.66-23.5z" fill="#6d7486"/><path d="m35.94 237.51a12.63 12.63 0 0 0 -12.63 12.63v54.16h47.37l13.38-38.36h100.67v-28.43z" fill="#ccd3df"/><path d="m127.66 161.24v.1l-20.75 53.88-22.85-54.11z" fill="#d4e1f4"/><path d="m168.14 161.37-10.83-.03v53.92l-50.4-.04-10.59 22.29h88.41v-59.49a16.651 16.651 0 0 0 -16.59-16.65z" fill="#b0b5ca"/><path d="m157.31 161.34v53.92l-50.4-.04 20.75-53.88v-.1z" fill="#85dedb"/><path d="m334.39 307.3h-62.47a7.164 7.164 0 0 0 -7.14 7.14v27.01a7.164 7.164 0 0 0 7.14 7.14h62.47a7.157 7.157 0 0 0 7.14-7.14v-27.01a7.157 7.157 0 0 0 -7.14-7.14z" fill="#b0b5ca"/><path d="m211.09 227.12h-26.36v38.82l5.44 12.18h38.42z" fill="#6d7486"/><path d="m497.72 177.5v34.18l-31.83 12.1-30.71-66.11-.01-.08 37.31-4.74z" fill="#f19c39"/><path d="m435.18 157.67-.01-.08-55.32 7.04.02.18 35.14 78.3 50.88-19.33z" fill="#e83"/><path d="m269.12 178.71-54.8 6.96 32.7 91.25 38.37 15.44 27.88-10.59z" fill="#f19c39"/><path d="m324.57 171.94 39.56 90.5-50.86 19.33-44.15-103.06 55.41-7.05z" fill="#e83"/><path d="m379.87 164.81 35.14 78.3-50.88 19.33-39.56-90.5-.04-.28 55.32-7.03z" fill="#f19c39"/><path d="m14.28 304.3h30v23.5h-30z" fill="#949caf"/><path d="m53.31 304.3v-54.16a12.63 12.63 0 0 1 12.63-12.63h-30a12.63 12.63 0 0 0 -12.63 12.63v54.16z" fill="#e9f2ff"/><path d="m106.91 215.22-10.59 22.29h30l9.162-22.267z" fill="#c9cfe2"/><path d="m127.66 161.24v.1l-20.75 53.88 28.572.023 21.828-53.052v-.851z" fill="#a9fffb"/><path d="m76.34 120.07v24.3l30-.335v-26.571z" fill="#ffe98d"/><path d="m221.84 143.08-29.875.334 16.155 43.046 28.634-3.641z" fill="#ffe98d"/><path d="m271.096 276.92-34.342-94.099-22.434 2.849.001.002 32.699 91.248 38.37 15.44 15.433-5.862z" fill="#ffcea1"/><path d="m109.97 346.22a56.959 56.959 0 0 1 41.952-54.94 56.951 56.951 0 1 0 0 109.879 56.967 56.967 0 0 1 -41.952-54.939z" fill="#575f72"/><path d="m396.21 374.69a56.96 56.96 0 0 1 34.308-83.418 56.947 56.947 0 1 0 .012 109.9 57.027 57.027 0 0 1 -34.32-26.482z" fill="#575f72"/><path d="m415.53 319.29a26.925 26.925 0 1 1 -26.93 26.93 26.927 26.927 0 0 1 26.93-26.93z" fill="#b0b5ca"/><path d="m136.92 319.29a26.925 26.925 0 1 1 -26.93 26.93 26.927 26.927 0 0 1 26.93-26.93z" fill="#b0b5ca"/><g fill="#284268"><path d="m136.923 313.289a32.928 32.928 0 1 0 32.928 32.927 32.965 32.965 0 0 0 -32.928-32.927zm0 53.856a20.928 20.928 0 1 1 20.928-20.929 20.952 20.952 0 0 1 -20.928 20.929z"/><path d="m136.923 283.267a62.95 62.95 0 1 0 62.949 62.949 63.021 63.021 0 0 0 -62.949-62.949zm50.585 56.958a5.993 5.993 0 0 0 0 11.982 50.484 50.484 0 0 1 -3.779 14.115 5.994 5.994 0 0 0 -6 10.371 51.424 51.424 0 0 1 -10.329 10.329 5.994 5.994 0 0 0 -10.371 6 50.52 50.52 0 0 1 -14.114 3.779 5.993 5.993 0 0 0 -11.982 0 50.518 50.518 0 0 1 -14.115-3.779 5.994 5.994 0 0 0 -10.371-6 51.4 51.4 0 0 1 -10.329-10.329 5.994 5.994 0 0 0 -6-10.371 50.484 50.484 0 0 1 -3.779-14.115 5.993 5.993 0 0 0 0-11.982 50.508 50.508 0 0 1 3.78-14.117 5.992 5.992 0 0 0 6-10.368 51.4 51.4 0 0 1 10.332-10.331 5.992 5.992 0 0 0 10.368-6 50.517 50.517 0 0 1 14.115-3.778 5.993 5.993 0 0 0 11.982 0 50.535 50.535 0 0 1 14.115 3.778 5.992 5.992 0 0 0 10.368 6 51.418 51.418 0 0 1 10.331 10.331 5.992 5.992 0 0 0 6 10.368 50.508 50.508 0 0 1 3.778 14.117z"/><path d="m415.529 313.289a32.928 32.928 0 1 0 32.928 32.927 32.965 32.965 0 0 0 -32.928-32.927zm0 53.856a20.928 20.928 0 1 1 20.928-20.929 20.952 20.952 0 0 1 -20.928 20.929z"/><path d="m476.715 148.6-.082-.081-13.756-13.432a5.991 5.991 0 0 0 -4.494-1.7l-210.134 10.594-38.19-39.327a6.006 6.006 0 0 0 -4.824-1.8l-129.416 11.24a6 6 0 0 0 -5.481 5.977v24.3a6 6 0 0 0 6.067 6l111.295-1.244 14.8 39.442a6 6 0 0 0 6.374 3.845l1.428-.182 14.076 39.279h-5.436l-2.175-6.342a6 6 0 0 0 -5.676-4.052h-20.36v-43.1a22.689 22.689 0 0 0 -22.577-22.648l-84.078-.262h-.018a6 6 0 0 0 -5.528 8.334l21.8 51.628-7.808 16.438h-56.584a18.653 18.653 0 0 0 -18.632 18.632v48.161h-3.025a6 6 0 0 0 -6 6v23.5a6 6 0 0 0 6 6h49.744a6 6 0 0 0 5.773-4.365l6.608-23.335 11.914-34.164h92.519l42.27 94.686a6 6 0 0 0 5.478 3.554h49.613a6 6 0 0 0 6-6v-9.585h50.192a13.145 13.145 0 0 0 13.115-12.65h5.237c-.1 1.415-.162 2.837-.162 4.275a62.95 62.95 0 1 0 106.84-45.065l2.983-2.876 11.314 13.825a6 6 0 0 0 9.285-7.6l-50.461-61.628 59.176-22.484v.929a6 6 0 0 0 12 0v-43.817a6 6 0 0 0 -1.808-4.293zm-325.4 18.72v41.931l-35.667-.028 16.162-41.963zm-58.2-.182 25.849.081-12.313 31.969zm-33.627 154.662h-39.207v-11.5h42.464zm119.243-61.86h-94.673a6 6 0 0 0 -5.666 4.025l-11.973 34.335h-37.113v-48.157a6.639 6.639 0 0 1 6.632-6.632h142.793zm0-28.425h-72.919l4.888-10.295 46.61.036a6 6 0 0 0 6-6v-47.9l4.8.014a10.667 10.667 0 0 1 10.614 10.648zm18.723-90.54a6 6 0 0 0 -5.617-3.891h-.067l-109.432 1.216v-12.727l121.1-10.515 36.837 37.935a9.99 9.99 0 0 0 7.677 3.019l208.42-10.507 3.031 2.96-247.335 31.446zm135.7 35.641 42.984-5.465 30.79 68.613-39.582 15.036zm22.957 82.456-39.6 15.048-38.749-90.461 42.988-5.465zm-133.617-68.39 42.888-5.453 39.9 93.153-19.835 7.536-33.686-13.557zm-31.763 73.976v-31.541h16.075l13.38 39h-26.126zm81.469 93.518h-39.72l-7.248-16.235h33.576a13.145 13.145 0 0 0 13.115 12.65h.274zm63.332-16.724a1.155 1.155 0 0 1 -1.14 1.139h-62.469a1.155 1.155 0 0 1 -1.14-1.139v-27.017a1.155 1.155 0 0 1 1.14-1.14h62.466a1.155 1.155 0 0 1 1.14 1.14zm118.765-17.616a5.976 5.976 0 0 0 8.041 2.272 50.542 50.542 0 0 1 3.78 14.117 5.993 5.993 0 0 0 0 11.982 50.484 50.484 0 0 1 -3.779 14.115 5.994 5.994 0 0 0 -6 10.371 51.367 51.367 0 0 1 -10.328 10.329 5.994 5.994 0 0 0 -10.371 6 50.536 50.536 0 0 1 -14.12 3.778 5.993 5.993 0 0 0 -11.982 0 50.536 50.536 0 0 1 -14.115-3.779 5.993 5.993 0 0 0 -10.37-6 51.372 51.372 0 0 1 -10.329-10.329 5.993 5.993 0 0 0 -6-10.37 50.568 50.568 0 0 1 -3.779-14.116 5.993 5.993 0 0 0 0-11.982 50.542 50.542 0 0 1 3.78-14.117 5.992 5.992 0 0 0 6-10.368 51.371 51.371 0 0 1 10.332-10.331 5.992 5.992 0 0 0 10.368-6 50.526 50.526 0 0 1 14.115-3.778 5.993 5.993 0 0 0 11.982 0 50.526 50.526 0 0 1 14.115 3.778 5.992 5.992 0 0 0 10.368 6 51.4 51.4 0 0 1 10.332 10.331 6 6 0 0 0 -2.043 8.097zm.481-34.876-4.787 4.615q-1.226-.805-2.488-1.554-.238-.171-.5-.321l-.042.011a62.888 62.888 0 0 0 -92.238 38.23h-7.195v-15.506a13.155 13.155 0 0 0 -13.14-13.14h-62.465a13.155 13.155 0 0 0 -13.14 13.14v15.506h-38.908l-3.525-7.9h19.628a6 6 0 0 0 0-12h-24.985l-3.335-7.469h19.626a6 6 0 0 0 0-12h-24.984l-2.884-6.461h29.169a6 6 0 0 0 5.676-7.947l-11.2-32.657h5.619l12.7 35.434a6 6 0 0 0 3.408 3.542l38.363 15.439a6 6 0 0 0 4.371.043l133.2-50.608zm-36.606-53.47-29.584-65.925 42.962-5.465 26.177 56.357zm73.55-27.945-22.745 8.642-24.93-53.673 26.317-3.346 21.358 20.857z"/></g></svg>