<svg id="Capa_1" enable-background="new 0 0 512 512" height="512" viewBox="0 0 512 512" width="512" xmlns="http://www.w3.org/2000/svg"><g><path d="m256 287.887-81.958-78.347h-67.88l106.84 103.684v198.776h85.996v-198.776l106.84-103.684h-67.88z" fill="#d9ad90"/><g><path d="m337.958 209.54-81.958 78.347v224.113h42.998v-198.776l106.84-103.684z" fill="#cc9b7c"/></g><g><path d="m440.964 220.542h-369.928c-39.169 0-71.036-31.866-71.036-71.036s31.867-71.036 71.036-71.036h1.854v-7.433c.001-39.17 31.867-71.037 71.037-71.037h224.146c39.17 0 71.036 31.867 71.036 71.037v7.433h1.854c39.169 0 71.036 31.867 71.036 71.036.001 39.17-31.866 71.036-71.035 71.036z" fill="#fc445f"/></g><g><path d="m440.964 78.47h-1.854v-7.433c-.001-39.17-31.867-71.037-71.037-71.037h-112.073v220.542h184.964c39.169 0 71.036-31.867 71.036-71.037 0-39.169-31.867-71.035-71.036-71.035z" fill="#e1105a"/></g></g></svg>