<svg height="512pt" viewBox="-68 0 512 512" width="512pt" xmlns="http://www.w3.org/2000/svg"><path d="m368 305h-22.5v-22.5c0-4.144531-3.359375-7.5-7.5-7.5h-23.289062c-3.675782-48.125-42.445313-86.578125-90.695313-89.777344-3.199219-11.640625-13.871094-20.222656-26.515625-20.222656h-80c-12.464844 0-23.011719 8.339844-26.375 19.726562-42.519531-3.265624-76.125-38.882812-76.125-82.226562 0-4.144531-3.355469-7.5-7.5-7.5s-7.5 3.355469-7.5 7.5c0 51.238281 39.730469 93.371094 90 97.214844v122.785156c0 4.140625 3.355469 7.5 7.5 7.5 6.828125 0 13.226562-1.84375 18.746094-5.042969 1.179687 1.496094 2.429687 2.921875 3.753906 4.273438v159.863281l-24.871094 8.289062c-3.929687 1.308594-6.054687 5.558594-4.746094 9.488282 1.050782 3.140625 3.976563 5.128906 7.117188 5.128906.785156 0 1.585938-.125 2.371094-.386719l30-10c3.0625-1.019531 5.128906-3.886719 5.128906-7.113281v-154.582031c6.917969 3.289062 14.582031 5.082031 22.5 5.082031s15.582031-1.792969 22.5-5.082031v154.582031c0 3.226562 2.0625 6.09375 5.128906 7.113281l30 10c.785156.261719 1.585938.386719 2.371094.386719 3.140625 0 6.066406-1.988281 7.113281-5.128906 1.3125-3.929688-.8125-8.179688-4.742187-9.488282l-24.871094-8.289062v-159.863281c1.320312-1.347657 2.574219-2.777344 3.753906-4.273438 5.519532 3.199219 11.917969 5.042969 18.746094 5.042969 4.140625 0 7.5-3.359375 7.5-7.5v-122.144531c39.515625 3.578125 71.0625 35.128906 74.644531 74.644531h-21.644531c-4.144531 0-7.5 3.355469-7.5 7.5v22.5h-22.5c-4.144531 0-7.5 3.355469-7.5 7.5v90c0 4.140625 3.355469 7.5 7.5 7.5h120c4.140625 0 7.5-3.359375 7.5-7.5v-90c0-4.144531-3.359375-7.5-7.5-7.5zm-218-125v82.5c0 4.140625 3.355469 7.5 7.5 7.5 4.140625 0 7.5-3.359375 7.5-7.5v-82.5h15v105h-45v-105zm-45 12.5c0-6.894531 5.605469-12.5 12.5-12.5h2.5v112.5c0 9.777344-6.269531 18.117188-15 21.214844zm22.492188 122.480469c3.277343-4.359375 5.625-9.449219 6.753906-14.980469h46.507812c1.125 5.53125 3.476563 10.621094 6.75 14.980469-7.03125 9.371093-18.117187 15.019531-30.003906 15.019531-11.890625 0-22.976562-5.648438-30.007812-15.019531zm82.507812-1.265625c-8.730469-3.097656-15-11.4375-15-21.214844v-112.5h2.5c6.890625 0 12.5 5.605469 12.5 12.5zm75.5-23.714844h45v15h-45zm75 30v15h-105v-15zm-105 75v-45h44.5v7.5c0 4.140625 3.355469 7.5 7.5 7.5 4.140625 0 7.5-3.359375 7.5-7.5v-7.5h45.5v45zm0 0"/><path d="m82.5 80h25.492188c-1.96875 5.578125-2.992188 11.480469-2.992188 17.5 0 28.949219 23.550781 52.5 52.5 52.5s52.5-23.550781 52.5-52.5c0-6.019531-1.023438-11.921875-2.992188-17.5h25.492188c4.140625 0 7.5-3.355469 7.5-7.5s-3.359375-7.5-7.5-7.5h-31.003906l-5.734375-43.296875c-1.636719-12.371094-12.28125-21.703125-24.761719-21.703125h-27c-12.484375 0-23.128906 9.332031-24.765625 21.707031l-5.730469 43.292969h-31.003906c-4.144531 0-7.5 3.355469-7.5 7.5s3.355469 7.5 7.5 7.5zm112.5 17.5c0 20.675781-16.824219 37.5-37.5 37.5-20.679688 0-37.5-16.824219-37.5-37.5 0-6.160156 1.507812-12.132812 4.351562-17.5h66.296876c2.84375 5.371094 4.351562 11.339844 4.351562 17.5zm-51-82.5h27c4.984375 0 9.238281 3.730469 9.894531 8.671875l1.5 11.34375h-49.792969l1.503907-11.34375c.652343-4.941406 4.90625-8.671875 9.894531-8.671875zm-13.382812 35.015625h53.761718l1.984375 14.984375h-57.726562zm0 0"/></svg>