<svg id="Capa_1" enable-background="new 0 0 512 512" height="512" viewBox="0 0 512 512" width="512" xmlns="http://www.w3.org/2000/svg"><g><path d="m370.134 207.426-15-25.981-84.134 48.575v-102.368h-30v102.368l-84.134-48.575-15 25.981 84.134 48.574-84.134 48.574 15 25.981 84.134-48.575v107.697h30v-107.697l84.134 48.575 15-25.981-84.134-48.574z" fill="#676e74"/><g><path d="m370.134 207.426-15-25.981-84.134 48.575v-102.368h-15v262.025h15v-107.697l84.134 48.575 15-25.981-84.134-48.574z" fill="#32393f"/></g><path d="m256 0c-141.385 0-256 114.615-256 256s114.615 256 256 256 256-114.615 256-256-114.615-256-256-256zm0 370.992c-63.406 0-114.992-51.586-114.992-114.992s51.586-114.992 114.992-114.992 114.992 51.586 114.992 114.992-51.586 114.992-114.992 114.992z" fill="#676e74"/><path d="m256 0c-141.385 0-256 114.615-256 256s114.615 256 256 256 256-114.615 256-256-114.615-256-256-256zm0 370.992c-63.406 0-114.992-51.586-114.992-114.992s51.586-114.992 114.992-114.992 114.992 51.586 114.992 114.992-51.586 114.992-114.992 114.992z" fill="#676e74"/><g><path d="m256 0v141.008c63.406 0 114.992 51.586 114.992 114.992s-51.586 114.992-114.992 114.992v141.008c141.385 0 256-114.615 256-256s-114.615-256-256-256z" fill="#32393f"/></g><g><path d="m256 97.527c-87.522 0-158.473 70.951-158.473 158.473s70.951 158.473 158.473 158.473 158.473-70.951 158.473-158.473-70.951-158.473-158.473-158.473zm0 253.212c-52.239 0-94.739-42.5-94.739-94.739s42.5-94.739 94.739-94.739 94.739 42.5 94.739 94.739-42.5 94.739-94.739 94.739z" fill="#d0e8ff"/><circle cx="256" cy="256" fill="#d0e8ff" r="32.537"/><path d="m256 223.463v65.075c17.97 0 32.537-14.568 32.537-32.537 0-17.971-14.567-32.538-32.537-32.538z" fill="#9dcfff"/></g><path d="m239.015.575 28.064 48.652 25.986-14.99-19.392-33.619c-5.841-.398-11.731-.618-17.673-.618-5.709 0-11.369.207-16.985.575z" fill="#32393f"/><path d="m256 30.02 11.079 19.207 25.986-14.99-19.392-33.619c-5.841-.398-11.731-.618-17.673-.618z" fill="#1b1f21"/><g fill="#32393f"><path d="m136.592 29.566 45.426 33.031 17.643-24.264-31.389-22.824c-5.498 2.012-10.968 4.207-16.397 6.624-5.215 2.321-10.302 4.812-15.283 7.433z"/><path d="m54.817 97.71 54.934 11.699 6.248-29.342-37.959-8.085c-4.204 4.074-8.309 8.304-12.285 12.72-3.82 4.243-7.454 8.588-10.938 13.008z"/><path d="m7.827 193.223 54.943-11.656-6.226-29.347-37.965 8.054c-2.184 5.432-4.213 10.966-6.049 16.617-1.765 5.43-3.317 10.877-4.703 16.332z"/><path d="m3.749 299.591 45.452-32.996-17.624-24.277-31.407 22.8c.214 5.851.611 11.732 1.233 17.641.596 5.678 1.393 11.286 2.346 16.832z"/><path d="m43.288 398.422 28.102-48.63-25.975-15.01-19.418 33.603c2.576 5.258 5.33 10.469 8.301 15.615 2.854 4.944 5.863 9.743 8.99 14.422z"/><path d="m119.606 472.627 5.892-55.856-29.834-3.147-4.072 38.596c4.491 3.756 9.127 7.396 13.935 10.888 4.619 3.356 9.319 6.516 14.079 9.519z"/><path d="m219.508 509.375-17.336-53.424-28.535 9.26 11.979 36.915c5.631 1.604 11.346 3.044 17.159 4.279 5.584 1.188 11.163 2.162 16.733 2.97z"/></g><path d="m325.72 502.312-37.566-41.754-22.302 20.066 25.958 28.852c5.796-.825 11.603-1.834 17.416-3.07 5.584-1.187 11.077-2.566 16.494-4.094z" fill="#1b1f21"/><path d="m419.876 452.66-51.301-22.864-12.212 27.402 35.449 15.799c4.96-3.111 9.854-6.395 14.661-9.888 4.619-3.356 9.076-6.85 13.403-10.449z" fill="#1b1f21"/><path d="m485.697 369.003-56.166-.022-.011 30 38.81.015c3.266-4.859 6.401-9.85 9.372-14.996 2.855-4.944 5.506-9.949 7.995-14.997z" fill="#1b1f21"/><path d="m511.801 265.807-51.319 22.825 12.192 27.411 35.461-15.772c1.007-5.767 1.841-11.602 2.462-17.512.597-5.677.983-11.328 1.204-16.952z" fill="#1b1f21"/><path d="m493.675 160.915-37.598 41.725 22.287 20.082 25.98-28.832c-1.426-5.678-3.037-11.348-4.873-16.999-1.765-5.429-3.71-10.748-5.796-15.976z" fill="#1b1f21"/><path d="m434.453 72.465-17.377 53.41 28.528 9.281 12.007-36.906c-3.612-4.607-7.39-9.132-11.366-13.547-3.82-4.243-7.761-8.311-11.792-12.238z" fill="#1b1f21"/><path d="m256 256v107.143" fill="none"/><path d="m344.374 15.749 5.849 55.86 29.837-3.125-4.042-38.599c-5.174-2.74-10.466-5.336-15.894-7.753-5.215-2.322-10.47-4.435-15.75-6.383z" fill="#1b1f21"/><g><path d="m256 97.527v63.734c52.239 0 94.739 42.5 94.739 94.739s-42.5 94.739-94.739 94.739v63.734c87.522 0 158.473-70.951 158.473-158.473s-70.951-158.473-158.473-158.473z" fill="#9dcfff"/></g></g></svg>