<svg xmlns="http://www.w3.org/2000/svg" viewBox="0 0 504 504"><defs><style>.cls-1{fill:#fff;}.cls-2{fill:#231f20;}.cls-3{fill:none;}.cls-4,.cls-7{fill:#a64142;}.cls-5{fill:#b33940;}.cls-6{fill:#b43941;}.cls-7{opacity:0.41;}</style></defs><g id="Layer_2" data-name="Layer 2"><path d="M257.76,217.12q-2.1-13.86-3.73-28.76c-2.14-19.84-3.28-38.68-3.69-56.33l4.32-.39q4.3,44.46,8.6,88.91Z"/><path class="cls-1" d="M207,422.62a97.47,97.47,0,0,1,24.7-11.37,100.84,100.84,0,0,1,34.5-3.92c25,.92,45.14,9.39,57.63,16.07-6.88-1.69-15.79-3.59-26.27-5.1A242.44,242.44,0,0,0,260,415.56,219.61,219.61,0,0,0,207,422.62Z"/><path class="cls-2" d="M208.32,426A97.85,97.85,0,0,1,233,414.67a101.17,101.17,0,0,1,34.5-3.93c25,.92,45.14,9.39,57.63,16.08-6.88-1.69-15.79-3.59-26.27-5.1A242.44,242.44,0,0,0,261.24,419,220,220,0,0,0,208.32,426Z"/><path d="M384.15,280.54c-3.87.82-7.93,1.34-11.8,2.16l-2,2.52c.34.7,1.78.59,3.16.51,1.55-.09,3.11-.12,4.66-.13l-.16-.17,29.77-6.38a15.51,15.51,0,0,0-.87-2.53l-9.77,1.31C392.93,278.84,388.71,279.92,384.15,280.54Z"/><path class="cls-3" d="M273.09,228.55l0,.79,4.74,4.22a3.88,3.88,0,0,0,.1,1.13c.29,1,1.07,1.44,2.19,2.32,2.89,2.25,2.33,3.13,4.68,4.63a8,8,0,0,0,3.05,1.34,3.48,3.48,0,0,0,.72,0C281.27,235.23,276.36,230.81,273.09,228.55Z"/><path class="cls-3" d="M211,294.92l-.23,0c-1,.43-1.89,1.5-3,1.4a1.7,1.7,0,0,1-.31-.06c-1.4-.37-2.47-2.34-2-3.39a1.43,1.43,0,0,1,1.07-.76,8.76,8.76,0,0,1,1.31-.2c.81-.1,1.56-.21,1.79-.77a1.16,1.16,0,0,0,.06-.42c-.06-1-1.43-2.53-2.69-3.29l-1.76-.61c-.31-.08-.53.39-.75.49.14-.06.15-.5.22-.8a3.12,3.12,0,0,1-1.14,1.26c-.73.43-1.53.37-2,.88a2.5,2.5,0,0,0-.35,1.29,1.31,1.31,0,0,1-.23.61,1.88,1.88,0,0,1-.28,1.09,1.19,1.19,0,0,1-.34.3,1,1,0,0,1-.11.26c-.36.55,3.28,4.08,16.6,14.52a23,23,0,0,1-3.44-6.7C212.65,297.61,212.4,295.32,211,294.92Z"/><path class="cls-3" d="M252.59,146c1.91,1.12,4.25.79,6.25.13v.2c0-.07.53-1.7.53-1.77-2,.66-2.9-3.24-6-2.31a13.94,13.94,0,0,0-3.18,1.54C250.56,143.6,251,145,252.59,146Z"/><path class="cls-3" d="M256.68,155.62c.17.58.31,1,.43,1.39,0-.11,0-.22-.05-.35a28.36,28.36,0,0,0-.72-3.58,3.09,3.09,0,0,0-1-1.59,1.16,1.16,0,0,1,.13.22A32.21,32.21,0,0,1,256.68,155.62Z"/><path class="cls-3" d="M262,171.59a.65.65,0,0,0-.32-.23.5.5,0,0,1,0,.12A1.17,1.17,0,0,1,262,171.59Z"/><path class="cls-3" d="M408,284.8c-.85-1.48.27-2.54-.49-5.68l-29.78,6.38.17.17c2.66,0,5.33,0,8-.25a76.72,76.72,0,0,1,8.09-.51c7.24.74,8.28,4.82,14.29,5.31a10.68,10.68,0,0,0,6.09-1.23C411.33,288.12,409,286.7,408,284.8Z"/><path class="cls-3" d="M175,277.73a4.64,4.64,0,0,0-.15,1.64,3.89,3.89,0,0,0,.51,1.55c.36-.23,1.14-.41,2.94-.05l.36.38a7.26,7.26,0,0,0-1.39-2.51,3,3,0,0,0-1.57-1A1.66,1.66,0,0,0,175,277.73Z"/><path class="cls-3" d="M247.65,312.15l-.17,0c.74,3.39.59,10.41-1.13,23.27l.11.15C248.16,322.72,248.34,315.64,247.65,312.15Z"/><path class="cls-3" d="M247.65,312.13a8.65,8.65,0,0,0-.37-1.32Z"/><path class="cls-3" d="M255.45,178.23c-.24,0-.56.85-.37,1.59v0c-.12-.7.17-1.44.4-1.45s.27.27.36.55C255.76,178.61,255.62,178.23,255.45,178.23Z"/><path class="cls-3" d="M257.69,187.43s0-.05.05-.11a2.72,2.72,0,0,0-.27-1.13A9.36,9.36,0,0,1,257.69,187.43Z"/><path class="cls-3" d="M255.12,184.16c.37-.92.91-1.52,1.33-1.45s.47.42.77,1l0-.06c-.32-.68-.51-1.08-.81-1.14s-.93.54-1.3,1.46C255.09,184.05,255.11,184.11,255.12,184.16Z"/><path class="cls-3" d="M256.45,182.71c-.42-.07-1,.53-1.33,1.45a1.72,1.72,0,0,0,.71,1.17c.46.28.83,0,1.24.32a1.2,1.2,0,0,1,.4.54,2.72,2.72,0,0,1,.27,1.13,6.15,6.15,0,0,0-.11-2.43,6.33,6.33,0,0,0-.41-1.15C256.92,183.13,256.73,182.76,256.45,182.71Z"/><path class="cls-3" d="M229,166.29c-.26.07-.5.12-.73.16v.05A5.72,5.72,0,0,0,229,166.29Z"/><path class="cls-3" d="M252.61,176.71v-.51a8.73,8.73,0,0,1,0-1.46A11.6,11.6,0,0,0,252.61,176.71Z"/><path class="cls-3" d="M242.62,205.8l.19-.15a3.68,3.68,0,0,1-2.38.3c-1.58-.23-2.2-1.2-2.61-.95a.33.33,0,0,0-.12.14,9.13,9.13,0,0,0,2.44,1A3.79,3.79,0,0,0,242.62,205.8Z"/><path class="cls-3" d="M244.6,217.6c-.69.47-.94,1.43-1.52,1.92C243.75,219.15,244,218.17,244.6,217.6Z"/><path class="cls-3" d="M255.05,191.84c0-.11.82-1.74,2-1.71.69,0,1.18.63,1.57,1.21-.39-.62-.91-1.36-1.65-1.38-1.11,0-1.87,1.61-1.92,1.72a4.46,4.46,0,0,0-.26,2.58A4.28,4.28,0,0,1,255.05,191.84Z"/><path class="cls-3" d="M255.1,195.92a22.8,22.8,0,0,1,.17,6.73h0A22,22,0,0,0,255.1,195.92Z"/><path class="cls-3" d="M259.18,197.51c1.15-.74.84-3.89-.5-6l-.09-.15c-.39-.58-.88-1.19-1.57-1.21-1.15,0-1.92,1.6-2,1.71a4.28,4.28,0,0,0-.29,2.42c.06.37.14.71.2,1s.09.45.14.69a22,22,0,0,1,.22,6.72c1.75-.19,2.37-.77,2.62-1.26.61-1.2-.52-2.85.25-3.55C258.51,197.53,258.78,197.77,259.18,197.51Z"/><path class="cls-3" d="M373.69,281.86a4.5,4.5,0,0,0-.83-.79,15.56,15.56,0,0,1-1.16,1.36l.29.33c3.87-.81,7.93-1.33,11.8-2.15,4.56-.62,8.77-1.7,13-2.71l-11.27,1.52Z"/><path class="cls-3" d="M257.11,157l.09.28c0-.14,0-.29-.07-.46a24.76,24.76,0,0,0-.79-3.75,28.36,28.36,0,0,1,.72,3.58C257.08,156.79,257.09,156.9,257.11,157Z"/><path class="cls-3" d="M265.12,152l-.16-.12c-1.83-1.19-3.24,0-4.72-1.3a3.89,3.89,0,0,1-.34-.36,3.05,3.05,0,0,0,.49.53C261.87,152,263.29,150.86,265.12,152Z"/><path class="cls-3" d="M252.57,146.15c1.92,1.1,4.26.79,6.27.16v-.2c-2,.66-4.34,1-6.25-.13-1.6-.94-2-2.38-2.42-2.21a.38.38,0,0,0-.18.27.23.23,0,0,1,.11-.11C250.5,143.76,250.94,145.21,252.57,146.15Z"/><path class="cls-3" d="M347.61,249c-8.9,3.32-18.71,14.43-18.71,14.43s-1,1.11-1.77,2.18l2.19-1.9-.29,1.65c.74-.92,1.49-1.76,1.49-1.76s8.8-9.76,17.39-13.72C347.82,249.59,347.72,249.29,347.61,249Z"/><path class="cls-3" d="M292.68,312.76c-2.5,4.14-3.12,7.24-2.73,10,.15,1.09.27,1.87.8,2.09a.78.78,0,0,0,.58,0,3.51,3.51,0,0,1-.6-1.92c-.39-2.77.24-5.86,2.8-10a37,37,0,0,1,10.12-10.47c1.8-1.37,5.3-4,8.34-5.08l-.06-.5c-3.2.66-7.34,3.86-9.34,5.41A36.88,36.88,0,0,0,292.68,312.76Z"/><path class="cls-3" d="M293.53,312.93c-2.56,4.14-3.19,7.23-2.8,10a3.51,3.51,0,0,0,.6,1.92c2-.66,5.48-7.59,12.51-13.48a41.58,41.58,0,0,1,7.29-4.89c.27-1.82.54-3.65.8-5.47l.3,0c0-.7-.06-1.4-.11-2.09,0-.54-.08-1.06-.13-1.57-3,1.07-6.54,3.71-8.34,5.08A37,37,0,0,0,293.53,312.93Z"/><path class="cls-3" d="M340.06,247c-.23.1-.31.12.1-.08-1.21.6-2.36,1.11-3.44,1.57l-1.38,1.35c.82-.28,1.68-.59,2.61-1Z"/><path class="cls-3" d="M335.34,249.88a37.6,37.6,0,0,1-7,5.49c-1.56.92-1.27.61-2.73.34a4.77,4.77,0,0,1-2-.94c-.91,1.46-1.08,3.21-3,6.81-.43.82-.84,1.52-1.22,2.12l.46.65c3.22-2.53,8.79-7.24,18-15.43C337,249.29,336.16,249.6,335.34,249.88Z"/><path d="M203,269.38c-.46-.86-1-2-.63-2.56a.88.88,0,0,1,.29-.25,1.49,1.49,0,0,0-1.39.41c-.4.57.11,1.57.55,2.41.61.3,1.18.61,1.74.9A8.07,8.07,0,0,1,203,269.38Z"/><path class="cls-3" d="M287.88,243a4.94,4.94,0,0,0,.85.18l-.13-.14A3.48,3.48,0,0,1,287.88,243Z"/><path class="cls-3" d="M316,266.87c.13.14.72-.13,2.08-1.11.3-.43.69-1,1.12-1.64l-1-.86C316.79,265.64,315.78,266.66,316,266.87Z"/><path class="cls-3" d="M319.66,264.55l-.48-.43c-.43.68-.82,1.21-1.12,1.64C318.5,265.44,319,265,319.66,264.55Z"/><path class="cls-3" d="M317.94,251.07a8.28,8.28,0,0,0-2.24.46c-1.09.39-1.48.8-3.35,2.1l3,4.3.38-.09c.33-1,.2-3.57,1.37-4.68s2.39-1.49,2.3-1.82a1.47,1.47,0,0,0-1.43-.63c-.39-.29-2.08.1-3.62.65C315.92,250.81,317.55,250.78,317.94,251.07Z"/><path class="cls-3" d="M311.86,252.93l.81-.6C312.44,252.5,312.17,252.69,311.86,252.93Z"/><path class="cls-3" d="M315.7,251.53a8.28,8.28,0,0,1,2.24-.46c-.39-.29-2-.26-3.56.29l-.34.14-.11.05-.2.1-.13.07-.17.1-.13.08-.19.13-.12.07-.31.23h0l-.81.6.49.7C314.22,252.33,314.61,251.92,315.7,251.53Z"/><path class="cls-3" d="M308.23,256.22c-2.75,1-4.84.08-5.08.67-.14.37.51,1.21,3.87,3.23a4,4,0,0,0-.13.43c0-.08,1.49,1,1.55.8.32.19-.77-.84-.4-.63.1-.4,1.78-.66,3.66-1.84l1.26-.32-3.4-3A8,8,0,0,1,308.23,256.22Z"/><path class="cls-3" d="M308.43,255.33l-.08,0-.39.23-.1.06-.32.18-.1,0a3.82,3.82,0,0,1-.36.17c-2.7,1-4.74.07-5,.67-.16.4.61,1.37,4.78,3.82a4,4,0,0,1,.13-.43c-3.36-2-4-2.86-3.87-3.23.24-.59,2.33.34,5.08-.67a8,8,0,0,0,1.33-.7L309,255h0Z"/><path class="cls-3" d="M256.66,225.93l1.09.21-.66-.59Z"/><path class="cls-3" d="M252.19,225.25h0c.91-.74,1.44-1.14,1.44-1.14h.06l.92-.7-.07-.06-5,3.95c-1.39,1.17-3.07,2.61-4.9,4.24,3.23-2.8,5.95-5,7.51-6.28Z"/><polygon class="cls-3" points="257.11 221.49 259.43 223.32 257.04 221.36 254.61 223.29 254.74 223.31 257.11 221.49"/><path class="cls-3" d="M282.82,252.45c1.94,8.9.78,26.67.78,26.67l.7-.62c.2-3.54.88-18.1-.85-25.89-.8-3.56-13.12-15.16-21.43-22.66C270.15,237.45,282,248.91,282.82,252.45Z"/><path class="cls-3" d="M230.68,252.65c-1.76,7.91-1,22.78-.84,26,.33.31.53.48.53.48s-1.15-17.77.79-26.67c.58-2.66,7.44-9.79,14.26-16.35C238.39,242.75,231.28,250,230.68,252.65Z"/><path class="cls-3" d="M254.74,223.31l-.12.09-.92.7-1.5,1.15h0l4.12.77.14-.13.21,0,.43-.38.66.59.12,0,.2.19,6.55,1.22-5.19-4.25-2.32-1.83Z"/><path class="cls-3" d="M253.64,224.11s-.53.4-1.44,1.14l1.5-1.15Z"/><path class="cls-3" d="M254.74,223.31l-.13,0-.06.05.07.06Z"/><path class="cls-3" d="M283.45,252.61c1.73,7.79,1.05,22.35.85,25.89,2.46-2.26,10.63-10.12,10.31-14.94-.64-9.48-18-25.8-27.79-34.24l0,.07-2.23-1.82-6.55-1.22c1.14,1,2.48,2.24,3.95,3.6C270.33,237.45,282.65,249.05,283.45,252.61Z"/><path class="cls-3" d="M247.48,234.17l1-.9.56-.53.9-.84.63-.58.79-.74.61-.57.74-.68.6-.54.68-.63.55-.5.65-.59.47-.43.48-.43.21-.19-4.12-.77c-1.56,1.26-4.28,3.48-7.51,6.28-10,8.84-24.73,23.35-25.31,32.06-.33,4.93,8.22,13.05,10.47,15.09-.19-3.25-.92-18.12.84-26,.6-2.68,7.71-9.9,14.74-16.51l1.51-1.44Z"/><polygon points="252.19 225.25 252.19 225.25 252.19 225.25 252.19 225.25"/><path class="cls-3" d="M289.9,280c-12,10.83-14.39,8.45-20.21,21.68-2,4.54-2,9.43-2.3,19.07-.14,4.3-.38,12,1.29,12.36,1.35.3,3.18-4.4,5.67-9.87,7.67-16.84,12.71-21.52,22.17-43.54,1.85-4.31,3.37-8.11,2.57-8.64S295.43,275,289.9,280Z"/><path class="cls-3" d="M318.22,263.26l.42-.71-3.26-4.62-2.42.63Z"/><path class="cls-3" d="M219.87,236.06a8.19,8.19,0,0,0,3.77,3.91c1.24.69,3.94.54,4.88,3.86l.44-.44.09.28,5.1-5.21c-3.11-5.88-6-11.31-9.1-17.14a65.37,65.37,0,0,0-6.58-10.58l-4.79-5.53a6.08,6.08,0,0,0-2,.2,11.84,11.84,0,0,0-1.94.45,6,6,0,0,0-2.8,1.44,4.91,4.91,0,0,0-1.13,4.57c.62,2.14,2.42,1.65,3.21,3.68.63,1.63-.15,2.94-.08,7.53,0,.43,0,1.15.48,1.44s.57,1.14,1,1a4.1,4.1,0,0,0,1.93-.42c-.44,1,.5.45.59.49.94.44-.11.56,1.06,1.3.81.51,1.42-.06,1.92.4,1,.94-1.2,3.84-.16,5.12.84,1,2.73,2.64,3.65,2.44S219.4,235,219.87,236.06Zm-9.35-11.63a3.13,3.13,0,0,1,1.54-.45C211.51,224.21,211,224.54,210.52,224.43Z"/><path class="cls-3" d="M212.06,224a3.13,3.13,0,0,0-1.54.45C211,224.54,211.51,224.21,212.06,224Z"/><path class="cls-3" d="M202.19,284.25l-.13,0s.77.78.81.79c.52.06,1-.9,1.4-1.83A2.62,2.62,0,0,1,202.19,284.25Z"/><path class="cls-3" d="M192.74,284.84a7.57,7.57,0,0,1,.89-.29,3.91,3.91,0,0,0-1.16.13Z"/><path class="cls-3" d="M194,276.24c-.93-.16-1.57-.82-1.93-.51a.62.62,0,0,0-.17.42,3.44,3.44,0,0,0,1,.28A2.14,2.14,0,0,0,194,276.24Z"/><path class="cls-3" d="M200,279.09a33.94,33.94,0,0,0,3.26,4.26,4.07,4.07,0,0,1-1.15.87l.13,0a2.62,2.62,0,0,0,2.08-1.07,33.07,33.07,0,0,1-3.19-4.26c-1.64-2.58-2.14-4.16-3.32-4.25a1.51,1.51,0,0,0-.91.23C197.86,275.22,198.42,276.72,200,279.09Z"/><path class="cls-3" d="M182.31,275.85c.27.25,1.06,1.21,1.33,1.46l1-2.71-1.57,2Z"/><path class="cls-3" d="M182,272.8a3.15,3.15,0,0,0-1.36.2,3.72,3.72,0,0,1,2.54,1.76l-.87,1.09.79.75,1.57-2A3.62,3.62,0,0,0,182,272.8Z"/><path class="cls-3" d="M180.64,273a3.55,3.55,0,0,0-.86.47l2.53,2.38.87-1.09A3.72,3.72,0,0,0,180.64,273Z"/><path d="M340.06,247l.1-.08C339.75,247.16,339.83,247.14,340.06,247Z"/><polygon points="323.19 269.02 323.94 268.37 320.69 265.46 323.19 269.02"/><path d="M317.17,275.65a1.75,1.75,0,0,1,1.19-.92l-1.35-.36,6.18-5.35-2.51-3.56-.45-.11c-.69.51-1.24.9-1.66,1.17h0q-.45.28-.72.42h0l-.21.09h0l-.15,0h0a.12.12,0,0,1-.09,0c-.11-.12.19-.52.74-1.28-1.36,1-1.95,1.25-2.08,1.11s.81-1.23,2.24-3.61l-5.26-4.7-1.26.32c-1.88,1.18-3.56,1.44-3.66,1.84-.37-.21.72.82.4.63-.06.19-1.53-.88-1.55-.8-4.17-2.45-4.94-3.42-4.78-3.82.23-.6,2.27.34,5-.67a3.82,3.82,0,0,0,.36-.17l.1,0,.32-.18.1-.06.39-.23.08,0L309,255h0L296.88,244.2a44.78,44.78,0,0,1-2.79,4.79q-2.86-3.19-5.36-5.83a4.94,4.94,0,0,1-.85-.18,8,8,0,0,1-3.05-1.34c-2.35-1.5-1.79-2.38-4.68-4.63-1.12-.88-1.9-1.29-2.19-2.32a3.88,3.88,0,0,1-.1-1.13l-4.74-4.22,0-.79a10.51,10.51,0,0,0-4.16-2,6.7,6.7,0,0,1-4.34-2,6.31,6.31,0,0,1-1.33-4c-.05-1.1-.1-2.13-.14-3.11-1.49.12-3,.25-2.51,1-1.59-1.68-2.13-.59-2.86-.47-1.59.28-2.43-.18-3.84-.21-1.23,0-1.06.79-2.32.78s-2-.67-3.58-.46c-1.42.19-.72,1.36-1.83,1.73a10.16,10.16,0,0,0-1,.16c-.6.57-1.42-.84-2.09-.47a1.17,1.17,0,0,1-.59.29,1.76,1.76,0,0,1-1.2-.31c-1.07-3.76-2-6.76-2.73-8.82s-1.77-5.12-1.08-5.52l-4.68-17,2.16,10.3-4.84-2.25q-1.41-5.21-2.74-10.59h0l6,26h0c1.11,3.36,2.37,10,4.29,21.44l-1,1.16c0-.06-.05-.12-.07-.17l-.3.33a94.1,94.1,0,0,0-22.34-33.64c-4.52,5.37-13.9,1-16.07,5.53s6.76,10.06,13.57,25.94a54.86,54.86,0,0,1,4.52,16.29c.12,1.26.91,9.64-.79,16h0l.5,4.09,3.72,7.26,6.48,6.32a66,66,0,0,1,12.62,13.85q1.09,1.62,2,3.21l3.78,5.45,2.41,3.93.59,2.17a8.65,8.65,0,0,1,.37,1.32v0h0c.69,3.49.51,10.57-1.19,23.4l-.11-.15c0,.11,0,.21,0,.31-1.18-1.51-3.05-3.94-5.29-7-10.59-14.35-14.91-22.63-22.59-34-3.43-5.07-8.74-12.54-16-21.31a2.72,2.72,0,0,0,.64-1.92c-.09-.7-.52-.89-1.12-2l-.09-.15a18.68,18.68,0,0,0-10.34-2.49c-7.78.53-15.37,6.12-16.54,10.83a1.66,1.66,0,0,1,.7,0,3,3,0,0,1,1.57,1c.67.71,1.28,1.66,2,2.51,1.93,2,2.94,3.72,4.25,5.07h0q5.44,4.73,10.92,9.59,11.15,9.88,21.72,19.72l1.75,1.3a69.7,69.7,0,0,1,17.5,23.52c7.52,16.68,6.27,32.36,4.54,54.2-.59,7.44-1.49,14.25-2.51,20.35l.1,0a97,97,0,0,1,33.78-3.92,108.85,108.85,0,0,1,24.12,3.44c-.63-3-1.27-6.12-1.9-9.49-3-16.17-4.9-26.17-4.8-38.67a122.52,122.52,0,0,1,2.75-24.67c1.49-2.91,4.75-13.35,11.1-21.31,4.2-5.27,4.82-5.71,9.41-9.28.09-1.41.17-2.86.21-4.34a42.6,42.6,0,0,0-7.27,4.8C297,318,293.46,325.83,291.55,325a.65.65,0,0,1-.22-.18.78.78,0,0,1-.58,0c-.53-.22-.65-1-.8-2.09-.39-2.77.23-5.87,2.73-10a36.88,36.88,0,0,1,9.91-10.47c2-1.55,6.83-6.09,10-6.75-.17-1.51-.92-1.78-1.25-2.77a11.09,11.09,0,0,0-2.25.38c-4.47,1.53-11.49,7.32-14.55,8.07-.7.18,7.75-2.51,6.35-2.81-.37-.05-6.11,2.95-6.54,2.84,1.48-3.1,4.7-11.16,6.18-14.27,3.47-8.42,4-8.8,4.1-9.28s1.06,2.39,1,1.23.83,1.33.55.69-1.63,2-1.91,1.38c-.41-.85,1.37-3.46,3.3-3.49a2.12,2.12,0,0,1,.91.19l.26,0m-125.13-.36c-.27-.25-1.06-1.21-1.33-1.46l-.72.91-3.4-3.13a3.48,3.48,0,0,1,2.27-.66l.18,0a3.15,3.15,0,0,1,1.36-.2,3.62,3.62,0,0,1,2.67,1.8Zm13.86,8.87c-.26,0-.45-.25-.69-.6-.2.42-.26.72-.52.76-.48.07-.71-.94-1.53-1.46a2.22,2.22,0,0,0-1.13-.33,7.57,7.57,0,0,0-.89.29l-.27-.16a9.3,9.3,0,0,0-1,.33c-2.56-1.45-3-2.12-2.92-2.46s1.28-.17,2.66-1c.12-.07,1.9-1.17,1.73-2.2s-1.8-.88-2.26-2.26c-.13-.36-.22-1,.06-1.19s.64,0,1.16.25a.62.62,0,0,1,.17-.42c.36-.31,1,.35,1.93.51,1-.46,1.57-1.49,2.6-1.41a1.37,1.37,0,0,1,.29.07,1.51,1.51,0,0,1,.91-.23c1.18.09,1.68,1.67,3.32,4.25a33.07,33.07,0,0,0,3.19,4.26c-.39.93-.88,1.89-1.4,1.83,0,0-.77-.78-.81-.79a1.79,1.79,0,0,1-1,.19c-.68-.07-.47.28-1,.14-.59.29-.88,1.05-1,1.17C198.4,286.51,197.88,286.12,197.5,286.18Zm20.88,22.45c-15.54-11.84-19.69-15.72-19.3-16.3.13-.19.75-.11,1.26-.43a4.51,4.51,0,0,1,.62-1.39h0a1.1,1.1,0,0,1,.23-.61,2.5,2.5,0,0,1,.35-1.29c.42-.51,1.22-.45,2-.88a3.12,3.12,0,0,0,1.14-1.26c0-.19.1-.32.22-.29a2.21,2.21,0,0,0-.22.29c-.07.3-.08.74-.22.8.22-.1.44-.57.75-.49l1.76.61c1.25.69,2.64,2.24,2.69,3.29a1.16,1.16,0,0,1-.06.42c-.23.56-1,.67-1.79.77a9.51,9.51,0,0,1-1.31.2,1.43,1.43,0,0,0-1.07.76c-.45,1.05.62,3,2,3.39a1.7,1.7,0,0,0,.31.06c1.08-.44,2-1.52,3-1.4a1.59,1.59,0,0,1,1.13-.12c1.37.4,2.63,3.24,3.64,5.51,1.54,3.46,1.81,4.7,3.59,8.19l-2.29-1.78C217.29,307.31,217.8,308,218.38,308.63Zm-2.67-76.26c-1-1.28,1.19-4.18.16-5.12-.5-.46-1.11.11-1.92-.4-1.17-.74-.12-.86-1.06-1.3-.09,0-1,.5-.59-.49a4.1,4.1,0,0,1-1.93.42c-.42.18-.66-.75-1-1s-.48-1-.48-1.44c-.07-4.59.71-5.9.08-7.53-.79-2-2.59-1.54-3.21-3.68a4.91,4.91,0,0,1,1.13-4.57,6,6,0,0,1,2.8-1.44,11.84,11.84,0,0,1,1.94-.45,6.08,6.08,0,0,1,2-.2c2.33.3,3.7,3.36,4.79,5.53a65.37,65.37,0,0,1,6.58,10.58c3.1,5.83,6,11.26,9.1,17.14l-5.1,5.21-.09-.28-.44.44c-.94-3.32-3.64-3.17-4.88-3.86a8.19,8.19,0,0,1-3.77-3.91c-.47-1,.46-1.45-.51-1.25S216.55,233.42,215.71,232.37Zm5.61,19.95a.31.31,0,0,0,.19.06c-.39.17-.72.24-.88.11-.33-.26-.07-1.37.62-2a2.27,2.27,0,0,1,1.32-.56,2,2,0,0,0-.64.4C221.25,251,221,252.06,221.32,252.32ZM262,230c-1.52-1.37-2.9-2.6-4.06-3.62l-1.45-.27c-2.72,2.4-6.89,6.13-11.09,10.08-6.82,6.56-13.68,13.69-14.26,16.35-1.94,8.9-.79,26.67-.79,26.67s-.2-.17-.53-.48c0,.41,0,.64,0,.64s-11.63-9.89-11.24-15.56c.6-8.77,15.87-23.4,26-32.23,1.83-1.63,3.51-3.07,4.9-4.24l5-3.95-.07-.07.13,0,2.43-1.93,2.39,2,0,0,.2,0-.11.1.82.64.13,0s1.7,1.32,4.35,3.51l0,0h0c9.23,7.66,29.91,25.87,30.61,36.11.39,5.67-11.24,15.57-11.24,15.57s0-.29.05-.79l-.7.62s1.16-17.77-.78-26.67C282,248.91,270.15,237.45,262,230Zm34.5,49.72c-9.46,22-14.5,26.7-22.17,43.54-2.49,5.47-4.32,10.17-5.67,9.87-1.67-.36-1.43-8.06-1.29-12.36.3-9.64.3-14.53,2.3-19.07,5.82-13.23,8.22-10.85,20.21-21.68,5.53-5,8.28-9.53,9.19-8.94S298.37,275.36,296.52,279.67Z"/><path d="M213.68,205.21l4.79,5.53C217.38,208.57,216,205.51,213.68,205.21Z"/><path d="M175.66,277.74a3,3,0,0,1,1.57,1A3,3,0,0,0,175.66,277.74Z"/><path d="M209.61,290.68c-.05-1.05-1.44-2.6-2.69-3.29C208.18,288.15,209.55,289.65,209.61,290.68Z"/><path d="M347.32,248.79c-.93-2.6-2.05-5.2-4-5.22-1.8,0,.36.34-2.38,3.09.72-.3-.37.19-.84.38L338,248.92c1.27-.51,2.63-1.1,4.07-1.79l-2,1.71-.59.51-1.31,1.13-.63.55c-.41.35-.81.7-1.21,1l-.54.47-1.37,1.17-.28.25-1.57,1.34-.3.25-1.19,1-.37.32-1,.86-.36.31-1.05.87-.21.18L325.7,261l-.12.09-.92.76-.15.12-.85.68-.09.08c-.93.74-1.73,1.38-2.43,1.91h0l-.66.5h0l.2.29,3.26,2.91,3.19-2.76c.79-1.07,1.77-2.18,1.77-2.18S338.41,252.12,347.32,248.79Z"/><path d="M320.68,265.46l-.2-.29-.07.05Z"/><path d="M320.41,265.22l-.18.13.45.11-.27-.24Z"/><path d="M233.78,181.83c-.05,0-.07,0,0,0S233.8,181.84,233.78,181.83Z"/><path d="M312.34,253.64c-1.22.85-2.09,1.46-2.78,1.88l3.4,3,2.42-.63-3-4.3Zm1.39,2.79h0Z"/><path d="M313.73,256.43h0Z"/><path d="M312.34,253.64h0l-.49-.7-.22.16-.54.38-.63.45-1.05.74h0L309,255h0l.61.54C310.25,255.1,311.12,254.49,312.34,253.64Z"/><path d="M309.42,254.66l1.05-.74Z"/><path d="M257.87,226.16l-.12,0,.21.19.11,0Z"/><path d="M256.45,225.89l-.14.13.2,0,.15-.13Z"/><path d="M264.88,227.61l0,0-4.48-3.53-.82-.64-.09-.07,0,0,5.19,4.25Z"/><path d="M291.33,324.85a.65.65,0,0,0,.22.18c1.91.8,5.44-7,13.38-13.5a42.6,42.6,0,0,1,7.27-4.8l-1.07-.25a41.58,41.58,0,0,0-7.29,4.89C296.81,317.26,293.31,324.19,291.33,324.85Z"/><path d="M320.48,265.17l.66-.5h0c.7-.53,1.5-1.17,2.43-1.91l.09-.08.85-.68.15-.12.92-.76.12-.09,2.34-1.94.21-.18,1.05-.87.36-.31,1-.86.37-.32,1.19-1,.3-.25,1.57-1.34.28-.25,1.37-1.17.54-.47c.4-.33.8-.68,1.21-1l.63-.55,1.31-1.13.59-.51,2-1.71c-1.44.69-2.8,1.28-4.07,1.79-9.25,8.19-14.82,12.9-18,15.43l.57.82Z"/><polygon points="320.48 265.17 320.48 265.17 320.48 265.17 320.48 265.17"/><path d="M317.32,267a.12.12,0,0,0,.09,0h0l.15,0h0l.21-.09h0q.27-.13.72-.42h0c.42-.27,1-.66,1.66-1.17l-.16,0,.32-.12-.73-.65c-.62.48-1.16.89-1.6,1.21C317.51,266.52,317.21,266.92,317.32,267Z"/><path d="M320.41,265.22l0,0-.32.12.16,0,.18-.13Z"/><path d="M318.57,266.52c.42-.27,1-.66,1.66-1.17h0C319.54,265.86,319,266.25,318.57,266.52Z"/><path d="M320.23,265.35h0l.18-.13Z"/><path d="M323.57,262.76c-.93.74-1.73,1.38-2.43,1.91C321.84,264.14,322.64,263.5,323.57,262.76Z"/><path d="M320.48,265.17l-.57-.82-.25.2.73.65Z"/><path d="M320.39,265.2l0,0,.07-.05h0Z"/><path d="M220.72,208.06a95.71,95.71,0,0,1,15.53,26.32l.3-.33a96,96,0,0,0-15.14-26.15,91.85,91.85,0,0,0-6.66-7.32c0-.33,0-.71,0-1.14a7,7,0,0,1-.86,1.3A96.18,96.18,0,0,1,220.72,208.06Z"/><path d="M222.57,249.92a2.27,2.27,0,0,0-1.32.56c-.69.64-.95,1.75-.62,2,.16.13.49.06.88-.11a.31.31,0,0,1-.19-.06c-.32-.26-.07-1.37.61-2A2,2,0,0,1,222.57,249.92Z"/><path d="M203.05,271.55a2.72,2.72,0,0,1-.64,1.92c7.28,8.77,12.59,16.24,16,21.31,7.68,11.33,12,19.61,22.59,34,2.24,3,4.11,5.46,5.29,7,0-.1,0-.2,0-.31-1.16-1.52-2.94-3.88-5.06-6.82-10.37-14.35-14.61-22.63-22.12-34-3.36-5.07-8.56-12.54-15.68-21.31a2.74,2.74,0,0,0,.62-1.92,2.14,2.14,0,0,0-.53-1.09c-.56-.29-1.13-.6-1.74-.9l.09.15C202.53,270.66,203,270.85,203.05,271.55Z"/><path d="M180.64,273l-.18,0a3.48,3.48,0,0,0-2.27.66l3.4,3.13.72-.91-2.53-2.38A3.55,3.55,0,0,1,180.64,273Z"/><path d="M196,284.71a2.85,2.85,0,0,0-2.37-.16,2.22,2.22,0,0,1,1.13.33c.82.52,1.05,1.53,1.53,1.46.26,0,.32-.34.52-.76A3.15,3.15,0,0,0,196,284.71Z"/><path d="M189.88,282.38c.14-.45,1.26-.17,2.6-1,.12-.08,1.87-1.18,1.7-2.2s-1.76-.89-2.22-2.26a2.2,2.2,0,0,1-.1-.78c-.52-.23-.9-.47-1.16-.25s-.19.83-.06,1.19c.46,1.38,2.1,1.33,2.26,2.26s-1.61,2.13-1.73,2.2c-1.38.83-2.52.54-2.66,1s.36,1,2.92,2.46a9.3,9.3,0,0,1,1-.33C190.22,283.35,189.77,282.71,189.88,282.38Z"/><path d="M196.85,274.9a1.37,1.37,0,0,0-.29-.07c-1-.08-1.63.95-2.6,1.41l.15,0C195.39,276.39,196,275.38,196.85,274.9Z"/><path d="M201,290.51a1.31,1.31,0,0,0,.23-.61A1.1,1.1,0,0,0,201,290.51Z"/><path d="M200.23,292.16a1,1,0,0,0,.11-.26c-.51.32-1.13.24-1.26.43-.39.58,3.76,4.46,19.3,16.3-.58-.67-1.09-1.32-1.55-1.95C203.51,296.24,199.87,292.71,200.23,292.16Z"/><path d="M204.63,286.47a2.21,2.21,0,0,1,.22-.29C204.73,286.15,204.67,286.28,204.63,286.47Z"/><path d="M200.68,291.6a1.88,1.88,0,0,0,.28-1.09h0a4.51,4.51,0,0,0-.62,1.39A1.19,1.19,0,0,0,200.68,291.6Z"/><path d="M207.71,296.28c1.16.1,2.09-1,3-1.4C209.71,294.76,208.79,295.84,207.71,296.28Z"/><path d="M207.76,291.87a8.76,8.76,0,0,0-1.31.2A9.51,9.51,0,0,0,207.76,291.87Z"/><path d="M406.6,276.59c-.08-.19-.17-.38-.26-.57-3.3.46-6.42,1.15-9.51,1.88Z"/><path d="M260.49,224.07l-.13,0,4.48,3.53C262.19,225.39,260.49,224.07,260.49,224.07Z"/><path d="M259.65,223.31l-.2,0,.09.07Z"/><path d="M254.48,223.27l.07.07.06-.05Z"/><path d="M266.85,229.39l0-.07c9.75,8.44,27.15,24.76,27.79,34.24.32,4.82-7.85,12.68-10.31,14.94,0,.5-.05.79-.05.79s11.63-9.9,11.24-15.57c-.7-10.24-21.38-28.45-30.61-36.11l-.26,0Z"/><path d="M258,226.33c1.16,1,2.54,2.25,4.06,3.62-1.47-1.36-2.81-2.58-3.95-3.6Z"/><path d="M219.37,263.59c.58-8.71,15.35-23.22,25.31-32.06-10.17,8.83-25.44,23.46-26,32.23-.39,5.67,11.24,15.56,11.24,15.56s0-.23,0-.64C227.59,276.64,219,268.52,219.37,263.59Z"/><path d="M255.62,226.64l-.47.43-.65.59-.55.5-.68.63-.6.54-.74.68-.61.57-.79.74-.63.58-.9.84-.56.53-1,.9-.55.53-1.51,1.44c4.2-3.95,8.37-7.68,11.09-10.08l-.2,0Z"/><path d="M255.62,226.64l.69-.62-.21.19Z"/><path d="M264.88,227.61l0,0,0,0Z"/><path d="M256.66,225.93l-.15.13,1.45.27-.21-.19Z"/><path class="cls-4" d="M254,170.29a3.25,3.25,0,0,1,.18.43,3.54,3.54,0,0,1,.49,1.19A3.69,3.69,0,0,0,254,170.29Z"/><path class="cls-4" d="M257.82,176.18l.05,0-.05,0Z"/><path class="cls-4" d="M251.74,161.53c-.32-1.11-.21,0-.3.54C251.75,162.22,252,162.26,251.74,161.53Z"/><path class="cls-4" d="M248.27,157.44a6.23,6.23,0,0,0,1.52,1.83c-.29-.68-1.61-1.43-1.76-2.93A3.26,3.26,0,0,0,248.27,157.44Z"/><path class="cls-4" d="M247.38,151.43a5.34,5.34,0,0,0-1.16,1.88.38.38,0,0,0,.15.09C246.3,153.11,246.52,152.53,247.38,151.43Z"/><path class="cls-4" d="M248.16,154.43a7.29,7.29,0,0,1-.09,1c.13-.69.37-1.2.05-1.54a.57.57,0,0,0-.13-.1,1.09,1.09,0,0,1,.17.66Z"/><path class="cls-4" d="M248,150.74c0-.1-.07-.22-.1-.32l-.18.05c0,.14.05.34.09.48Z"/><path class="cls-4" d="M254.84,151.08c-.52-.24-.73.06-1.84.17a5.28,5.28,0,0,1-.56,0,1.78,1.78,0,0,0,.48.19c.93.22,1.36-.51,2.17-.13a1.31,1.31,0,0,1,.24.17A1.14,1.14,0,0,0,254.84,151.08Z"/><path class="cls-4" d="M259.11,175.18a10,10,0,0,0,2.11-2.23A10,10,0,0,1,259.11,175.18Z"/><path class="cls-4" d="M257.38,176.46c.15-.09.3-.18.44-.28h0Z"/><path class="cls-4" d="M248.72,163.83l.29.17c.23.14.26.1.2,0l1.08,1.53c0-.22.12-.37.25-.41s-.24-1-.51-1.78h0c.32-.1.55-.49.73-.77.29-.13.47-.23.39-.23.18.18.25,0,.29-.23-.34-.18-.79-.5-.88,0a.1.1,0,0,1,0,.07,10,10,0,0,0-1.62.19h0l-.78.16a1.12,1.12,0,0,0-.47.18c-.26.36.39-.62.61.55,0,.1,0,.17.05.22l-.21.1a6.58,6.58,0,0,0-1.85-.76c-.47.34,1.52.72,1.6.87l-.06,0c-.25-.11-.37-.17-.14,0,0,0-.69.44.34,0A1.24,1.24,0,0,0,248.72,163.83Z"/><path d="M229.23,183.78l1,.9.35.32,2.2,3.16-4.56-21.66c-.76.19-1.41.21-2,.31a10,10,0,0,1,2-.36l-7.79-37-3.55.65c1.81,13.81,4.32,28.49,7.75,43.89q1.32,6,2.74,11.68C228.24,185.05,229.06,184.45,229.23,183.78Z"/><path d="M228.24,166.5v-.05a10,10,0,0,0-2,.36C226.83,166.71,227.48,166.69,228.24,166.5Z"/><path d="M229.76,185.23a4.43,4.43,0,0,1,.84-.23l-.35-.32Z"/><path d="M235,198.46l-2.16-10.3L230.6,185a4.43,4.43,0,0,0-.84.23c-.37.41-.61.62-.55.44a.87.87,0,0,1,.55-.44l.49-.55-1-.9c-.17.67-1,1.27-1.85,1.84q1.34,5.38,2.74,10.59Z"/><path d="M229.21,185.67c-.06.18.18,0,.55-.44A.87.87,0,0,0,229.21,185.67Z"/><path class="cls-4" d="M247.65,312.13v0h0Z"/><polygon points="295.67 300.79 294.41 301.29 295.13 301.21 295.64 300.87 295.67 300.79"/><path class="cls-1" d="M207.62,421.52a97.47,97.47,0,0,1,24.7-11.37,101.36,101.36,0,0,1,34.5-3.92c25,.92,45.14,9.39,57.63,16.07-6.88-1.69-15.79-3.59-26.27-5.09a242.11,242.11,0,0,0-37.64-2.75A220.12,220.12,0,0,0,207.62,421.52Z"/><path class="cls-2" d="M209,426c5.58-3.57,13.57-8.68,24.7-11.36a129.6,129.6,0,0,1,34.5-3.93c25,.92,45.15,9.39,57.63,16.08-6.87-1.69-15.78-3.59-26.26-5.1A242.44,242.44,0,0,0,261.93,419,220.15,220.15,0,0,0,209,426Z"/><path class="cls-3" d="M256.33,166.72c.06.19.13.37.18.56C256.47,167.13,256.39,166.93,256.33,166.72Z"/><path class="cls-4" d="M256.19,166.15a2.77,2.77,0,0,0,.13.54A2.82,2.82,0,0,1,256.19,166.15Z"/><path class="cls-5" d="M261.6,171.36c0-.05,0-.1,0-.14-.36-1.34-2.32-1-4.15-3.06a8.54,8.54,0,0,1-1.24-2,2.82,2.82,0,0,0,.13.54v0h0c.06.21.14.41.18.56-.05-.19-.12-.37-.18-.56h0v0a2.77,2.77,0,0,1-.13-.54c-.25-.67-.31-1.26-.05-1.57.55-.66,2,.49,3.2-.29a3.06,3.06,0,0,0,.88-3.53l-.08-.13,0-.06c-.52-.86-1.42-.77-2.37-2a7,7,0,0,1-.68-1.58c.14,1,.38,1.33.38,1.74a7.6,7.6,0,0,1-.38-1.74c-.12-.37-.26-.82-.43-1.39a32,32,0,0,0-1.17-3.92,1.59,1.59,0,0,0-.13-.22,1.25,1.25,0,0,0-.24-.16c-.81-.39-1.24.34-2.17.13a2,2,0,0,1-.48-.2h-.26c-2.06-.09-3-1.22-4.29-.82,0,.09,0,.18.07.28l-.12.15c0-.14-.07-.26-.1-.4h0c-1.26.53-1.92,2.26-1.54,2.79l.05,0a5.34,5.34,0,0,1,1.16-1.88c-.85,1.1-1.16,1.67-1,2,.37.13,1-.17,1.44.21.06,0,.08.1.12.14l.13.1c.31.34.08.85-.05,1.54a4.83,4.83,0,0,0,0,.94c.14,1.35,1.14,2.06,1.56,2.68a1.34,1.34,0,0,1,.31.34c.12.22.08.22,0,.42a.51.51,0,0,1-.35.44,3.43,3.43,0,0,1-.95.21,8.25,8.25,0,0,0-3.92,1.27l-.22.2c-.18.19-1,1-.9,1.72a3.46,3.46,0,0,0,.4.5,2.5,2.5,0,0,0,.33.26c.75.28,1.83.33,2.14,1.1s-.46,1.17-.22,2.34c.19,1,.75,1,.76,1.68a1.38,1.38,0,0,1-.51,1l-.52.52a2.33,2.33,0,0,0-.61,1.12,3,3,0,0,0,.06,1.26.85.85,0,0,0,.53.39c.86.16,1.61-2,2.48-1.83a.78.78,0,0,1,.47.41c.2.19.38.46.57.68l.12,0c.22,0,.59-.07,1.28-1,1.31-1.8,1.17-3.07,1.7-3.17s1,.53,1.41,1.35c.23.38,1.12,1.24.67,1.61a3.73,3.73,0,0,0-.67-1.61,4.88,4.88,0,0,1,.33,2.09,2.57,2.57,0,0,1-.3.67,1.77,1.77,0,0,1-.16.22c-.53.66-1.28,1-1.24,1.7.06,1,1.54,1.87,2.85,2a3.84,3.84,0,0,0,.59,0h0a3.75,3.75,0,0,0,.6-.14l.15-.06a4.68,4.68,0,0,0,.45-.2l.1-.06a3.29,3.29,0,0,0,.44-.28l.06,0c.2-.14.4-.29.59-.45l0,0c.21-.16.41-.33.6-.49a9.71,9.71,0,0,0,2.11-2.22h0a3.6,3.6,0,0,0,.26-.52h0a2.21,2.21,0,0,0,.16-.52,2.25,2.25,0,0,0,0-.44S261.61,171.4,261.6,171.36Z"/><path class="cls-4" d="M257.05,157a7.6,7.6,0,0,0,.38,1.74C257.43,158.34,257.19,158,257.05,157Z"/><path class="cls-4" d="M253.94,170.29a3.73,3.73,0,0,1,.67,1.61C255.06,171.53,254.17,170.67,253.94,170.29Z"/></g><g id="Layer_1" data-name="Layer 1"><path class="cls-3" d="M313.27,209.16c1-1.25,1.72-1.31,2.45-2.25,1.18-1.52.32-2.57,1-4.21,1.49-3.46,7.8-4.4,8.93-4.57,2.41-.36,4-.09,4.71-1.22a3,3,0,0,0-.21-3c-1.07-1.71-3-1-4.79-2.33-2.9-2.16-2.28-7.46-2.18-8.31a15.08,15.08,0,0,1,3.78-8c1.93-2.08,3.46-2.44,4.15-4.58s.12-4.29-.55-4.42-1,2.14-3.39,4.24c-1.53,1.32-2.27,1.14-2.94,2.31s-.17,1.7-.47,4.23c-.25,2.06-.49,4-1.75,4.73s-3-.25-3.25.31,1.25,1.26,1.16,2.5a2.44,2.44,0,0,1-1.7,1.89,3.12,3.12,0,0,1-2.09-.18c-3-1.29-2.06-8.78-2.59-8.79-.27,0-.38,1.93-1.46,4.73-.26.66-.51,1.2-.69,1.59a5.72,5.72,0,0,1,1.74,2.27c.51,1.26.12,1.8.42,4,0,.28.3,1.4.81,3.64a14.3,14.3,0,0,1,.59,2.9,7,7,0,0,1-2.31,4.31c-1.38,1.34-2.33,1.34-2.6,2.4s.48,1.12.48,2.53c0,1.72-1.06,2.41-.63,3.67a2.53,2.53,0,0,0,.74,1.06,3.84,3.84,0,0,1,.92,2.08,5.29,5.29,0,0,1,.26-1A9.52,9.52,0,0,1,313.27,209.16Z"/><path class="cls-4" d="M311.8,215.65a15.21,15.21,0,0,0-.22-2.92A7.48,7.48,0,0,0,311.8,215.65Z"/><path class="cls-5" d="M176.14,235.79c5.61-16.57-14.91-23.24-11.22-45.38,1.48-8.87,8.49-30.12,8.39-38.16,0-.62-.11-5.76-2.34-6.54-.67-.24-1.21,0-1.66-.39-.61-.59-.09-1.58.21-2.88-1.65.35-3.23,3.78-2.43,4.79s3.74-.45,4,.07-1.61,1.67-6.28,4.92c-2.67,1.86-3.24,2.25-3.36,3.06-.33,2.1,2.86,3.31,2.55,5.75-.19,1.51-1.48,1.6-1.6,3.09-.19,2.41,3,4.09,2.58,4.91-.34.61-2-.54-4.34.19-1.57.5-1.7,1.33-3.28,1.62s-2.08-.46-3.09-.14c-2.39.77-2.37,5.9-3.22,5.89s-.27-3.41-2.38-5.61a7,7,0,0,0-7.47-1.53c-2.28,1.05-1.74,3-4.43,4.41a12,12,0,0,1-5.21,1c-2.75.11-3.51-.48-4.68.19-1.68,1-2,3.28-2.15,4.18-.63,4.21,2.13,7.63,2.55,8.13,2,2.45,3.06,1.56,5.34,4.35,1.56,1.92,1.79,3.2,3.46,4,1.26.57,1.59.05,3.78.31.77.09,1.56.24,7.48,2.58,2.82,1.11,3.06,1.24,3.71,1.19,2.42-.2,3.46-2.34,4.84-1.82,1,.36,1.52,1.79,1.16,2.34s-1.28,0-2.11.61-.41,1.25-1,2.44c-.92,1.8-2.59,2-2.46,2.81s1.81.65,2.13,1.67-1,1.66-.75,2.75c.14.58.64.93,1.64,1.5,3.46,1.95,4.68,1.86,4.91,2.69.33,1.25-2.27,2.06-2.35,4.39-.05,1.42.9,1.94.51,2.86-.46,1.08-2.39,1.76-3.91,1.31-2.19-.65-2.09-3.16-4.28-3.72-1.62-.42-2.72.7-3.35,0-.83-.85.78-3-.3-4.31a2.53,2.53,0,0,0-1.19-.75c-1.19-.36-2,.39-2.53,0s-.42-1.49-.18-2.26c.46-1.46,1.58-2,4.17-4,1.78-1.4,2.67-2.11,2.73-2.53.29-2.21-5.14-5.57-10.53-6.66-3.91-.78-5.27.13-8.29-1.44-2.08-1.08-3-2.33-4.58-2s-1.84,1.9-4.05,2.55c-1.83.54-2.31-.38-3.64.21-1.74.77-1.26,2.46-3.37,5.19-1.76,2.28-3.18,2.51-3.18,3.91a2.93,2.93,0,0,0,2.13,2.7c1.89.38,3.58-2.28,4.21-1.85s-1.33,4-.42,4.69c.22.18.5.09,1.54-.21,2.33-.66,3.51-1,3.8-1,2-.07,2.39,1.54,3.77,1.22,1.65-.37,1.6-2.82,3.36-3.22a2.51,2.51,0,0,1,2.64,1c.78,1.61-1.89,4.76-4.28,6.61-3.86,3-6.87,2.48-7.61,4.81-.61,1.92,1.06,3.35,0,4.93-.86,1.29-2.32.84-3.07,2.23s.24,2.91-.53,3.49-1.9-.57-2.72,0-.06,2-.89,2.79a3,3,0,0,1-3.91-.51c-.89-1.2.28-2.86-.59-3.61s-2,.37-2.74-.22c-1.29-1,1.09-4.85-.28-6.09-.78-.71-2.35-.17-3,.05-1.37.47-2.12,1.37-3.41,3-1.72,2.12-2.71,3.33-2.5,4.8.18,1.28,1.14,1.86.81,2.5-.44.84-2.28.21-2.78,1.08s1,2,.54,2.83-2.52,1.07-3.71.07a2.08,2.08,0,0,1-.83-1.33c-.18-1.61,2.27-2.59,2-3.71-.21-.72-1.31-.66-1.4-1.33s1.36-1.09,1.69-2.38c.28-1.1-.63-1.48-.38-2.48.36-1.48,2.51-1.28,3-2.78.31-1-.59-1.4-.46-3.21.1-1.26.58-1.58.32-2.12-.4-.83-1.81-.54-3.89-.93-3.06-.58-3.07-1.8-5.55-2-2.32-.21-4.68.65-4.78,1.55-.09.73,1.32,1.14,1.2,2-.07.57-.7.58-1.82,1.6s-1.11,1.64-1.86,1.84-1.45-.44-2,0-.23.85-.68,1.2c-.79.62-2.11-.59-3,0-.42.27-.33.66-.68,1.4-.73,1.54-1.93,1.52-2.67,2.53-1.24,1.68-.49,5.2,1.4,6.95,1.48,1.37,3.09,1.13,3.32,2.19.28,1.29-2,2.21-1.71,3.48s2.68.91,3.66,2.7c.74,1.35-.17,2.34.61,3.22,1.1,1.24,3.43-.16,4.28.87,1.07,1.3-1.15,5.32-2.24,5.14-.55-.08-.39-1.15-1.57-2.22A6.46,6.46,0,0,0,75,250.53a10.39,10.39,0,0,0-3.11-1c-2.13-.06-3.66,2.21-6.34,6.17-2.19,3.23-2.28,4.38-1.89,5s1.47.74,1.54,1.38c.13,1-2.38,1.93-2.18,2.55.13.44,1.34.08,1.8.75s-.61,2.12-.11,2.65,1.41-.32,2.06.14,0,1.72.49,2.89c.36.91,1.33,1.56,5.61,2.62s5.71,1,5.82,1.63c.23,1.3-6.21,2.26-6.82,5.76-.22,1.26.44,2.14-.21,3.94-.5,1.39-1.28,1.93-1.06,2.51s1.06.92,3.92.71c-1.85,2.24-2.31,4.8-1.26,6.3.67.94,2.11,1.71,2.95,1.29s.47-2.16,1.54-2.72a2.07,2.07,0,0,1,2.24.43c1.1,1.1-.38,2.75.45,4.49,1.07,2.27,4.72,1.86,5,3.53.22,1.26-1.74,2.15-1.39,3s2.36,0,5.08.85,3.38,2.55,4.7,2.1a3.08,3.08,0,0,0,1.71-2.85c0-1.17-.83-1.67-.56-2.11.42-.7,2.47.7,4.76,0,2-.61,2.52-2.33,3.53-2.06s1.52,1.82,1.36,3.2c-.4,3.39-5.59,5.36-5.26,6,.18.37,1.73-.47,2.61.3s.16,2,1,2.58a2.42,2.42,0,0,0,2.63-.28c1.19-.88.75-2.26,1.65-2.72,1.07-.54,2,1.24,3.78,1.22,2.56,0,3.23-3.88,5.41-3.81,1.91.06,2.38,3.06,5,3.26,1.11.09,1.19-.44,2.51-.33,2,.17,2.45,1.48,4,1.51,1.86,0,2.33-1.81,3.49-1.58,2.06.42,1.3,6.38,4.16,7.56,1,.39,1.14-.23,3.79-.48,4.17-.39,5.53,1,7.15-.16,1.11-.79.54-1.47,2.07-3.18s2.71-1.48,3.62-3a5.66,5.66,0,0,0,.36-4.38,3.68,3.68,0,0,0-1.79-2.5c-.95-.38-1.56.23-1.91-.1-.89-.82,2.87-4.51,2-8.35a3.52,3.52,0,0,0-1.41-2.35c-1.34-.79-3.23,0-5.59,1-3.2,1.41-4,2.47-4.78,2.07-1.5-.76.43-4.9-1.36-6.31s-6.35.37-6.89,2.62c-.3,1.21.64,2.41-.11,3.38a2.27,2.27,0,0,1-1.43.73c-1.92.38-2.76-1.11-5-1.18a4.45,4.45,0,0,0-3,.84c-1.84,1.57-.91,4.85-1.71,5s-1.63-3.5-3.79-3.8c-1.32-.19-1.89,1.09-3.39.79a3,3,0,0,1-2.34-2.28c-.1-1.23,1.31-1.52,1.54-3.15s-.87-2.61-.45-3,1.33.74,2.69.56,1.43-1.48,2.73-1.77,1.87,1.11,4.13,1.48c2,.33,2.37-.69,4.2-.28,2.17.47,2.6,2.09,3.79,1.86,1.5-.29,1-2.94,2.8-4,2.57-1.57,6.18,2.45,8.82.86,1.68-1,1.29-3.27,3-3.72s2.9,1.5,3.84,1c1.27-.73-.59-4.44,1.2-6.11.78-.74,1.45-.31,2.66-1.19a6,6,0,0,0,2.1-3.39,2.64,2.64,0,0,1,.48-.88,57.56,57.56,0,0,1-2.15-6.5C150.35,260,171.22,250.37,176.14,235.79ZM70.94,266.35a2.39,2.39,0,0,1-1.84-.87c-.66-1.15.78-3.14,2-4.15s3.37-1.74,3.86-1.16c.25.28.1.83-.09,1.54a10,10,0,0,1-.78,1.74c-.67,1.48-.42,1.65-.87,2.13A3,3,0,0,1,70.94,266.35ZM75.4,271a3.63,3.63,0,0,1-3-.51,2.21,2.21,0,0,1-1-1.87,2,2,0,0,1,1.11-1.37,1.69,1.69,0,0,1,1-.21c.74.14.82.87,1.72,1.73s1.85,1,1.83,1.37S75.6,271,75.4,271Zm75.33-29.2c.26-.45,1.56-.1,1.7-.06,1,.26,2.16,1,2,1.59s-1,.76-1.71.68C151.44,243.87,150.44,242.31,150.73,241.82Zm-26.38-15c.42,0,.58.42,1.08.39s.65-.59,1.19-.79a2.39,2.39,0,0,1,2.61,1.42,2.33,2.33,0,0,1-.34,2.61c-.73.63-1.82.28-3.24-.17-1.24-.4-2.25-.72-2.44-1.53A1.71,1.71,0,0,1,124.35,226.84Zm-1.19,18.49c.43-.47,1.23-.16,1.53-.68a1.32,1.32,0,0,0,0-1c-.15-.61-.44-.69-.51-1.08-.13-.7.55-1.65,1.13-1.65s.58,1,1.48,1.31c.75.29,1.16-.23,1.87.11a1.75,1.75,0,0,1,1,1.25c.1.77-.61,1.06-1.7,2.72-.84,1.28-.72,1.58-1.25,1.88a2.72,2.72,0,0,1-3.4-.85A1.9,1.9,0,0,1,123.16,245.33Zm-25.31,1.06c.49-.25,1.33,1,1.93.63.21-.11.2-.3.54-1.26s.47-1.34.72-1.54a1.79,1.79,0,0,1,1.94-.05c1.15.75,1,3.15.19,4.69a3.21,3.21,0,0,1-1.93,1.93,3,3,0,0,1-2.86-1.06C97.35,248.54,97.33,246.66,97.85,246.39ZM86.76,266.05a2.19,2.19,0,0,1,2.13-.36,2.54,2.54,0,0,1,1.52,1.63c.47,1.35-.2,3-.86,3.09-.46.06-.6-.68-1.42-.81s-1.12.39-1.52.15-.34-.72-.36-1.37C86.23,267.27,86.22,266.56,86.76,266.05Zm3.6,15.21c-.43.15-.67-.26-1.92-.35a3.26,3.26,0,0,0-1.17,0c-.8.2-.91.62-1.52.71a2,2,0,0,1-1.42-.46,2.24,2.24,0,0,1-.91-2.18c.17-.71.92-1.06,2.43-1.77s2.34-1.09,3.35-.87a2.78,2.78,0,0,1,1.62,1C91.83,278.69,91.24,281,90.36,281.26ZM99.54,291c-.1.31-.55.43-.81.51-.9.25-1.26-.26-2-.06s-.73,1-1.37,1c-.28,0-.36-.11-1.72-1l-1.22-.81c-.91-.59-1-.65-1.11-.86-.2-.52.22-1.12.66-1.72a3.55,3.55,0,0,1,1.92-1.57,2.57,2.57,0,0,1,1.12-.11c1.08.16,1.32,1,3.09,2.79C99.08,290.14,99.68,290.58,99.54,291Zm37.91-14.29c-.65.52-1.16.39-1.93.68-1.45.54-1.94,1.88-2.57,2.75-1.07,1.51-2.2,1.17-8.07,3-5.11,1.59-6.58,2.57-8.08,1.64-.81-.5-1.4-1.42-2.46-1.35s-1.1.87-2,1c-1.65.18-2.59-2.49-3.82-2.23s-1.05,2.41-2,2.52c-.36,0-.57-.23-2.33-2.08-1.43-1.51-1.64-1.71-2.07-1.89-1-.41-1.41,0-2.23-.53a2.27,2.27,0,0,1-1.21-2c0-.18.14-.64,1.5-1.5,1.57-1,2.87-1.81,4.16-1.4,1,.33.9,1.1,2,1.4.93.26,1.42-.2,3.19-.53a7.5,7.5,0,0,1,2.76-.24c1.78.29,1.92,1.6,4.64,3.19,2.16,1.26,3.1,1,3.39,1,.81-.23,1.7-.93,1.69-1.64s-.71-.78-.73-1.4a2,2,0,0,1,2.18-1.65c.73.24.43,1.29,1.35,2.13a3.6,3.6,0,0,0,3.63.53c1.43-.62,1.25-2,2.66-2.37,1-.26,1.8.19,2.13-.29s-.2-.75,0-1.25c.34-.88,2.26-1,3.62-.68.64.16,1.29.32,1.55.87C138.73,275.1,138.13,276.16,137.45,276.71Zm2.79-46.19c-.31.86.72,1.4.56,2.56a1.88,1.88,0,0,1-1.13,1.53c-.8.25-1.6-.42-2-.74a5.85,5.85,0,0,1-1.81-4.25,1.68,1.68,0,0,1-1.14.45c-1,0-1.49-1.21-1.53-1.3-.78-1.76.84-4.62,3.06-5.79,1.25-.66,2.85-.86,3.18-.34s-.86,1.48-.45,2.55a2.3,2.3,0,0,0,1,1c1,.68,1.49.41,1.82.91s0,1.67-.4,2.27S140.43,230,140.24,230.52Zm3.34,6c-.7-.13-1.07-1.23-1.42-2.27a6.33,6.33,0,0,1-.22-2.72,3.34,3.34,0,0,1,.1-.43c.09-.27.38-1.15.86-1.28s.76.57,2,1.48c.95.67,1.17.56,1.37.91C147,233.53,144.9,236.78,143.58,236.54Zm7.27,32.17a2.85,2.85,0,0,1-2.61,1.65,2.81,2.81,0,0,1-2-1.25,4.06,4.06,0,0,1-.34-3.12,4.33,4.33,0,0,1,1.08-2.56c.69-.7,1.91-1.3,2.44-.9s-.22,1.44.45,2.66c.41.75.86.68,1.14,1.42A2.87,2.87,0,0,1,150.85,268.71Zm.28-19.63c-.6.13-1.33-1-1.65-1.7-.45-1.06-.65-2.75.12-3.18a1.67,1.67,0,0,1,1.7.45,2.78,2.78,0,0,1,.62,2.33C151.91,247.23,151.82,248.92,151.13,249.08Z"/><path class="cls-5" d="M186,258.31c6.12-7.43,1.37-20.27-3.94-38.77-5.42-18.9-13.8-18.33-13.66-28,.23-15.25,10.63-20.61,8-35.69-1-5.67-4-13.58-6.58-13.43a1.38,1.38,0,0,0-.2,0c-.3,1.3-.82,2.29-.21,2.88.45.43,1,.15,1.66.39,2.23.78,2.34,5.92,2.34,6.54.1,8-6.91,29.29-8.39,38.16-3.69,22.14,16.83,28.81,11.22,45.38-4.92,14.58-25.79,24.19-24.67,31.82a57.56,57.56,0,0,0,2.15,6.5C157,269.74,179.87,265.69,186,258.31Zm-14.17-5a1.64,1.64,0,0,1,1.53.34,1.43,1.43,0,0,1,.34,1.54,1.57,1.57,0,0,1-1.53.85c-.86-.05-1.74-.82-1.64-1.59S171.3,253.44,171.78,253.33ZM152.55,265c-.19-.94.77-1.87,1.42-2.44,2.57-2.27,12.37-9.67,14.41-7.49a1.88,1.88,0,0,1,.34,1.93,1.62,1.62,0,0,1-1.14.57c-2.3.47-3.81.77-4.42,1.64s.17,1.68-.63,2.84a3.41,3.41,0,0,1-1.58,1.19c-1.75.72-2.73-.32-3.75.4s-.44,1.6-1.53,2.33a2.24,2.24,0,0,1-1.82.34A1.9,1.9,0,0,1,152.55,265Z"/><path class="cls-5" d="M197.66,88.42c-.58-1.85-.61-2.67-1.2-4.52-.05-.16-2.7-1.86-2.74-2a12.72,12.72,0,0,0-4.43-.54c-2,.6,1.3,11.53.72,22.27-.63,11.65-4.82,16.41-2.12,18.94s8.39-.33,13.33-1.12c4.8-2.61,1.86-7.92.85-11.66C199.58,100.54,199.41,94,197.66,88.42Z"/><path class="cls-5" d="M309.24,208.23c.13,0-.23.84.24,1.52.68,1,2.36,2,3.56,1.33.07,0,1.31,1,1.14,1.94-.12.69-.84.69-1.18,1.33-.73,1.35,1.64,2.9,1.89,5.6.23,2.48-1.44,4.59-1.66,4.51s.71-1.54-.09-2.56c-.5-.63-.7-1.67-2.85-1.57-2,.1-2.11-3.07-2.42-4.46C307,211.78,309,208.17,309.24,208.23Z"/><path class="cls-5" d="M325.67,222.87a5.74,5.74,0,0,0,1.93,1.58c1.94,1,3.18.08,4.89,1.12,1.22.74,1.2,1.57,2.12,1.66,1.43.16,2.27-1.81,2.95-1.52s.8,2.81-.43,4.17c-.59.65-1,.46-2.14,1.43s-1.51,1.76-1.91,1.64c-.61-.18-1.47-.43-1.12-2.6.11-.67-1.58-.2-2.33-.51s-.12-.73-1.15-1.87c-.67-.75-1-.68-1.57-1.24A5,5,0,0,1,325.67,222.87Z"/><path class="cls-3" d="M216,76a1.65,1.65,0,0,0,1.84-.85c.49-1.07-1-2.16-.54-3.14.18-.4.73-.88,2.53-1a3.13,3.13,0,0,0-3-1.59c-1.81.44-1.8,3.66-1.8,3.94C215.09,73.91,215.1,75.69,216,76Z"/><path class="cls-3" d="M205.5,238c1.21.44,1.88-.32,2.42,0,1.37.79-1.36,6.38.14,7.46a2,2,0,0,0,2.15-.41c.43-.37.95-1.14-.2-7.52-.46-2.56-.79-3.77-1.48-3.9s-.87.7-2.15,1-2-.34-2.49.13-.12,1.54.27,2.15A2.77,2.77,0,0,0,205.5,238Z"/><path class="cls-3" d="M299.7,211a2.39,2.39,0,0,0-2.37.45c-.72.61-.48,1.22-1.06,1.53-.86.48-1.66-.72-3-.5A2.67,2.67,0,0,0,291,215a2.21,2.21,0,0,0,1.06,1.51c.23.14.67.34,2.4.24a24.81,24.81,0,0,1,2.56-.27c1.56.14,1.88,1,2.64.72,1-.35,1.37-2.21,1.3-3.38C301,213.16,300.86,211.51,299.7,211Z"/><path class="cls-3" d="M306.28,150.65c-.13-.11-.38-.22-1.46,0-2.73.65-3.45,1.89-4.65,1.67-1.41-.26-1.65-2.19-2.26-2-.82.19-1.52,4,.42,6.29a4,4,0,0,0,2.67,1.53c2.15.15,3.63-2,4.17-2.75C306.31,153.74,307.07,151.28,306.28,150.65Z"/><path class="cls-3" d="M305.31,192.81a2.16,2.16,0,0,0,.8.63,2.11,2.11,0,0,0,1.56.14c.65-.28.78-1.21,1-3.68a37,37,0,0,1,.7-5.35c.34-1.34.45-1,1-2.85a26.48,26.48,0,0,0,1.22-8.2c0-.84,0-1.26-.07-1.28C311.18,172.12,309.44,177.47,305.31,192.81Z"/><path class="cls-3" d="M300.72,185.38c-.36,0-1,1-2.11,5.42.56,1.14,1.42,1.79,2.15,1.67a1.42,1.42,0,0,0,.83-.56c.34-.43.57-1.14-.17-4.41C301.1,186.1,300.94,185.41,300.72,185.38Z"/><path class="cls-3" d="M315.1,130a2.39,2.39,0,0,0,2.3-.32c.36-.42.17-.86.07-2.29a29.85,29.85,0,0,1,.07-4.76c.09-1.09.17-1.35,0-1.42C317,121,315,124.46,314,126.4c-.48,1-.79,1.72-.49,2.43A2.46,2.46,0,0,0,315.1,130Z"/><path class="cls-3" d="M324.29,211.1a2.09,2.09,0,0,0-.82,1.85c.09.84.76,1.1.61,1.69s-.58.43-1.16,1.24a1.56,1.56,0,0,0-.45,1.13c.13.64,1.07.91,1.13.93,1.59.44,3.88-1.1,4.57-3.12a2.9,2.9,0,0,0,.11-1.93C327.74,211.34,325.46,210.31,324.29,211.1Z"/><path class="cls-3" d="M305.29,224.7c.59,1,1.26,1,2.84,2.15,2.15,1.61,1.82,2.32,3.19,3.23a4.64,4.64,0,0,0,3.44.6,3.28,3.28,0,0,1-.92-.66c-1-1-1.06-2.49-1.2-5.4-.09-1.74,0-1.91,0-3.35a25.43,25.43,0,0,0-.84-5.62,41.45,41.45,0,0,1-.32,4.69,2.61,2.61,0,0,0-1.27,1c-.55.85-.16,1.59-.72,2.16a2.24,2.24,0,0,1-1.73.43,4.72,4.72,0,0,1-2.69-1h-.2A2.89,2.89,0,0,0,305.29,224.7Z"/><path class="cls-3" d="M325.61,207.51c1.38.07,1.73.18,2.06-.11s.44-.7.24-2.51c-.3-2.73-.47-4.1-1.48-4.67-.46-.26-1.2-.42-1.53-.11-.49.45.24,1.5-.35,2.49a2,2,0,0,1-.87.76c-1.2.58-2-.47-3.3-.1a2.62,2.62,0,0,0-1.82,2.27,2.32,2.32,0,0,0,1.13,2.16c.64.32,1,0,2.62-.18A22.69,22.69,0,0,1,325.61,207.51Z"/><path class="cls-3" d="M355.17,134.94c-1,.45.16,3.19-1.51,6.17a3.36,3.36,0,0,1-1.7,1.76c-1.15.39-2-.45-2.78.06-.6.39-.27,1-.85,2.12-.86,1.7-2.31,1.79-2.36,3a2.08,2.08,0,0,0,.67,1.45,2.82,2.82,0,0,0,2.9.73c1.66-.71,1.18-5.82,3.11-5.3,2.23.61,3.58-.36,5.19-2.27,1.29-1.54,1.16-4.26-.06-6C357.17,135.77,355.91,134.61,355.17,134.94Z"/><path class="cls-3" d="M309.27,137.1c-.51-.17-1.23-.42-1.7,0s-.34,1.58-.32,1.66a6.09,6.09,0,0,1-1.49-1.73c-.6-1.08-.52-1.78-1.28-3.48-.62-1.34-.92-1.46-1.08-1.49-.68-.13-1.55.71-1.77,1.63a2.39,2.39,0,0,0,.38,1.84c-.46-.27-3.47-2-5.49-1.32a2,2,0,0,0-1.18.84,2.15,2.15,0,0,0,0,1.73,3,3,0,0,0,1.66,1.88c1.29.42,2-.83,3.72-.52a3.31,3.31,0,0,1,1.7.8c1,.92.55,1.84,1.39,2.71s1.58.11,3.09,1.07a19.44,19.44,0,0,1,2.5,2.4c.74.76.84.92,1.08.94,1.5.1,2.83-4.39,3-5A8.91,8.91,0,0,0,309.27,137.1Z"/><path class="cls-3" d="M338.17,175.34a1.5,1.5,0,0,0-1.25-.55,1.43,1.43,0,0,0-1.08.52c-.2.3-.13.55,0,1.53.07.73.14,1.64.17,2.22.06,1.15,0,1.32.17,1.53a2,2,0,0,0,2.68-.38c.25-.59-.6-.93-.77-2.23S338.65,176,338.17,175.34Z"/><path class="cls-3" d="M371.22,128.4c-1.24-.77-1.35-2.37-1.7-2.3s.24,1.89-.54,3.75-2.16,1.76-3,3.94a3.12,3.12,0,0,0-.06,2.66,1.9,1.9,0,0,0,1.21.91c1.34.19,2.64-1.85,3.27-2.85,1.18-1.84.85-2.38,1.94-3.63s2.37-1.72,2.24-2.06S372.64,129.29,371.22,128.4Z"/><path class="cls-3" d="M328.86,137.41a3.38,3.38,0,0,0-.94,1.46c-.44,1.16-.2,1.93-.49,2s-.7-.2-1.91-2c-.57,1.1-1.15,2.2-1.73,3.3a3.76,3.76,0,0,0,1.73,1.22,4.46,4.46,0,0,0,3.51-.59,7.51,7.51,0,0,0,3.44-5C331.13,137,329.7,136.78,328.86,137.41Z"/><path class="cls-3" d="M316.74,164.3a3.6,3.6,0,0,0-3,.94,2.87,2.87,0,0,0-1.32,2.18,2,2,0,0,0,.45,1.12,2.09,2.09,0,0,0,1.32.69c1,.12,1.24-.58,2.26-.69,1.3-.16,1.91.84,2.33.55C319.49,168.6,318.9,164.89,316.74,164.3Z"/><path class="cls-3" d="M330.25,149.81c-.65-.15-1.65-.15-4.13,1.29-1.9,1.1-2.24,1.63-2.82,1.42-.81-.28-.76-1.53-2-2.08a1.48,1.48,0,0,0-.91-.17c-1.24.21-1.67,2.45-1.73,2.77a4.1,4.1,0,0,0,.17,2.68,3.91,3.91,0,0,0,2.12,1.91c.89.36,2.22.53,2.47.07s-.73-1-.63-2.09a2.12,2.12,0,0,1,.59-1.21c1.24-1.32,3.31.2,5.52-.87,1.51-.73,2.63-2.43,2.26-3.2C331,150,330.56,149.89,330.25,149.81Z"/><path class="cls-3" d="M195.35,194.35c.36.17.53-.06,1.55-.13s1.2.16,1.67,0c.91-.31,1.66-1.64,1.29-2.38s-1.58-.63-2.71-.58-2.06.1-2.44.77A1.84,1.84,0,0,0,195.35,194.35Z"/><path class="cls-3" d="M189.17,173.89a1.56,1.56,0,0,0,1,1.41,1.81,1.81,0,0,0,1.61-.19c.93-.55,1.49-1.9,1-2.51-.36-.46-1.19-.36-1.48-.32C190.51,172.38,189.21,172.9,189.17,173.89Z"/><path class="cls-3" d="M191.3,194.09c-2.44-.13-2.58,1.17-5.34,1.55-3,.4-3.63-1-7-.39-1.48.27-1.76.63-2.7.45-2.31-.43-3.08-3-4.06-2.7s-.94,2.39-.9,3.28a7.88,7.88,0,0,0,1.48,4.12c1.2,1.69,3.68,3.9,5.41,3.28.76-.27,1-1,1.93-1s1.09.45,1.93.39c1.21-.1,1.76-1.28,2.12-1.1.56.29-.85,3.11,0,3.8.43.35,1-.22,2.64-.39,1.85-.18,2.59.38,3-.06.66-.8-1.52-2.88-.77-4.18.55-1,2.21-.67,2.38-1.42s-1.52-1.58-1.35-1.93c.25-.54,4.3,1.44,5.27.26.55-.67-.16-2-.19-2.06C194.23,194.26,191.83,194.12,191.3,194.09Z"/><path class="cls-3" d="M277.33,122.67c1.15.45,2.78-1,3.41-2.38a3.33,3.33,0,0,0,0-3c-.4-.6-1.17-1.11-1.55-.91s.25,1.8-.45,2.45-1.77-.19-2.38.45c-.42.44-.27,1.21-.19,1.61C276.2,121,276.45,122.32,277.33,122.67Z"/><path class="cls-3" d="M240.46,120c-.55.13-.18,1.77-1,2.32s-2.43-.68-2.7-.32.78,1.77,2.18,2.76c.7.5,2.3,1.64,3.16,1.1s.45-3.14-.39-4.64C241.58,121.07,240.93,119.92,240.46,120Z"/><path class="cls-3" d="M248.76,110.44c.49-.22.32-.7.9-1.28,1-1,2.22-.45,2.57-1.16a1.71,1.71,0,0,0-.83-1.87,2.31,2.31,0,0,0-2.06.07c-.88.38-.92.91-1.42.9-.73,0-.8-1.15-1.93-1.61-.69-.29-1.64-.26-1.93.19-.05.07-.19.34.13,1.16a5.87,5.87,0,0,0,2,2.51C247.06,110,248,110.77,248.76,110.44Z"/><path class="cls-3" d="M183.38,190.3a2.61,2.61,0,0,0,1.61-1.61,2.07,2.07,0,0,0-.77-2.06c-.7-.49-1.29,0-1.74-.52s.18-1.67-.38-2.25a1.82,1.82,0,0,0-2.13.07c-1,.74-.7,2.3-1.35,2.44s-.87-1-1.8-1a1.37,1.37,0,0,0-1.22.7c-.33.69.25,1.55.51,1.93C177.52,190.13,180.94,191.44,183.38,190.3Z"/><path class="cls-3" d="M186.41,152.33a1.92,1.92,0,0,0,.06,2.26,2.32,2.32,0,0,0,1.8.83c1.32.07,2.79-.79,2.77-1.54C191,152.72,187.42,151.3,186.41,152.33Z"/><path class="cls-3" d="M213.05,195.38a2.09,2.09,0,0,0-.26-2.44c-.41-.46-.7-.27-1.48-.84a13.87,13.87,0,0,1-1.48-1.55c-.93-1-1.12-1-1.22-1-.63,0-1.13,1.23-1.16,2.19a3.52,3.52,0,0,0,.83,2.31C209.59,195.68,212.25,196.28,213.05,195.38Z"/><path class="cls-3" d="M264.84,126.53c-1-.12-1.36.56-2.31.32-1.5-.37-1.65-2.28-2.83-2.31a1.7,1.7,0,0,0-1.42,1,1.91,1.91,0,0,0,.39,2.25c.87.71,2.23-.22,2.64.33s-1.14,2-.65,2.95c.31.61,1.09.33,2.32.91a5,5,0,0,1,1.44,1c.82.83,1.19,1.66,1.52,1.53s-.29-1.61.45-3.15c.55-1.15,1.32-1.14,1.41-1.93a2.05,2.05,0,0,0-.51-1.45A3.8,3.8,0,0,0,264.84,126.53Z"/><path class="cls-3" d="M183.25,150.72c1.68,0,1.7-.12,2.39-.06,1.34.11,1.52.6,2.44.45s1.68-.76,1.61-1.09-1.08-.06-1.93-.78c-.69-.57-.61-1.26-1.1-1.35s-.9.84-1.6.78-.61-.73-1.23-.84c-.8-.14-1.65.84-2,1.61-.13.29-.3.68-.13,1S182.29,150.72,183.25,150.72Z"/><path class="cls-3" d="M190.27,169.58c.2-.6-.89-1-1.61-2.7-.59-1.41-.33-2.3-.71-2.39s-1.5,1.32-1.61,2.84a2.89,2.89,0,0,0,.84,2.57C188.25,170.69,190,170.27,190.27,169.58Z"/><path class="cls-3" d="M185.83,183a2.71,2.71,0,0,0-.32,2.38,2.06,2.06,0,0,0,1.09,1.09c1.41.51,3.55-1.06,4.31-3a5.12,5.12,0,0,0,.26-2.64c-.36-2.81-2.61-5.59-3.93-5.27-.81.19-1.4,1.62-1.28,2.76.16,1.59,1.66,2.24,1.35,3.22C187.11,182.25,186.43,182.08,185.83,183Z"/><path class="cls-3" d="M281.19,137.47A9.82,9.82,0,0,1,278.1,135c-1.48-1.72-1.41-2.68-2.64-3.22-.91-.4-2.09-.37-2.31.07s1.36,1.3,1.8,3.21c.33,1.47-.45,1.9,0,2.84.77,1.63,3.54,1.22,3.86,2.51.22.91-1,1.69-.71,2.18s2-.55,3.47.13,1.4,2.84,2,2.83c.94,0,2.56-5.29.64-7C283.47,137.84,282.88,138.3,281.19,137.47Z"/><path class="cls-3" d="M313.27,209.16c1-1.25,1.72-1.31,2.45-2.25,1.18-1.52.32-2.57,1-4.21,1.49-3.46,7.8-4.4,8.93-4.57,2.41-.36,4-.09,4.71-1.22a3,3,0,0,0-.21-3c-1.07-1.71-3-1-4.79-2.33-2.9-2.16-2.28-7.46-2.18-8.31a15.08,15.08,0,0,1,3.78-8c1.93-2.08,3.46-2.44,4.15-4.58s.12-4.29-.55-4.42-1,2.14-3.39,4.24c-1.53,1.32-2.27,1.14-2.94,2.31s-.17,1.7-.47,4.23c-.25,2.06-.49,4-1.75,4.73s-3-.25-3.25.31,1.25,1.26,1.16,2.5a2.44,2.44,0,0,1-1.7,1.89,3.12,3.12,0,0,1-2.09-.18c-3-1.29-2.06-8.78-2.59-8.79-.27,0-.38,1.93-1.46,4.73-.26.66-.51,1.2-.69,1.59a5.72,5.72,0,0,1,1.74,2.27c.51,1.26.12,1.8.42,4,0,.28.3,1.4.81,3.64a14.3,14.3,0,0,1,.59,2.9,7,7,0,0,1-2.31,4.31c-1.38,1.34-2.33,1.34-2.6,2.4s.48,1.12.48,2.53c0,1.72-1.06,2.41-.63,3.67a2.53,2.53,0,0,0,.74,1.06,3.84,3.84,0,0,1,.92,2.08,5.29,5.29,0,0,1,.26-1A9.52,9.52,0,0,1,313.27,209.16Z"/><path class="cls-3" d="M311.8,215.65a15.21,15.21,0,0,0-.22-2.92A7.48,7.48,0,0,0,311.8,215.65Z"/><path class="cls-5" d="M276.36,119.26c.61-.64,1.75.14,2.38-.45s-.08-2.15.45-2.45,1.15.31,1.55.91a3.33,3.33,0,0,1,0,3c-.63,1.41-2.26,2.83-3.41,2.38-.88-.35-1.13-1.65-1.16-1.8C276.09,120.47,275.94,119.7,276.36,119.26Zm7.21,26.25c-.6,0-.47-2.1-2-2.83s-3.11.44-3.47-.13.93-1.27.71-2.18c-.32-1.29-3.09-.88-3.86-2.51-.45-.94.33-1.37,0-2.84-.44-1.91-2.1-2.63-1.8-3.21s1.4-.47,2.31-.07c1.23.54,1.16,1.5,2.64,3.22a9.82,9.82,0,0,0,3.09,2.51c1.69.83,2.28.37,3,1C286.13,140.22,284.51,145.5,283.57,145.51Zm36.12,62.18a2.32,2.32,0,0,1-1.13-2.16,2.62,2.62,0,0,1,1.82-2.27c1.26-.37,2.1.68,3.3.1a2,2,0,0,0,.87-.76c.59-1-.14-2,.35-2.49.33-.31,1.07-.15,1.53.11,1,.57,1.18,1.94,1.48,4.67.2,1.81.06,2.25-.24,2.51s-.68.18-2.06.11a22.69,22.69,0,0,0-3.3,0C320.67,207.66,320.33,208,319.69,207.69Zm8.48,7.13c-.69,2-3,3.56-4.57,3.12-.06,0-1-.29-1.13-.93a1.56,1.56,0,0,1,.45-1.13c.58-.81,1-.77,1.16-1.24s-.52-.85-.61-1.69a2.09,2.09,0,0,1,.82-1.85c1.17-.79,3.45.24,4,1.79A2.9,2.9,0,0,1,328.17,214.82ZM314,126.4c1-1.94,3-5.45,3.54-5.17.14.07.06.33,0,1.42a29.85,29.85,0,0,0-.07,4.76c.1,1.43.29,1.87-.07,2.29a2.39,2.39,0,0,1-2.3.32,2.46,2.46,0,0,1-1.56-1.19C313.24,128.12,313.55,127.36,314,126.4ZM299.7,217.15c-.76.25-1.08-.58-2.64-.72a24.81,24.81,0,0,0-2.56.27c-1.73.1-2.17-.1-2.4-.24A2.21,2.21,0,0,1,291,215a2.67,2.67,0,0,1,2.22-2.48c1.35-.22,2.15,1,3,.5.58-.31.34-.92,1.06-1.53a2.39,2.39,0,0,1,2.37-.45c1.16.52,1.26,2.17,1.3,2.78C301.07,214.94,300.74,216.8,299.7,217.15Zm1.89-25.24a1.42,1.42,0,0,1-.83.56c-.73.12-1.59-.53-2.15-1.67,1.13-4.47,1.75-5.46,2.11-5.42s.38.72.7,2.12C302.16,190.77,301.93,191.48,301.59,191.91ZM301,158.12a4,4,0,0,1-2.67-1.53c-1.94-2.3-1.24-6.1-.42-6.29.61-.14.85,1.79,2.26,2,1.2.22,1.92-1,4.65-1.67,1.08-.25,1.33-.14,1.46,0,.79.63,0,3.09-1.11,4.72C304.63,156.15,303.15,158.27,301,158.12Zm10.67,15.38a27.54,27.54,0,0,1-1.39,8.15c-.59,1.84-.53,1.56-.87,2.9a37,37,0,0,0-.7,5.35c-.26,2.47-.39,3.4-1,3.68a2.11,2.11,0,0,1-1.56-.14,2.16,2.16,0,0,1-.8-.63c4.13-15.34,5.87-20.69,6.29-20.59C311.68,172.24,311.68,172.66,311.67,173.5Zm-4.42-34.77c0-.08-.27-1.18.32-1.66s1.19-.14,1.7,0a8.91,8.91,0,0,1,4.2,3.89c-.19.65-1.52,5.14-3,5-.24,0-.34-.18-1.08-.94a19.44,19.44,0,0,0-2.5-2.4c-1.51-1-2.21-.17-3.09-1.07s-.38-1.79-1.39-2.71a3.31,3.31,0,0,0-1.7-.8c-1.74-.31-2.43.94-3.72.52a3,3,0,0,1-1.66-1.88,2.15,2.15,0,0,1,0-1.73,2,2,0,0,1,1.18-.84c2-.67,5,1,5.49,1.32a2.39,2.39,0,0,1-.38-1.84c.22-.92,1.09-1.76,1.77-1.63.16,0,.46.15,1.08,1.49m14.31,35.57c-.42.29-1-.71-2.33-.55-1,.11-1.29.81-2.26.69a2.09,2.09,0,0,1-1.32-.69,2,2,0,0,1-.45-1.12,2.87,2.87,0,0,1,1.32-2.18,3.6,3.6,0,0,1,3-.94C318.9,164.89,319.49,168.6,318.79,169.09Zm10.1-15.56c-2.21,1.07-4.28-.45-5.52.87a2.12,2.12,0,0,0-.59,1.21c-.1,1.06.86,1.65.63,2.09s-1.58.29-2.47-.07a3.91,3.91,0,0,1-2.12-1.91,4.1,4.1,0,0,1-.17-2.68c.06-.32.49-2.56,1.73-2.77a1.48,1.48,0,0,1,.91.17c1.25.55,1.2,1.8,2,2.08.58.21.92-.32,2.82-1.42,2.48-1.44,3.48-1.44,4.13-1.29.31.08.74.18.9.52C331.52,151.1,330.4,152.8,328.89,153.53ZM329,142.8a4.46,4.46,0,0,1-3.51.59,3.76,3.76,0,0,1-1.73-1.22c.58-1.1,1.16-2.2,1.73-3.3,1.21,1.85,1.7,2.14,1.91,2s.05-.89.49-2a3.38,3.38,0,0,1,.94-1.46c.84-.63,2.27-.42,3.61.35A7.51,7.51,0,0,1,329,142.8Zm9.8,37.41a2,2,0,0,1-2.68.38c-.18-.21-.11-.38-.17-1.53,0-.58-.1-1.49-.17-2.22-.1-1-.17-1.23,0-1.53a1.43,1.43,0,0,1,1.08-.52,1.5,1.5,0,0,1,1.25.55c.48.68-.28,1.32-.11,2.64S339.08,179.62,338.83,180.21Zm19-37.58c-1.61,1.91-3,2.88-5.19,2.27-1.93-.52-1.45,4.59-3.11,5.3a2.82,2.82,0,0,1-2.9-.73A2.08,2.08,0,0,1,346,148c0-1.18,1.5-1.27,2.36-3,.58-1.15.25-1.73.85-2.12.79-.51,1.63.33,2.78-.06a3.36,3.36,0,0,0,1.7-1.76c1.67-3,.5-5.72,1.51-6.17.74-.33,2,.83,2.61,1.69C359,138.37,359.13,141.09,357.84,142.63Zm14.53-11.75c-1.09,1.25-.76,1.79-1.94,3.63-.63,1-1.93,3-3.27,2.85a1.9,1.9,0,0,1-1.21-.91,3.12,3.12,0,0,1,.06-2.66c.81-2.18,2.17-2,3-3.94s.17-3.68.54-3.75.46,1.53,1.7,2.3c1.42.89,3.23,0,3.39.42S373.5,129.59,372.37,130.88Zm-101.59,31c-.68,1.4-2.34,1.37-3,3.22a4.85,4.85,0,0,0,.09,2.88c.75,2.89,2.39,3.59,3.43,5.5,2.27,4.17-1.83,7.52.47,11.78,1.05,1.95,3.22,3.67,4.34,3.2,2.26-.95,0-10.57,3.05-13.43.07-.07,1.35-1.25,1.92-.91.34.2.14.79.58,1.14s1.27-.13,1.63.22-.61,1.56-.22,2.44c.52,1.16,2.95.51,3.53,1.72.29.6-.23.93-.29,2.28-.08,1.82.81,2.21.62,3.21-.36,2-3.91,1.66-4.67,3.76a3.86,3.86,0,0,0,2.13,4.4c2,.88,4.23-.71,5.21-2.16a5.17,5.17,0,0,0,.86-2.67c3.31-.56,4.29-.3,4.46.12s-1.05,1.11-1.25,2.58c-.18,1.3.7,1.56.81,3.3s-.68,2-.3,3.12c.45,1.36,1.86,1.52,1.82,2.37s-1.35,1.38-2,1.68c-2.5,1.07-3.9.2-5.55,1.27a4.49,4.49,0,0,0-1.58,1.83c1.09-.62,2.16-1.26,2.78-.85,1.22.78-1.2,4.19-.19,8.31a11,11,0,0,0,6.59,7.35c4,1.42,7.53-.74,8.69,1,.45.7.2,1.44.15,2.29h.2a4.72,4.72,0,0,0,2.69,1,2.24,2.24,0,0,0,1.73-.43c.56-.57.17-1.31.72-2.16a2.61,2.61,0,0,1,1.27-1,41.45,41.45,0,0,0,.32-4.69,7.48,7.48,0,0,1-.22-2.92,3.84,3.84,0,0,0-.92-2.08,2.53,2.53,0,0,1-.74-1.06c-.43-1.26.64-2,.63-3.67,0-1.41-.72-1.58-.48-2.53s1.22-1.06,2.6-2.4a7,7,0,0,0,2.31-4.31,14.3,14.3,0,0,0-.59-2.9c-.51-2.24-.77-3.36-.81-3.64-.3-2.23.09-2.77-.42-4a5.26,5.26,0,0,0-1.49-2.22c.19-.38.18-1,.44-1.64,1.08-2.8,1.08-4.27,1.35-4.27.53,0-.26,7,2.7,8.33a3.12,3.12,0,0,0,2.09.18,2.44,2.44,0,0,0,1.7-1.89c.09-1.24-1.42-2-1.16-2.5s2,.42,3.25-.31,1.5-2.67,1.75-4.73c.3-2.53-.19-3.09.47-4.23s1.41-1,2.94-2.31c2.43-2.1,2.69-4.38,3.39-4.24s1.2,2.4.55,4.42-2.22,2.5-4.15,4.58a15.08,15.08,0,0,0-3.78,8c-.1.85-.72,6.15,2.18,8.31,1.76,1.31,3.72.62,4.79,2.33a3,3,0,0,1,.21,3c-.71,1.13-2.42.49-4.83.85-1.13.17-7.32,1.48-8.81,4.94-.71,1.64.15,2.69-1,4.21-.73.94-1.42,1-2.45,2.25a9.52,9.52,0,0,0-1.43,2.57,5.29,5.29,0,0,0-.26,1,15.21,15.21,0,0,1,.22,2.92,25.43,25.43,0,0,1,.84,5.62c0,1.44-.09,1.61,0,3.35.14,2.91.23,4.38,1.2,5.4a3.28,3.28,0,0,0,.92.66,17,17,0,0,1,2.78,0,3,3,0,0,1,.6-2.31c.67-.69,1.43-.38,2.18-1.07,1.24-1.12.63-3.24,1.13-3.35s1.08,3.45,3.21,4.1c1.17.35,1.88-.48,3.12.11s1.12,1.49,1.85,1.68,1.2,0,3.29-3.19c-.36-.15-.26-.71-.92-.92-3.35-1.08-5-.61-5.53-1.58-.43-.78.11-2.07.86-2.74,1.12-1,2.2-.1,4.24-1,1.61-.7,1.48-1.48,3-1.88,1.67-.44,2.64.34,3.1-.22.58-.71-.95-1.91-.78-4.17.11-1.5.86-1.9.53-2.78-.49-1.34-2.48-1.17-2.62-2S337,208,339,205.55c1.54-1.84,1.95-3.74,2.31-3.64s-.83,3.73.74,5.1a2.79,2.79,0,0,0,2.38.45c1.38-.36,1.34-1.61,2.71-2.09s1.69.46,3.18.11,2.77-1.55,2.65-2.49c0-.15-.09-.36-1.35-1.42-1.53-1.3-1.79-1.29-1.94-1.72-.37-1.06,1.1-1.65,1.25-3.29.17-1.94-1.75-2.74-1.35-4s2.6-.58,4.45-2.27.76-3.1,2.54-5,4.2-1.74,4.24-2.78c0-.82-1.4-1.74-2.68-1.91-1.57-.22-2.18.76-3.06.37-1.53-.68-.88-4.13-1.88-4.36-.64-.15-1.59,1.12-2,2.22-.66,1.65,0,2.37-.48,3.76s-2.12,3-3.86,2.79c-2.25-.21-3.77-3.22-3.19-4.06s2.69.57,3.63-.44-.4-4.42-.63-4.92a20.31,20.31,0,0,1-1.46-3.09,12.86,12.86,0,0,1-.46-2.23c-.49-3.95.69-4.93-.2-6.32s-2.51-.91-3.21-2.49c-.48-1.08-.27-2.55.43-2.92.5-.27.91.24,2.52.75a6.23,6.23,0,0,0,3.83.33,4.14,4.14,0,0,0,1.65-1,5.6,5.6,0,0,0,2.91,2.85c.3.12,2.77,1.11,3.92-.2a2.81,2.81,0,0,0,.42-2.39,3.76,3.76,0,0,0,2.39-.2c1-.47,1.16-1.21,2-2.1.21-.24,1.9-2.05,3.79-2.1,2.43-.06,3.62,2.8,5.41,2.23.88-.27,1.23-1.16,1.81-1s.39,1.42,1.16,1.84,1.72-.65,2.54-.22.36,1.79,1.22,2.35a2.56,2.56,0,0,0,2.92-.76c.89-1.05,0-2,.74-3.43.87-1.78,2.67-1.5,3.18-3.16.32-1.06-.36-1.35-.11-2.68.31-1.61,1.38-1.56,2.19-3.28,1-2.17-.22-3.27,1-5,.79-1.2,2-1.69,1.83-2.06s-1.52.26-2.12-.33c-.92-.91,1.28-3.52.22-5.13-.35-.54-.72-.41-1.81-1-1.76-1-3.9-3.1-3.45-4.37.36-1,2.44-1.63,3.87-1,1.72.75,1.75,2.94,2.44,2.89.91-.06,2.37-4,1-7.31-.83-2-2.12-2.33-2.33-4.35-.18-1.81.72-2.78,0-3.7s-2.25-.46-2.79-1.48.45-2-.07-2.53-1.61-.13-2,0c-2.68.86-3.07,3.07-4.56,3-1.34,0-1.55-1.82-2.86-1.84-1.48,0-1.6,2.28-3.85,3.49-2.45,1.31-4.93,0-5.51,1.16-.33.66.48,1.12.55,2.76,0,.26.12,2.52-1.16,3.46-1.11.83-2.09-.25-4.54.17s-2.5,1.54-3.75,1.31c-2.19-.4-2.09-4-4.52-4.66-1.37-.36-2.73.44-3.81,1.08-2.64,1.56-3.2,3.77-4.45,3.57-1.06-.17-1.16-1.83-2.12-1.84s-2,1.49-1.88,2.81,1.33,2,1.14,2.28-2.9-.16-3.74-1.88.71-3.47-.29-4.62c-.64-.74-1.44-.2-2.12-1-.88-1,.2-2.23-.53-4.38-.43-1.28-.91-1.14-1.16-2.22-.43-1.83.87-2.5.73-4.2-.2-2.65-3.6-4.42-3.92-4.58-2-1-2.86-.32-4.11-1.42-1.51-1.31-.75-2.71-2.12-4a5.3,5.3,0,0,0-6.13-.47c-1.57,1.08-2.12,3.32-2.44,4.62-.38,1.52-.39,2.91-1,3-.43.09-.62-.6-1.52-.84a2.5,2.5,0,0,0-2.26.55,2.38,2.38,0,0,0-.77,2.24c.29,1.21,1.64,1.22,2.12,2.6.2.59,0,.76,0,1.83,0,2.62,1.12,4.08.64,4.44s-2.2-1.36-2.84-.91.46,2.32-.13,2.75-2-.35-2.75-1.61-.11-1.87-.35-4.47c-.16-1.73-.28-3.09-1.13-3.55s-1.91.68-3,.22c-1.51-.66-1.82-4.08-.95-4.55.71-.38,1.7,1.53,3.57,1.36a3.51,3.51,0,0,0,2.35-1.45,3.85,3.85,0,0,0,.54-2.79c-.26-1.22-1-1.17-1.36-2.47-.42-1.45.27-2.24-.34-2.87s-1.35-.07-1.9-.65c-.72-.75.23-2-.43-3.25a3.06,3.06,0,0,0-1.73-1.26,8.81,8.81,0,0,0-1.14-.34,7,7,0,0,1,1.08,1.8c1.6,5-15.54,10.77-26.77,23.5A69.79,69.79,0,0,0,267.29,128a2.05,2.05,0,0,1,.51,1.45c-.09.79-.86.78-1.41,1.93-.74,1.54,0,3-.45,3.15s-.7-.7-1.52-1.53c-3.21,5.59-5.8,9.64-9.39,9.26-2.07-.23-4-1.88-6.07-.79a5.44,5.44,0,0,0-2.22,2.84,9.66,9.66,0,0,1,4,.3c2.4.74,3.39,2.18,5.72,2.34a6.78,6.78,0,0,0,3-.52c-.48,1.86-.8,4.31.51,5.68,1.52,1.58,3.74.16,6.59,1.61"/><path class="cls-5" d="M249,141.45c2-1.09,4,.56,6.07.79,3.59.38,6.18-3.67,9.39-9.26a5,5,0,0,0-1.44-1c-1.23-.58-2-.3-2.32-.91-.49-.95,1.11-2.34.65-2.95s-1.77.38-2.64-.33a1.91,1.91,0,0,1-.39-2.25,1.7,1.7,0,0,1,1.42-1c1.18,0,1.33,1.94,2.83,2.31,1,.24,1.32-.44,2.31-.32a3.8,3.8,0,0,1,2.45,1.45,69.79,69.79,0,0,1,7.53-10.71c11.23-12.73,28.37-18.52,26.77-23.5-.18-.57,1.17-2.58.71-3.22-5.17-1.27-14.45.86-14.45.86-15.54,6.66-27.06,26.25-27.06,26.25A122.62,122.62,0,0,0,246,144.41l.76-.12A5.44,5.44,0,0,1,249,141.45Z"/><path class="cls-3" d="M294.59,231c-2,.16-2.81.61-3.35.1s.13-1.73-.62-3c-.54-.94-1.69-1.64-2.25-1.36-.73.37.22,2-.68,3.66a4.88,4.88,0,0,1-4,2.25c-1.71.05-2.42-1-3.55-.47A2.47,2.47,0,0,0,278.8,234c-.14,1.18.76,2.14,2,3.46a14.88,14.88,0,0,0,1.47,1.36c3.18,2.58,4.82,3.88,6.9,4.08.51,0,2.17.2,2.72-.68a1.82,1.82,0,0,0,.05-1.47c-.49-1.41-2.16-1.41-2.24-2.3-.07-.72.94-1.61,1.93-1.83,1.22-.28,2,.56,2.56.1s0-1,.42-2c.29-.65.88-1.07,2-1.89,1.5-1,2.14-1.2,2.09-1.46C298.64,231,296.41,230.81,294.59,231Z"/><path class="cls-3" d="M313.18,252.79c-1.74,1.11-1.51,2-3.58,3.16a13.57,13.57,0,0,1-3.64,1.31c-1.67.3-2.56.08-2.68.41s.56,1.12,4.4,3.16a6.48,6.48,0,0,1,3.91-3.5,5.9,5.9,0,0,1,2.82-.07,8.06,8.06,0,0,1,1.72-3.23c1.37-1.54,2.85-1.87,2.75-2.2S315.67,251.19,313.18,252.79Z"/><path class="cls-3" d="M283.5,212.85c.56-.24,1.19-.76,1.1-1.1s-.4-.18-1-.47c-.89-.43-.86-.91-1.62-1.25-.12-.06-1.1-.48-1.63-.06s-.42,1.74.21,2.46A2.61,2.61,0,0,0,283.5,212.85Z"/><path class="cls-6" d="M289.91,216c4.8,6.07,12.63,6.78,15,6.89.05-.85.3-1.59-.15-2.29-1.16-1.79-4.7.37-8.69-1a11,11,0,0,1-6.59-7.35c-1-4.12,1.41-7.53.19-8.31-.62-.41-1.69.23-2.78.85a2.25,2.25,0,0,1-.11.22C284.65,209.23,289.59,215.62,289.91,216Z"/><path class="cls-4" d="M314.76,230.68a5.63,5.63,0,0,0,2.84.55l-.06-.55A17,17,0,0,0,314.76,230.68Z"/><path class="cls-7" d="M314.76,230.68a5.63,5.63,0,0,0,2.84.55l-.06-.55A17,17,0,0,0,314.76,230.68Z"/><path class="cls-3" d="M313.18,252.79c-1.74,1.11-1.51,2-3.58,3.16a13.57,13.57,0,0,1-3.64,1.31c-1.67.3-2.56.08-2.68.41s.56,1.12,4.4,3.16a6.48,6.48,0,0,1,3.91-3.5,5.9,5.9,0,0,1,2.82-.07,8.06,8.06,0,0,1,1.72-3.23c1.37-1.54,2.85-1.87,2.75-2.2S315.67,251.19,313.18,252.79Z"/><path class="cls-3" d="M294.59,231c-2,.16-2.81.61-3.35.1s.13-1.73-.62-3c-.54-.94-1.69-1.64-2.25-1.36-.73.37.22,2-.68,3.66a4.88,4.88,0,0,1-4,2.25c-1.71.05-2.42-1-3.55-.47A2.47,2.47,0,0,0,278.8,234c-.14,1.18.76,2.14,2,3.46a14.88,14.88,0,0,0,1.47,1.36c3.18,2.58,4.82,3.88,6.9,4.08.51,0,2.17.2,2.72-.68a1.82,1.82,0,0,0,.05-1.47c-.49-1.41-2.16-1.41-2.24-2.3-.07-.72.94-1.61,1.93-1.83,1.22-.28,2,.56,2.56.1s0-1,.42-2c.29-.65.88-1.07,2-1.89,1.5-1,2.14-1.2,2.09-1.46C298.64,231,296.41,230.81,294.59,231Z"/><path class="cls-3" d="M283.5,212.85c.56-.24,1.19-.76,1.1-1.1s-.4-.18-1-.47c-.89-.43-.86-.91-1.62-1.25-.12-.06-1.1-.48-1.63-.06s-.42,1.74.21,2.46A2.61,2.61,0,0,0,283.5,212.85Z"/><path class="cls-3" d="M283.5,212.85c.56-.24,1.19-.76,1.1-1.1s-.4-.18-1-.47c-.89-.43-.86-.91-1.62-1.25-.12-.06-1.1-.48-1.63-.06s-.42,1.74.21,2.46A2.61,2.61,0,0,0,283.5,212.85Z"/><path class="cls-3" d="M313.18,252.79c-1.74,1.11-1.51,2-3.58,3.16a13.57,13.57,0,0,1-3.64,1.31c-1.67.3-2.56.08-2.68.41s.56,1.12,4.4,3.16a6.48,6.48,0,0,1,3.91-3.5,5.9,5.9,0,0,1,2.82-.07,8.06,8.06,0,0,1,1.72-3.23c1.37-1.54,2.85-1.87,2.75-2.2S315.67,251.19,313.18,252.79Z"/><path class="cls-3" d="M294.59,231c-2,.16-2.81.61-3.35.1s.13-1.73-.62-3c-.54-.94-1.69-1.64-2.25-1.36-.73.37.22,2-.68,3.66a4.88,4.88,0,0,1-4,2.25c-1.71.05-2.42-1-3.55-.47A2.47,2.47,0,0,0,278.8,234c-.14,1.18.76,2.14,2,3.46a14.88,14.88,0,0,0,1.47,1.36c3.18,2.58,4.82,3.88,6.9,4.08.51,0,2.17.2,2.72-.68a1.82,1.82,0,0,0,.05-1.47c-.49-1.41-2.16-1.41-2.24-2.3-.07-.72.94-1.61,1.93-1.83,1.22-.28,2,.56,2.56.1s0-1,.42-2c.29-.65.88-1.07,2-1.89,1.5-1,2.14-1.2,2.09-1.46C298.64,231,296.41,230.81,294.59,231Z"/><path class="cls-3" d="M327.89,237.12c-1.11-.41-1-1.4-2-1.72s-1.73.63-2.61.2-.71-1.7-1.37-1.85-1,.76-2.13,1.78c-1.81,1.59-3,1.37-3.24,2.2-.29,1.31,2.51,3,3.44,3.51A12.51,12.51,0,0,0,327.2,243c.63-.05,2.41-.2,2.61-1s-1.37-1.37-1.3-2.55,1.64-1.81,1.44-2.2S328.91,237.49,327.89,237.12Z"/><path class="cls-5" d="M340.06,242.22c-1.23-.22-1.75,2.79-4.69,4.19-1.72.81-3.91.91-4.37.13-.26-.44.18-1,.73-2.27a14.15,14.15,0,0,0,1.17-4.44c0-2.52-2-4.92-3.92-6-1-.52-1.39-.41-4.5-1.27-3.68-1-3.33-1.22-5.17-1.61a15.36,15.36,0,0,0-1.77-.27l.06.55a6.15,6.15,0,0,1-3.06-1.12c-1.32.1-2,.77-3.22,0-1.37-.91-1-1.62-3.19-3.23-1.58-1.18-2.25-1.17-2.84-2.15a2.89,2.89,0,0,1-.42-1.78c-2.33-.11-10.16-.82-15-6.89-.32-.41-5.26-6.8-3.17-11a2.25,2.25,0,0,0,.11-.22c-1.11.65-2.25,1.28-3,.79-.93-.64.05-2.51-1.14-3.36a3.18,3.18,0,0,0-4.15.57c-.74,1,.06,2.18-.81,3.06-.62.62-1.16.19-2.08.82-1.3.91-1.16,2.43-1.85,2.5s-1-1.8-2.2-2.06-1.56,1.09-3.17,1.6a5.14,5.14,0,0,1-5.14-1.37c-1.14-1.4-.11-2.59-.85-6.27-.58-2.9-1.76-4.85-2-4.78s.21,1.12-.4,1.77c-.45.47-.94.2-1.3.62-.52.6.24,1.46-.06,2.71-.15.6-.62,1.64-1.29,1.75-1.41.23-2.17-3.83-4.48-4.08a3,3,0,0,0-2.65,1.48c-1.09,1.83.15,4.93,2.13,6,2.59,1.45,5.46-1.11,7.11.48,1,1,.17,2.28,1.68,3.89,1,1,1.6.9,2.31,1.88,1.29,1.81,0,3.33,1.11,4.7s3.1.49,4.24,1.92c.82,1,.46,2.29.42,3.46-.09,2.55,0,3.71,8.2,13.44a37.14,37.14,0,0,0,5.22,5.05c1.28,1.18,2.41,2.42,4,4,.86.84.65.67,1.82,1.92,1.93,2,3.94,1.51,5.16,2.45,2.18,1.68,4,.52,5.25,2.1,1,1.21.06,2,1.05,3.88.54,1,1.14,1.38,4.23,3.6,3.47,2.5,3.15,2.33,3.43,2.49.75.42,6.85,6.15,10.88,4.13,1.16-.59,3.67-4.17,2.62-6.66-3.52-8.42,2.29-4.42,3.93-6.05,1.79-1.76,2.76-1.15,8.59-3.36,7.16-2.72,7.59-4.35,7.67-4.89C341.58,243.78,340.86,242.36,340.06,242.22ZM280.36,210c.53-.42,1.51,0,1.63.06.76.34.73.82,1.62,1.25.59.29.93.24,1,.47s-.54.86-1.1,1.1a2.61,2.61,0,0,1-2.93-.42C279.94,211.71,279.8,210.43,280.36,210Zm16.27,22.91c-1.16.82-1.75,1.24-2,1.89-.43,1,0,1.61-.42,2s-1.34-.38-2.56-.1c-1,.22-2,1.11-1.93,1.83.08.89,1.75.89,2.24,2.3a1.82,1.82,0,0,1-.05,1.47c-.55.88-2.21.72-2.72.68-2.08-.2-3.72-1.5-6.9-4.08a14.88,14.88,0,0,1-1.47-1.36c-1.22-1.32-2.12-2.28-2-3.46a2.47,2.47,0,0,1,1.36-1.93c1.13-.51,1.84.52,3.55.47a4.88,4.88,0,0,0,4-2.25c.9-1.64-.05-3.29.68-3.66.56-.28,1.71.42,2.25,1.36.75,1.3-.06,2.4.62,3s1.3.06,3.35-.1c1.82-.14,4.05,0,4.13.47C298.77,231.68,298.13,231.84,296.63,232.88ZM316.13,254a8.06,8.06,0,0,0-1.72,3.23,5.9,5.9,0,0,0-2.82.07,6.48,6.48,0,0,0-3.91,3.5c-3.84-2-4.53-2.83-4.4-3.16s1-.11,2.68-.41A13.57,13.57,0,0,0,309.6,256c2.07-1.15,1.84-2,3.58-3.16,2.49-1.6,5.57-1.42,5.7-1S317.5,252.49,316.13,254Zm12.38-14.58c-.07,1.18,1.5,1.79,1.3,2.55s-2,.91-2.61,1a12.51,12.51,0,0,1-7.22-1.72c-.93-.55-3.73-2.2-3.44-3.51.19-.83,1.43-.61,3.24-2.2,1.16-1,1.55-1.91,2.13-1.78s.47,1.42,1.37,1.85,1.53-.56,2.61-.2.89,1.31,2,1.72,1.91-.17,2.06.13S328.57,238.3,328.51,239.45Z"/><path class="cls-5" d="M311.46,278c-3.46-.08-4.89,4.35-6.41,3.65-1.15-.52-1.69-3.23-1.19-5a12.49,12.49,0,0,0,.64-2,5.46,5.46,0,0,0-.24-3c-.82-1.87-1.61-2.15-1.58-3.1,0-.61-.32-.52,2.14-2.23a11.7,11.7,0,0,0,2.14-1.67c1.41-1.72.57-3.07,1.75-4.13a3.56,3.56,0,0,1,4.45,0c.81.86.26,2,.79,2.3,1.41.8,5.22-4.67,6-4.13.45.3.21.63.64,3.66.24,1.65.88,2,.72,3.33-.28,2.16-2.31,3.33-2.07,3.66.35.49,4.13-2.83,6.6-1.63a2.72,2.72,0,0,1,1.59,2.43c-.24,2-4.65,2.57-4.61,4.29,0,.86,1.13,1.32.95,1.67-.35.7-4.51-1.69-6.36-.16"/><path class="cls-5" d="M442.24,263.28c0-1.09.23-1.78-.2-2.09s-.88.11-1.67-.15a2.57,2.57,0,0,1-1.16-.87c-1.4-1.53-1.13-2.1-2-2.9s-1.52-.42-2.55-1.4a3.64,3.64,0,0,1-1.14-1.79c-.31-1.47.88-2,.53-3.45-.19-.79-.59-.76-.9-1.87a4.63,4.63,0,0,1-.18-1.89c.2-1.53,1.15-1.88.95-2.77-.08-.32-.53-.72-1.44-1.49-1.48-1.26-1.75-1.27-1.94-1.78a5.87,5.87,0,0,1,.24-2.44c.26-1.34.44-1.75.19-2.29-.17-.37-.39-.43-1.05-1a6.93,6.93,0,0,1-2-2,6.59,6.59,0,0,1-.43-2.81c-.05-1.12.05-1.74-.35-2s-.74-.09-1.13,0c-1.61.49-1.92,1.7-2.89,1.72-.52,0-.88-.33-1.47-.88-1.3-1.2-1-2.12-2.09-3a8.09,8.09,0,0,0-2-.85,11.08,11.08,0,0,1-1.86-.66c-.82-.46-.78-.74-1.51-1.2a4.9,4.9,0,0,0-5.31.08c-1.24.82-1.11,1.56-2.52,2.51a3.6,3.6,0,0,1-1.82.78c-.27,0-1.07,0-3.06-1.6-1.65-1.32-1.32-1.5-2.2-2-1.48-.82-2.15-.16-3.84-1.07a10,10,0,0,1-1.82-1.36c-1.22-1.07-1.21-1.42-2-1.8-1.1-.52-1.78-.13-2.18-.71s.07-1.22-.39-1.65-.8-.08-1.18-.34c-.57-.39-.43-1.57-.18-2.8a15.46,15.46,0,0,1,2.13-6c1-1.54,1.69-1.92,1.62-2.9a2.51,2.51,0,0,0-1.78-2.18,2.72,2.72,0,0,0-2.79,1.31,4.44,4.44,0,0,0-.44,2.4c0,1.25.28,1.55,0,1.93-.44.57-1.3.12-2.31.89-.34.26-.24.3-.72.72a3.59,3.59,0,0,1-1.77,1c-1,.13-1.38-.71-2.05-.44-.49.19-.7.78-.89,1.3-.32.93-.07,1.38-.52,2.05-.18.27-.39.58-.7.61-.77.09-1.32-1.54-1.87-1.41-.2.05-.3.31-.42.74-.55,1.9-.17,2.46-.6,3.11-.77,1.17-3.05.88-3.21.86a4.87,4.87,0,0,1-1.76-.65c-1.85-1-1.84-2.09-3.18-2.38-.83-.18-1.24.14-1.77-.27-.15-.12-.34-.32-.72-1.49-.5-1.52-.4-1.84-.74-2.07-.6-.4-1.66.1-2.23.51-1,.71-.79,1.36-1.77,2.19-.13.11-1.65,1.38-2.9.8a1.73,1.73,0,0,1-1-1.18c-.1-.55.26-.86.1-1.46a1.65,1.65,0,0,0-.48-.75c-1-1-4.52-1.91-6.29-.19a3,3,0,0,0-.77,1.13c-.4,1,.07,1.59-.2,2.41s-.93,1.1-2,1.67c-2.16,1.14-3.1.64-3.78,1.57a3.87,3.87,0,0,0-.3,2.86c.24,1.43.93,2.06.58,2.84-.05.11-.2.4-1.08.88-1.77,1-2.44.45-3.61,1.21a5.34,5.34,0,0,0-1.81,2.28c-.53,1.16-.21,1.47-.69,2.06-.93,1.11-2.47.49-3,1.45a2.24,2.24,0,0,0,.22,1.89c.51.87,1.21.69,1.56,1.45a2.87,2.87,0,0,1-.45,2.42c-.38.59-.69.64-1,1-1.13,1.35-.6,4.53.68,4.95,1.09.35,2.72-1.29,3.47-2.71.59-1.12.27-1.44,1-3.54.63-1.76,1-2.79,1.87-3.06s1.74.62,2.59.17c.44-.23.47-.6.92-1.67.68-1.63,1.34-3.2,2.61-3.71.57-.23,1.33-.27,1.48,0s-.26.69-.39.84a20.09,20.09,0,0,0-2.77,5.13c-1.05,2.54-.32,3.26-1.58,4.94a12.47,12.47,0,0,1-1.66,1.71c-1.44,1.24-2.17,1.34-2.79,2.4-.36.6-.8,1.71-.36,2.24s1,.06,1.8.49.76,1.14,1.47,2a5.27,5.27,0,0,0,3.13,1.56,10.17,10.17,0,0,0,4.12-.08c1.56-.29,2.62-.76,3.68-.18a1.49,1.49,0,0,1,.65.54c.59,1-1,2.11-.85,4,.1,1,.59,1.46.26,2.17a2.13,2.13,0,0,1-.91.84c-1.57.92-2.58.25-3.23,1a2.24,2.24,0,0,0,.12,2.69c.14.14.18.11.9.61s1.07.73,1.1.88c.09.55-1.27.74-2.32,1.95a4.69,4.69,0,0,0-1,4,3.65,3.65,0,0,0,.52,1.23c.76,1.17,1.61,1,2.57,1.94s1.51,2.68,1,3.61a1.32,1.32,0,0,1-.73.68c-.46.12-.79-.23-1.19-.05a.93.93,0,0,0-.45.56c-.25.75.57,1.45.28,1.86a.65.65,0,0,1-.43.2c-.82.15-1.15-.57-2.2-.76a2.58,2.58,0,0,0-1.71.22c-.49.29-.58.64-1,.67s-.69-.28-1-.63c-.7-.7-.88-1.37-1.21-1.32a.36.36,0,0,0-.24.18c-.36.45,0,1,0,1.8a2.92,2.92,0,0,1-.74,1.79c-.54.58-.93.4-1.29.95a2.23,2.23,0,0,0-.26,1.56c.11.53.43,1,.3,1.47,0,.05-.06.22-.15.24s-.22-.2-.25-.26a7.16,7.16,0,0,0-1.44-1.52,2.83,2.83,0,0,0-2.53-.43c-.2.07-1.22.43-1.4,1.22s.45,1.35.22,1.56-.64-.06-1.27-.35L331,284c-.72-.42-2-1.14-2.81-.82s-1,1.17-1.19,1.84a4.75,4.75,0,0,0-.15,2q0,.29.09.48,0-.19-.09-.48a4.82,4.82,0,0,0-.5-1.33,4.91,4.91,0,0,0-3.08-2.34,4.79,4.79,0,0,0-2.33.14,5.56,5.56,0,0,0-1.69.79,5.31,5.31,0,0,0-1.93,2c-.69,1.34-.35,2.34-.92,2.6-1,.44-2.59-2.31-3.92-1.82a1.78,1.78,0,0,0-.86,1.07c-.55,1.22.15,1.82,0,3.61-.13,1.37-.59,1.48-.47,2.55a4.24,4.24,0,0,0,1,2.2,5.05,5.05,0,0,0,2.26,1.33,27.9,27.9,0,0,0,4.21,1.46c3.4.4,4.9-1.9,6.58-.9,1,.62,1.56,2.14,1.14,2.67-.83,1-5.08-2-6.79-.43-.72.65-.25,1.41-1,2-1.52,1.27-4.39-1.47-6.18-.36-.92.57-1,2.2-1.24,5.45-.18,2.67-.35,5.15.45,5.42,1.13.37,3.12-4,4.4-3.61.93.31.29,2.74,1.62,3.47,1,.54,1.75-.56,4.15-.55,1.89,0,2.32.69,3,.27,1.59-.92.41-4.8,1.66-5.29.8-.32,1.57,1.16,3,1,1-.11,1.58-.95,2.35-1.94,2.27-2.91,4.38-5.63,5.4-5.31.79.26,1.17,2.43.32,3.58-.45.61-.9.45-1.89,1.11-.24.17-2.48,1.73-2.26,3.63a3.39,3.39,0,0,0,1.41,2.16c1.13.81,2.21.47,2.54,1.19.22.47-.16.76-.2,1.69a4.36,4.36,0,0,0,.59,2.22c1.22,2,4.95,1.69,6.74,1.28,1.37-.31,2.83-.64,3.37-1.9a3.26,3.26,0,0,0-.67-3.28,3.58,3.58,0,0,0-2.32-1.14c.24-.12,2.38-1.17,4-.15,1.33.83,1.57,2.53,1.72,3.52a34.32,34.32,0,0,1-.08,4.49c-.05,1.2-.09,1.88.37,2.28s.88.05,2,.3c1.41.3,2.1,1.13,2.41.87s-.32-.95,0-1.48c.44-.72,2-.13,2.46-.85.19-.31,0-.67-.07-1.1a5.92,5.92,0,0,1,.61-4.52,3.26,3.26,0,0,1,3-1.38c.88.21,1,1,2,1,.71,0,.83-.44,1.71-.56a3.17,3.17,0,0,1,2.14.53c1.15.87.7,2.24,1.53,2.56s1.85-.61,2.38-1.35a3.67,3.67,0,0,0,.63-2.39c4.31,0,5.86,1,6.38,2.11s.17,2.68,1.14,3.2a2,2,0,0,0,1.39,0c3.35-.74,4.47-1.89,5.68-1.36a3,3,0,0,1,1.24,1.25c.67,1.11.39,2,.86,2.2.63.26,1.32-1.25,2.41-1.16.74.07.91.79,1.77,1.55,1.45,1.3,4,1.91,4.89,1.08s-.13-2.21,1-3.72a2,2,0,0,1,1.2-.87c1-.16,1.33,1.11,2.71,1.49s2.24-.75,3.72-.19a5.22,5.22,0,0,1,1.36,1c2.16,1.91,2.15,2.66,3.14,3a3.68,3.68,0,0,0,3.87-1.17c1.1-1.42-.06-3,1-4s3,.06,3.77-1c.55-.73-.22-1.44,0-3.57a9,9,0,0,1,.9-3.19c1-2.1,1.93-1.9,2.39-3.35.5-1.61-.52-2.18-.62-4.92-.08-2.1.51-2,.54-4.22a10.13,10.13,0,0,0-1.81-6.24c-.37-.49-1.38-1.84-2.37-1.67-.48.09-.6.46-1.25,1.08a5.82,5.82,0,0,1-3.25,1.71c-1.65.06-2.58-1.46-3.18-1.05s.13,1.73-.53,2.27c-.36.3-.85.12-2-.13-3.08-.68-3.54-.24-4.25-.93s-.37-1.25-1.33-2.29a4.45,4.45,0,0,0-1.61-1.15c-1.78-.71-2.6.67-4.61.22-1.06-.24-1-.65-3.06-1.47a17.65,17.65,0,0,0-2.1-.68c-3.23-.74-4.53,1.79-7.83,1.4-1.42-.17-2.57-.81-4.58-1.91A29.71,29.71,0,0,1,376,285.3c-4.22-2.87-5-4-6.32-3.74s-1.27,1.5-2.62,1.65c-1.72.19-2.44-1.74-4-1.48s-1.54,1.95-2.83,2c-1,.05-1.21-1.06-3-2s-3.31-.54-3.52-1.23,1-2,2.44-2.45c1.67-.55,2.3.45,4.16.18,2.38-.35,2.35-2.12,4.52-2.43s3.18,1.53,5.3.91c.72-.21.73-.47,2.57-1.88a24.41,24.41,0,0,1,4.13-2.77c3.13-1.49,5-.56,5.52-1.72s-.78-3.19-2.31-4.27c-2.41-1.68-5.07-.84-5.21-1.52s2.47-2.33,5.47-2.44c1.91-.07,2.63.52,4.72.83a15.46,15.46,0,0,0,6.78-.6,8.54,8.54,0,0,0,4.05,4.21c2.33,1,3.54-.05,6.36.87,2.29.75,5.3,2.71,5.53,5.16.16,1.63-1.06,2.15-.93,4.44a5.5,5.5,0,0,0,1.24,3.48c.37.39,1.21,1.13,7,1.53,2.13.15,1.88,0,5,.23a28,28,0,0,0,4.42.18c2.71-.29,2.62-1.17,5-1.31s3.43.75,4.84-.12a4.55,4.55,0,0,0,1.55-1.7c.48-1,.13-1.61.71-2.29s1-.36,2-1.16c.6-.48,1-.82,1.05-1.28,0-1.13-2.57-1.89-2.41-2.49.1-.34,1-.09,1.75-.8a2.76,2.76,0,0,0,.72-1.35c.35-1.18-.05-1.83.42-2.23.12-.11.2-.12.93-.23a9.61,9.61,0,0,0,1.93-.37C443.48,266.58,442.29,265.51,442.24,263.28Zm-100.5,43.09c-1.21,1.31-3.5,1.15-3.77.54s1.08-1,1.63-2.61-.16-2.72.31-3,2.1.79,2.48,2.31A3.2,3.2,0,0,1,341.74,306.37Zm53.14-2.6a2.14,2.14,0,0,1,1-1.31c1.87-1.21,3.72.35,5.12-.78.71-.59.36-1.11,1.25-1.87s2.67-1.19,3.17-.61-.49,1.69.13,2.59c.4.58,1,.36,1.37.93s-.17,1.41-.23,2.68c-.1,2.09,1.46,3.28,1,3.72s-2-.37-2.83-.92c-1.34-.86-1.75-1.68-2.3-1.52s-.38,1.34-1.24,1.91a2.8,2.8,0,0,1-2.39,0,6.52,6.52,0,0,1-3.08-2.6C394.78,304.52,394.84,304,394.88,303.77Zm-24.52-.84a5,5,0,0,1,3.6,2.24c.19-.33,1.53-2.55,3.69-2.59a2.89,2.89,0,0,1,1,.14c1.81.62,2.9,3.18,2.51,5.35a4.72,4.72,0,0,1-1.95,3.1,4.63,4.63,0,0,1-4,.51c-1.35-.44-1.19-1.15-3.31-2.56-1.42-.95-1.79-.83-3.18-1.86s-2.23-1.65-2.16-2.43C366.67,303.73,368.67,302.82,370.36,302.93Zm-.53-69.19c-.8.63-1.6.16-3.24,1.15-1.35.82-1.71,1.69-2.1,1.53-.77-.3.91-3.56-.66-6.12-.66-1.1-1.53-1.43-1.4-2.21.16-1,1.63-1,2.15-2.29.45-1.12-.27-2,.19-2.4s2.13.07,3.19.86C371.05,226.58,371.73,232.25,369.83,233.74Zm22.05,8.75c-.46.36-2.11-.55-2.9-2-.47-.86-.77-2.12-.33-2.44s1.14.64,2.71.7c1,0,1.58-.3,1.72-.07s-.83.77-1.14,1.93S392.19,242.25,391.88,242.49Zm7.72,9.09c-.72-.75,1-4.21,2.36-4.1.93.08,1.07,1.81,2,1.85,1.14,0,1.35-2.71,3.44-3.54a3,3,0,0,1,3.14.45c1,1.1.69,3.26-.21,3.73s-2.09-1-3.15-.47c-.91.46-.47,1.8-1.41,2.32s-1.5-.44-3.47-.48C400.6,251.31,400,252,399.6,251.58Zm9.21,13.76c-1.07-.88-.77-1.88-2.05-2.74-.76-.51-1.11-.32-1.49-.8-.83-1-.36-3.25.55-3.54s1.24,1.28,3.46,2.25c1.59.69,2.09.22,3.47,1,.31.18,2.33,1.37,2.12,2.67s-2.37,1.72-2.6,1.77A4.33,4.33,0,0,1,408.81,265.34Zm8.33,9.48a2.65,2.65,0,0,1-2.33.62A3.27,3.27,0,0,1,413,274c-.6-.75-1.46-1.84-1-2.69a1.89,1.89,0,0,1,2.27-.69c.59.28.44.78,1.1,1.37,1,.9,2.13.45,2.44,1.13S417.49,274.48,417.14,274.82ZM425.26,259c-1.12.32-2.82.44-3.07-.16s1.37-1.2,2-3.13c.48-1.54-.15-2.48.4-2.82s2.23.69,3.07,1.85a2.62,2.62,0,0,1,.7,1.77C428.18,258.15,425.56,258.9,425.26,259Z"/><path class="cls-5" d="M183.73,277.33c2.29,1.93,4.11,3.86,6.4,5.79a8.66,8.66,0,0,0,2.38-.65c.5-.26,2.4-1.26,2.45-2.54.06-1.54-2.59-2.64-2.36-3.08.14-.26,1.06.2,2.29.15,1.58-.06,2-.88,3.7-1.6,3-1.27,4.78,0,5.81-1.36a3.52,3.52,0,0,0,.4-2.58c-.28-2.26-1.9-3.35-1.51-3.91.23-.32.92-.12,2.65.21a22.41,22.41,0,0,0,4.67.67,7.38,7.38,0,0,0,4.4-2.1c3.22-2.72,4.06-6.56,4.58-8.69,1.75-7.13.33-7.88,10.74-13.24-.37-2.53-1.35-3.7-2.2-4.29-2.08-1.45-4.53-.29-5.7-1.83-.87-1.16.17-2.25-.77-3.48-1.15-1.49-3.22-.57-4-1.85-1-1.54,1.24-3.94.15-5.13-.63-.69-1.63-.13-2.48-1s-.35-1.76-1-2.17c-.92-.58-2.19.9-3,.48-1.15-.65,1.32-4.37-.15-7.76-.9-2.06-2.32-1.85-3-4.07a6,6,0,0,1,.74-5.4,6.18,6.18,0,0,1,6.72-1.69A2.2,2.2,0,0,0,217,205c.38-1-.71-1.93-1.19-3.7-.32-1.19-.06-1.63,0-3.48.15-4.51-1.27-5-.64-7.75.41-1.82,1-1.49,1.93-4.33.82-2.48,1.25-3.77.84-5.24-.73-2.62-3.41-3.18-3.15-4.89.17-1.08,1.25-1,1.65-2.46s-.65-2-.34-3.72c.25-1.39,1-1.48,1.44-3.12a6.65,6.65,0,0,0,0-2.7c-.16-1-1.67-10.65-5.84-13.68a5,5,0,0,0-2.72-1.19c-1.13-.07-1.76.4-2.09.06s.67-1.56.55-3.38c-.07-1.15-.57-1.33-.8-2.51a7,7,0,0,1,.69-4c.94-2.93-1.14-6.12-2.25-8.1-1.54-2.72-2.82-11.47-4-15-3.94.63-8.2,8-11.13,7.55-.31,1-1.68,1.72-1.45,2.68.12.55.58.41.91,1.16.41,1-.15,1.54.26,2.38.3.62.77.63,1.11,1,1.38,1.64-1.48,7.24-5,8.56a2.24,2.24,0,0,1-1.89.07c-.8-.51-.73-1.85-.72-2.06.12-2.2,2.19-3.61,1.83-4.06-.23-.29-1.17.3-1.5-.06s.8-1.88.33-2.45c-.32-.38-1.06,0-1.57-.45A1.38,1.38,0,0,1,182,129c.17-1.08,1.53-1.07,2.75-2.38s.51-1.84,1.76-3.21a6.88,6.88,0,0,1,1.34-1.14c-2.36-2.57,1.68-7.37,2.31-18.75.59-10.74-2.24-20.72-.21-21.32.62-.19,1.27.63,2.16,1a6.51,6.51,0,0,1-.61-3.19c.25-1.93,1.52-2.66,1.15-3.7s-2-1.34-2.9-1.53c-.56-.1-4.79-.93-7.17,1.88-.22.26-1.8,2.19-1.26,4.09.4,1.41,1.64,1.68,1.51,2.49-.17,1.11-2.7,2.13-5,1.74-2.46-.42-3.16-2.23-4.42-1.84s-1,2.22-2.64,4.41c-1.27,1.69-2.8,1.36-3.22,2.7-.26.83,0,1.59.54,2.93.78,2,1.39,2,1.9,3.49.81,2.34-.39,3.36.58,4.58.84,1.06,1.87.44,3.27,1.7s1,2.21,1.94,2.64c1.24.55,2.24-.93,4.61-1.49,3.14-.74,6.22.72,6.18,1.2s-2.36-.25-4.06,1.17c-1.94,1.61-1.14,4.32-2.66,4.87-.94.33-1.3-.68-3.56-.86-1.59-.13-1.84.34-3.15,0s-1.62-1-2.63-1-1.23,1-2.48,1.32c-1.69.43-2.52-1-3.83-.59a3.44,3.44,0,0,0-1.88,3.63c.42,2.18,3.4,2.4,3.48,4.15.07,1.46-2,1.66-2.36,3.73-.34,1.8,1.1,2.24.93,4.63-.13,1.75-1,2.5-.44,3.36s1.49.44,2.24,1.27c.9,1,0,2.15.38,4.1.48,2.63,2.47,2.53,2.92,5a5.32,5.32,0,0,1-.11,2.24,1.38,1.38,0,0,1,.2,0c2.61-.15,5.66,7.76,6.68,13.43,2.71,15.08-7.84,20.44-8.07,35.69-.14,9.68,4.09,8.82,9.6,27.73,5.38,18.5,9,31.05,2.83,38.48s-24,12-27.37,16.37a23.35,23.35,0,0,1,1.14,4.17c0,.3.15,1.18.75,1.49.83.43,1.62-.72,3-.69,1.58,0,1.73,1.49,3.48,1.89s2.08-.78,4.47-.94c2.22-.14,2.74.81,4.7.82s2-1.28,5.4-2.29c1.41-.41,1.88-.37,2.5-.93,1.27-1.14.77-2.64,1.68-3.33.61-.47-1-.06,2,1.67M209,189.5c.11,0,.3,0,1.24,1a15.43,15.43,0,0,0,1.5,1.55c.8.57,1.09.38,1.5.83a2.06,2.06,0,0,1,.26,2.45c-.8.9-3.51.3-4.82-1.29a3.47,3.47,0,0,1-.85-2.31C207.85,190.73,208.36,189.55,209,189.5Zm-4.78,45.17c.45-.47,1.18.18,2.52-.13s1.56-1.13,2.18-1,1,1.34,1.5,3.9c1.17,6.38.64,7.15.21,7.52a2,2,0,0,1-2.18.41c-1.53-1.08,1.24-6.67-.14-7.46-.55-.32-1.23.44-2.45,0a2.8,2.8,0,0,1-1.37-1.08C204.09,236.21,203.76,235.14,204.21,234.67Zm-13-80.88c0,.75-1.47,1.61-2.81,1.54a2.37,2.37,0,0,1-1.83-.83,1.91,1.91,0,0,1-.06-2.26C187.51,151.21,191.15,152.63,191.18,153.79ZM186,178.3c-.12-1.14.48-2.57,1.31-2.76,1.33-.32,3.61,2.46,4,5.27a5.13,5.13,0,0,1-.26,2.64c-.77,1.9-2.94,3.47-4.38,3a2.12,2.12,0,0,1-1.11-1.09,2.7,2.7,0,0,1,.33-2.38c.61-.95,1.3-.78,1.5-1.42C187.7,180.54,186.19,179.89,186,178.3Zm1.24-8.49a2.85,2.85,0,0,1-.85-2.57c.11-1.52,1.13-3,1.63-2.84s.13,1,.72,2.39c.73,1.71,1.84,2.1,1.63,2.7S188.34,170.6,187.26,169.81Zm-5.42-20.46c.35-.77,1.22-1.75,2-1.61.62.11.65.78,1.24.84s1-.89,1.63-.78.41.78,1.11,1.35c.86.72,1.88.42,2,.78s-.74.95-1.64,1.09-1.11-.34-2.48-.45c-.69-.06-.71.07-2.41.06-1,0-1.4,0-1.57-.32S181.71,149.64,181.84,149.35ZM175.51,186a1.4,1.4,0,0,1,1.24-.7c.94,0,1.28,1.08,1.83,1s.34-1.7,1.37-2.44a1.85,1.85,0,0,1,2.15-.07c.57.58-.2,1.64.4,2.25.45.47,1.05,0,1.76.52a2.08,2.08,0,0,1,.78,2.06c-.21,1-1.2,1.41-1.63,1.61-2.47,1.14-5.94-.18-7.37-2.26C175.77,187.57,175.18,186.71,175.51,186Zm20,11.91c-1,1.18-5.1-.81-5.35-.26-.17.35,1.54,1.16,1.37,1.93s-1.86.46-2.42,1.42c-.76,1.3,1.46,3.38.79,4.18-.38.44-1.13-.12-3,.06-1.68.17-2.24.74-2.67.39-.87-.69.56-3.51,0-3.8-.36-.18-.92,1-2.16,1.1-.84.06-1.08-.46-1.95-.39s-1.18.76-2,1c-1.75.62-4.27-1.59-5.48-3.28a7.7,7.7,0,0,1-1.5-4.12c0-.89,0-3,.91-3.28s1.77,2.27,4.11,2.7c1,.18,1.24-.18,2.74-.45,3.37-.61,4,.79,7.05.39,2.8-.38,2.94-1.68,5.42-1.55.53,0,3,.17,3.91,1.87C195.39,195.93,196.1,197.26,195.55,197.93Zm-.65-6c.39-.67,1.29-.71,2.48-.77s2.28,0,2.63.65a1.92,1.92,0,0,1-1.2,2.31c-.47.16-.59-.18-1.66-.11s-1.24.41-1.6.24A1.82,1.82,0,0,1,194.9,191.94Zm-2-19.43c.47.61-.1,2-1.05,2.51a1.84,1.84,0,0,1-1.63.19,1.57,1.57,0,0,1-1-1.41c0-1,1.36-1.51,2.16-1.61C191.73,172.15,192.58,172.05,192.94,172.51Z"/><path class="cls-5" d="M262.57,116.25s12.95-17.71,28.5-24.38c0,0,6.06-2.59,11.23-1.32-.83-1.15-1.72-2.43-1.26-3.8s1.63-1.72,1.48-2.82a2.68,2.68,0,0,0-2-1.87c-1.72-.44-2.46,1.13-3.9.9-2.38-.38-2.47-5-4.69-5.34-1.63-.24-2.6,2.11-4.11,1.66a2.43,2.43,0,0,1-1.48-2.81c.6-1.33,3.47-.2,4.92-2a2.9,2.9,0,0,0,.34-3.3c-.9-1-2.83.24-5.59-.07-3.5-.4-6.88-3.18-6.56-4.65.35-1.63,5.51-2.85,9.33-1.12,3.37,1.52,4.82,4.92,5.63,4.49.5-.26.25-1.76-.12-3.93-.6-3.55-1.35-4.69-.67-5.62.83-1.15,2.65-.42,3-1.27.44-1.08-1.95-3.6-4.89-4.47-1.57-.46-1.64,0-3.62-.33-3.93-.7-4.68-2.81-7.09-2.42-1.53.24-1.49,1.14-3.38,1.45s-2.46-.6-4.12-.38c-2.52.34-5.08,3-4.95,5.1.09,1.37,1.23,2,.87,3.22a2.21,2.21,0,0,1-1.66,1.5c-1.79.29-3.76-2.55-3.24-4.07.17-.49.47-.44,1-1.15.79-1.13,1.16-2.86.48-3.86-.46-.68-1-.4-1.76-1-1.94-1.46-.5-4.7-2.12-5.9-1.27-.94-2.69.62-4.18-.32-1.77-1.11-.81-4-2.43-4.8s-3.48,1.09-4.18.37,1-3.32.47-3.75c-.38-.27-1.12.85-2.7,1.16-1.74.34-2.37-.72-3.72-.32-1.5.44-1.16,1.86-2.72,2.74-2.19,1.23-4.47-.62-5.73.71-.34.36-.43.93-.61,2.06-.29,1.83-.48,3.08.27,4a3.68,3.68,0,0,0,4.41.75c1.27-.77,1.55-2.49,1.89-2.4s-.23,1.73.61,2.56c.61.6,1.26.12,2,.62,1.19.75.4,2.27,1.52,3.94s2.5,1.25,3.1,2.67c.42,1-.08,1.57-.44,3.43-.81,4.1.57,6.48-.61,7.18-.64.38-1.06-.31-2.61-.12-1.87.22-2.51,1.37-3.09,1.07-1.14-.6.93-5.23-.53-6.27-1-.68-2.77.65-3.14.13-.5-.71,2.95-3.36,2.25-4.94-.32-.71-1.14-.48-1.66-1.4-.65-1.18.33-2.25-.31-3s-2.45-.43-2.61-.39c-1.26.33-2.62,1.43-2.61,2.59s1.14,1.34,1.1,2.24c-.05,1.06-1.64,1.35-3,2.45-2.4,1.91-3,5.21-3.37,7.77-.58,3.48.12,5.26-1,6a2.92,2.92,0,0,1-3.36-.85c-1.58-1.88-.36-6,1.69-8.64,1.8-2.3,3.76-2.76,3.84-4.65.06-1.25-.79-1.44-1-3.11-.36-2.7,1.51-4.71,1-5.1s-2.76,2.12-3.68,1.55.17-3.09-.71-3.54c-.36-.18-.69.18-1.59.44-1.59.48-2.25-.16-3.35,0-1.89.34-1.55,2.53-3.95,4.25s-4.23.87-4.87,2.34c-.42,1,.36,1.41.17,3.5a4.53,4.53,0,0,1-1.13,3.13c-1.22,1-2.59.07-3.24.84-1.22,1.46,3.1,5.67,1.6,8.36-.45.8-1.3,1.26-1.15,2s1.37,1.06,1.42,1.85-1.2,1.1-1.22,1.74c0,1.53,6.8,2.28,6.8,3.59,0,.73-2.06,1.73-4,1.41-2.22-.38-2.44-2.29-4.39-2.47s-2.48,1.73-4.46,1.58c-2.33-.17-3-2.92-4.68-2.64-1.52.24-1.58,2.58-3.31,2.94a1.84,1.84,0,0,1-1.2-.14c0,.15.09.28.14.44.59,1.86.95,3.77,1.54,5.63,1.75,5.53,2,12.79,4.45,22,1,3.74,1.92,7.09,2.88,10.13,2.59-.42,5-.34,6.74,1.25.29.27,2.89,2.64,2.36,4.84-.3,1.28-1.57,2-1.24,3,.28.82,1.31.72,1.58,1.58s-.92,1.66-.67,2.66,1.5.77,2.36,1.83c1,1.21.1,2.37.45,4.84a10.39,10.39,0,0,0,2.11,4.85,9.16,9.16,0,0,0,4.67,3.36c3,.81,3.89-1,6.56,0,1.86.71,2.16,1.88,4,2,1.39.09,1.57-.59,3.16-.61,2.41,0,3,1.5,4.35,1.1,1.81-.54,1.44-3.44,3.62-4.3,1.26-.5,1.67.36,2.95,0,1.59-.45,2.14-2.1,2.84-3.69l-.76.12A122.41,122.41,0,0,1,262.57,116.25Zm-43.89-48.2a3.1,3.1,0,0,1,3,1.59c-1.8.1-2.34.59-2.52,1-.42,1,1,2.07.53,3.14a1.63,1.63,0,0,1-1.83.85c-1-.34-1-2.12-1-2.63C216.88,71.71,216.87,68.48,218.68,68.05Zm5,52.63c-.53.35-1-.24-2.44-.26-1.13,0-1.32.34-2.32.26a7.11,7.11,0,0,1-2.06-.71c-2.28-.77-3.23.53-4.89-.32a3.39,3.39,0,0,1-1.74-2c-.22-1,.44-1.66,0-2.45s-1.15-.58-1.28-1.09c-.2-.78,1.5-1.19,2.12-2.83a4.4,4.4,0,0,0-.19-3.35c-.46-.92-1-1.15-1-1.74a1.82,1.82,0,0,1,1.8-1.28c1.1,0,1.21,1.32,2.51,1.6,1.11.25,1.56-.56,2.45-.19s.71,1.35,1.61,1.74,1.3-.3,2.64-.32c1,0,2.7.35,3.08,1.35.48,1.22-1,3.23-2.57,3.54-1.08.21-1.44-.55-3.09-.52-1.48,0-2.84.66-2.83,1.1s1.09.32,1.55,1.15,0,1.69.12,1.74.55-1.75,1.87-2.44a2.44,2.44,0,0,1,2.77.25c.56.68-.19,1.4.32,2.51s1.52,1,1.93,2.06A2,2,0,0,1,223.71,120.68Zm8.86-45.93c.84,0,1.1,2,1.88,2,.45,0,.85-.72.94-1.29.14-.86-.43-1.22-.49-2-.11-1.31,1.25-2.88,2-2.73,1.12.23,2.07,4.45.24,7.2-.31.48-1.43,2.17-3.15,2.08a3.16,3.16,0,0,1-2.88-2.8C231.06,76,231.89,74.73,232.57,74.75Zm7.68,64.72c-1.33,2.21-7.66,1.65-11.45-1.16a8.14,8.14,0,0,1-2.45-2.77,7.58,7.58,0,0,1-.77-4.56c.1-.61.35-2.16,1.09-2.32s1.09,1.37,2.51,1.74,2.51-1,3.54-.45c.56.3.42.79,1.1,2.18a7,7,0,0,0,2.18,3c1.55,1,2.73.12,3.73,1.1A2.93,2.93,0,0,1,240.25,139.47Zm3.6-15c-.85.54-2.45-.6-3.15-1.1-1.4-1-2.45-2.43-2.19-2.76s1.78.91,2.7.32.49-2.19,1-2.32,1.13,1,1.23,1.22C244.3,121.34,244.83,123.85,243.85,124.48Zm14.87-20.79c1-.67,2.08-.12,2.44-.7s-.27-1,0-1.36c.48-.56,2.63.82,3,.33.22-.28-.4-.77-.45-1.74a2.66,2.66,0,0,1,1.54-2.64,2,2,0,0,1,1.61.19,2.7,2.7,0,0,1,.84,2.13c.12,1.49-.42,1.75-.33,3,.13,1.65,1.25,2.55,1,2.83s-2.11-1.56-3.73-1c-.68.22-.54.61-1.42,1s-1.76.33-3.47.13-1.89-.47-1.93-.58C257.64,104.79,258.14,104.07,258.72,103.69Zm-3.16,9.91a3.49,3.49,0,0,1,3.16,1c.12.12,1.47,1.48,1.09,2.77-.29,1-1.26.81-2,2.06s-.15,1.88-.84,2.57c-1,1-3,.36-3.15.32a4.53,4.53,0,0,1-2.51-2.31c-.3-.56-1-1.88-.52-2.51.78-1,4,.42,4.18-.07.14-.32-1.28-.81-1.35-1.8S254.58,113.88,255.56,113.6ZM246,105.43c-.33-.82-.18-1.09-.13-1.16.29-.45,1.23-.48,1.93-.19,1.13.46,1.2,1.6,1.93,1.61.5,0,.54-.52,1.41-.9a2.29,2.29,0,0,1,2.06-.07,1.7,1.7,0,0,1,.84,1.87c-.35.71-1.61.19-2.57,1.16-.59.58-.41,1.06-.91,1.28-.71.33-1.69-.42-2.57-1.09A5.72,5.72,0,0,1,246,105.43Z"/><path class="cls-5" d="M215.74,193.2a5.56,5.56,0,0,1,1.69-2.49c.84-.7,1.27-.58,1.69-1.21.62-.92,0-1.66.31-2.87.14-.52.4-.95,2.75-2.89,2.09-1.72,3.13-2.59,3.77-2.79,1.64-.52,2,.2,4.43-.32,1.27-.27,2.68-.57,3.11-1.58s-.48-1.75,0-2.52c.31-.46,1.13-.6,2.79-.88a6.72,6.72,0,0,0,2.36-.51c.89-.5,1-1.06,1.33-1,1,.15.75,5.13,1.76,5.3.49.08.62-1.08,1.72-1.47,1.33-.48,2.36.81,3.34.26.79-.43.38-1.39,1.12-1.9s1.75.41,5,1.37c1.69.49,2.66.58,2.88,1.28s-.51,1.2-.21,2,1,.62,1.26,1.23c.39,1.07-1.6,2.22-1.24,3.18.22.57,1,.33,1.81,1a3.43,3.43,0,0,1,1,3.8c-.59,1.13-1.88.7-2.79,1.76s-.44,2.45-.05,5.4c.54,4.13,1,7.54-.63,8.77a3.41,3.41,0,0,1-2.76.34c-3.09-.85-3.54-5.38-5-5.25-1.13.1-.87,2.87-3.38,4.53a5.6,5.6,0,0,1-3,1,6.14,6.14,0,0,1-2.75-.77c-5.87-2.73-4.94-2.14-6.1-2.79-3.18-1.81-3.61-2.57-4.83-2.38-1.68.27-1.88,1.9-3.36,1.91-1.29,0-1.47-1.24-4-2.94-2-1.35-2.6-1-3.37-2.11A5.09,5.09,0,0,1,215.74,193.2Z"/><path class="cls-5" d="M219.73,156.81c.22.09,1,1.56,2.08,1.56s1.49-1.63,2.42-1.55.81,1.53,2,2.11c1.62.81,3.56-1.18,4.44-.42.56.49-.2,1.36.28,2.89s1.79,1.8,1.78,2.9-1.34,2.24-2.55,2.63c-1.72.56-2.88-.42-3.74.36s-1.05,1.31-1.43,1.4-8.58-.27-9.42-2.08c-1.06-2.28-2.36-5.08-3.4-7.37C211.78,158.43,217.59,155.89,219.73,156.81Z"/><path class="cls-5" d="M241.3,219c.38-.36,1.06.27,1.95-.16s.82-1.65,1.65-1.93,1.51.93,2.54.71,1.05-1.85,2.14-2.12,1.54,1.21,3.07,1.32,2-1.44,3.82-1.64a5.46,5.46,0,0,1,3.89,1.6c2.18,1.82,3.18,4.78,2.61,5.22s-3-3-6-2.62c-.7.08-1.1.33-3.41,2.2-2.66,2.15-5.39,4.2-8,6.43-1.78,1.53-2.58,2.26-3,2-.66-.4.79-2.48.38-5.5S240.65,219.6,241.3,219Z"/><path class="cls-4" d="M234.2,211c.14-.23,0-.57-.08-.76-.25-.58-.66-.62-.94-1-.38-.59.1-1.07,0-2.12-.07-.86-.53-2-1.16-2.13-.84-.12-2,1.62-1.61,2.44.29.61,1.29.37,1.57,1s-.74,1.38-.46,2.08"/><path class="cls-5" d="M220.34,296.33a1.93,1.93,0,0,1,2-.47,1.53,1.53,0,0,1,.72.71c.38.83-.38,1.43,0,2,.13.23.26.2,1.61.81.91.41,1,.48,1,.56.33.73-1.43,1.78-1.13,2.61.19.53,1,.28,1.56,1s0,1.54.59,2.17,1.95.14,2.47.78c.28.34.37,1.09-.64,2.92Z"/><path class="cls-5" d="M237.91,300.62c0-.42.52-.72.81-.89a4,4,0,0,1,1.77-.42,18.13,18.13,0,0,1,3.09,3.18,16.28,16.28,0,0,1,3.38,6.36c-.42-.12-.9.55-1.65.67-1.34.22-1.9.62-2.25.38s-.49-.86-.28-2.55c.18-1.41.83-2.17.44-2.76s-.9-.46-1.4-1.21-.19-1.31-.64-1.64-1.12.25-2.14-.09C238.56,301.49,237.91,301.09,237.91,300.62Z"/><path class="cls-5" d="M215.59,267.48c.29-.18,2,3.76,2.13,4,1.88,2.73,4.94,6.55,8.84,11.16a2.25,2.25,0,0,1-1.3,1.19c-1,.3-2.08-1.35-2.82-1-.31.12-.6.61-.55,2.16-3-.89-4.07-2.29-4.48-3.14a11.07,11.07,0,0,1-1-5.29,2.34,2.34,0,0,0-.31-1.9c-.53-.56-1.21-.19-1.57-.65-.56-.71.88-1.95.79-4A5.07,5.07,0,0,1,215.59,267.48Z"/><path class="cls-5" d="M209.5,290.05c1,1.78,2.41,3.62,3.4,5.4a4.25,4.25,0,0,0-1.46-.38c-1.12,0-1.38.71-2.69,1.08-.09,0-1.3,1-2.24.32a4.12,4.12,0,0,1-1.09-4c.58-1,2.44.11,3.51-1.15A1.59,1.59,0,0,0,209.5,290.05Z"/><path class="cls-3" d="M307.82,246.17c-.83-.55-.81-1.22-1.27-1.29s-1.08.71-2.08,2.44c-2.5,4.33-2.33,5-2.12,5.41s.93,1,1.43.85c1.36-.39.87-5.16,2.05-5.38.47-.09.76.64,1.73.63a2.13,2.13,0,0,0,1.25-.43c.43-.34.95-1,.75-1.49S308.68,246.73,307.82,246.17Z"/><path class="cls-4" d="M316,281.56c0-.09,0-.1,0,0Z"/><path class="cls-5" d="M316,281.56m-18.73-39c-1,.65-.55,1.71-1.46,2.32-1.23.83-2.66-.64-4.5-.12a4.55,4.55,0,0,0-2.68,2.55c5.94,6.54,4.74,6.72,4.11,12.34-.19,1.67-.61,4.67.94,7.46a5.56,5.56,0,0,0,2.56,2.65,16.36,16.36,0,0,0,3.47.71c1.3.2,1.84.23,1.92.52.13.5-1.3.88-2.09,2.45a2.79,2.79,0,0,0-.4,2c.37,1.25,2,.78,3.74,2.47,1,.95,1.09,1.66,2.19,2.1.86.35,1.66-3.08,1.69-2.86,0,.38-1,1.13-1.31,2.26-.31.94,3.33-6,.91,1-.21.59,2.5-3.53,2.83-3.34,2.12-.81,2.86-2.66,5-3.47h0"/><path class="cls-5" d="M207.17,287.51c-.82-1.37-2-2.94-2.81-4.3a1.73,1.73,0,0,1-1,1c-1,.35-1.76-.93-2.88-.73s-1.2,1.92-2.37,2.11c-1,.16-1.41-1-2.9-1.22a4,4,0,0,0-2.41.44q3.75,3.81,7.52,7.61a2.27,2.27,0,0,0,1.32-.8c.51-.7.18-1.39.73-1.95s.71-.13,1.37-.53c1.05-.64.91-1.76,1.76-2.06"/><path class="cls-5" d="M360.8,180.56c.08-1,2.75-1.72,4.19-2.1,2.35-.61,3-.28,4.19-1.11a7.45,7.45,0,0,0,2.1-2.59c1-1.77.61-2.15,1.35-2.95,1.38-1.49,3.13-.5,4.19-1.85.92-1.17-.1-2.26.86-3.82a3.83,3.83,0,0,1,3.58-1.85,3.9,3.9,0,0,1,3.08,3.45c.07-.06,1.56-1.29,3-.74s2,2.81,1.36,4.07-2,.92-5.91,2.59c-2,.85-3,1.3-3.45,2.09-1.08,1.89.63,3.68-.5,5.3-1,1.38-3.28,1.58-3.57,1.11s1.06-1.11,1-2.34-1.21-2.21-2.09-2.1c-.64.08-.7.75-1.85,2.1-1.31,1.54-1.76,1.3-2.34,2.34a4.3,4.3,0,0,0-.25,3.82c.46.9,1,.79,1.36,1.6.72,1.58-.33,4.09-1.36,4.19s-1.14-2.34-3.32-3.33c-2-.89-3.84.19-4.19-.49-.43-.84,2.48-2.32,2.22-4.07S360.72,181.72,360.8,180.56Z"/><path class="cls-5" d="M365.74,198.72c.32.45-.1,1.24-.29,1.6a4,4,0,0,1-3.31,2.1,3.34,3.34,0,0,1-2.43-1c-.8-.9-1.18-2.44-.55-3.13a1.45,1.45,0,0,1,.79-.37"/><path class="cls-6" d="M126,144.29c0-1.34.78-1.58,1-3.28.25-1.55-.34-1.77,0-2.89.43-1.44,2-2.88,3.28-2.72s1.73,2.1,3,2c.9,0,1-1,2.3-1.26,1.12-.23,1.5.41,2.13.1,1.15-.57.26-2.86,1.52-3.85a3.1,3.1,0,0,1,3.38.23,3.87,3.87,0,0,1,1.45,3.35,5,5,0,0,1-1.5,3.23c-1.73,1.79-3.22,1-4.79,2.66-1.12,1.2-.54,1.81-1.81,3.36a7.41,7.41,0,0,1-3.89,2.51c-.62.15-3.46.86-5.1-.85A4.06,4.06,0,0,1,126,144.29Z"/><path class="cls-6" d="M113.29,155.71c-.28-.92-1-1-1.4-1.68a2.84,2.84,0,0,1,1.11-3.54c.57-.23.79.18,1.74,0a4.6,4.6,0,0,0,2.22-1.12c1.46-1.09,1.26-1.44,2.19-2a4.88,4.88,0,0,1,3.57-.57c.81.25.58.53,2.53,1.68a9.1,9.1,0,0,0,2.17,1.07c1,.3,1.43.13,1.67.47.4.57-.57,1.3-.83,3.07-.15,1,.13,1,.08,3.2a4.65,4.65,0,0,1-.26,2c-.52,1.1-1.36,1-1.64,1.88s.45,1.24.41,2.62a4.08,4.08,0,0,1-.76,2.21c-.71,1-2.18,2-3.21,1.53s-1.4-2.12-2.1-5.26c-.26-1.13-.31-1.64-.8-2-.76-.58-1.61-.12-3.62,0s-4.15-.14-4.27-.74,1.12-.81,1.27-2A2.13,2.13,0,0,0,113.29,155.71Z"/><path class="cls-6" d="M131.08,158.05c-.07-.46-.35-.56-.54-1.19a2.6,2.6,0,0,1-.1-1.19c.22-.89,1.54-.79,3.29-1.72s1.58-1.54,3.43-2.37a5.13,5.13,0,0,1,2-.59c1.3-.06,1.89.56,3.23,1.13a48.51,48.51,0,0,0,6.23,1.08,5.22,5.22,0,0,1,2.81.86c.09.08,1.57,1.28,1.34,2.61s-1.76,1.19-2.43,2.84c-.44,1.08,0,1.56-.41,2.34s-1.48,1.1-3.61,1.35c-4.62.55-7.18.85-9.82-.09a4.89,4.89,0,0,0-2.48-.47c-1.32.16-1.72.91-2.82.75a3,3,0,0,1-1.79-1.1c-.26-.32-.81-1-.6-1.59s1.08-.39,1.78-1.25A2,2,0,0,0,131.08,158.05Z"/><path class="cls-6" d="M143.73,150a4.27,4.27,0,0,1-1.28-1.66,2.68,2.68,0,0,1-.28-1.74c.24-.85,1-.87,2.1-1.89a7.85,7.85,0,0,0,1.86-2.78c.54-1.43.06-1.71.61-2.73a4.19,4.19,0,0,1,2.95-2.1,3.93,3.93,0,0,1,2.16.26c2.07.92,2.59,3.5,2.55,5,0,.63-.05,1.95-.82,2.34s-2.26-.65-2.62-.23.49,1,.19,1.65-.82.36-1.64,1.12a2.64,2.64,0,0,0-.75,1c-.27.73.08,1-.1,1.6a2.52,2.52,0,0,1-2.2,1.36A3.8,3.8,0,0,1,143.73,150Z"/><path class="cls-5" d="M166.43,219.57,168,218"/></g></svg>