<svg xmlns="http://www.w3.org/2000/svg" viewBox="0 0 504 504"><defs><style>.cls-1{fill:#231f20;}.cls-2{fill:#b33940;}.cls-3{fill:none;}.cls-4{fill:#a64142;}.cls-5{fill:#b43941;}.cls-6{fill:#b12c3c;}</style></defs><g id="Layer_10" data-name="Layer 10"><polygon class="cls-1" points="217.32 290.44 247.38 262.25 275.17 290.48 279.75 290.48 247.26 257.19 213.07 290.42 217.32 290.44"/><polygon class="cls-1" points="229.7 275.68 234.72 272.29 234.72 265.35 229.16 265.35 229.16 276.59 229.7 275.68"/></g><g id="Layer_11" data-name="Layer 11"><path class="cls-1" d="M228.64,449.84a260.34,260.34,0,0,0,2.46-27.22c.47-12.12.7-18.18-.86-25.81a74.22,74.22,0,0,0-12.34-28c-5.59-7.81-10.73-11.71-17.89-17.74-8.37-7-36.63-34.21-50.55-48.66.91-1.7,3.73-1,4.64-2.67,7,6.59,28.77,27.45,36.49,34.18q9.49,8.29,18.75,15.83a112.84,112.84,0,0,0-4.82-10.83c-6.84-13.41-20.83-32.21-28.31-39.45l5.3-1.8c8,9.18,19.38,25.88,23.27,31.5,6.81,9.84,9.56,15.32,18.15,28.18,5.44,8.14,10.13,14.61,13.23,18.81.35-9.1.35-22-1.71-32.65a25.66,25.66,0,0,0-1.46-5.11c-3.21-7.9-9.74-12.46-14.09-14.86q.49-15.84,1-31.7l27.34-27.3,26.07,27.29v35.07c-3.62,1.95-9.46,5.84-12.81,12.86a26.28,26.28,0,0,0-1.89,5.47c-2.64,11.2-1,25.51-.08,32.15,1.23-2.74,3.21-7.09,5.8-12.36,5.93-12,8.23-15,13.91-26.26,6.14-12.15,5.42-12.53,9.61-20a136.46,136.46,0,0,1,13.82-20.23c1.26,1.14,5.53-1.41,6.79-.28-2.79,3.33-9,11.17-8.12,12.14s4.68-1.3,6.51-2.34c5.37-3.07,14.08-9.19,25.79-22.3l4.21,4c-5.66,5.12-12.05,10.74-19.15,16.72-10.38,8.76-12.14,9.76-14.69,10.08-1.57.2-5.43.4-8.06,3.21a8.88,8.88,0,0,0-1.77,2.87c-1.61,3.93-4.6,10.81-8.58,19.92a54.15,54.15,0,0,1,8-4.92c3.32-1.67,10.53-7.82,13.14-8.59l1.19,2.39c-4.18,2.16-11.44,9.45-13.56,11.16,0,0-8.76,7-13,17.64-.57,1.43-1.18,3.45-.31,5.19a6.83,6.83,0,0,0,1.11,1.28s4.72-5.22,8.39-9.59c2.4-2.84,22.5-18.34,28.91-21.13l0,4.4c-2.82,2.23-23,17.77-26.84,22.84A72.81,72.81,0,0,0,281.25,385c-7.22,25.52,3,64.6,3.54,66.72a109,109,0,0,0-56.15-1.91Z"/><path class="cls-1" d="M190.32,226.94c.94,0,4.11-1.2,5.41-1.53,2.62-.65,2.54-.65,3.61-1.52,2.74,2.71,11.22,11.86,14,15.5A95.91,95.91,0,0,1,227,263.82c-1,1-3.45,1-4.49,2-2.62-6.53-5-13.16-10.55-21.1a111.44,111.44,0,0,0-8.07-10.23c-1.33-1.28-5.61-7.9-7.5-7.06-1.21.54-3.68,3.16-4.26,3.7C191.91,229.81,190.55,228.27,190.32,226.94Z"/><path class="cls-1" d="M227.84,262.36c-.52-3.4-1.37-8.55-2.66-14.8-1.46-7.12-2.62-11.47-4.64-19.75-.27-1.11-2.62-10.81-4.85-20.88-2.16-9.74-4.5-20.42-6.64-34.21-.89-5.73-1.5-10.46-1.89-13.61l3.5-.41c2.14,11,4.07,20,5.38,25.86,3,13.47,10.84,47.36,13.68,58.3.36,1.37,1.67,6.33,2.79,13,.17,1,.3,1.84.36,2.26Q230.36,260.25,227.84,262.36Z"/><path class="cls-1" d="M247.66,244.2l5.8,5.42c-1.53-15.49-2.73-28-3.55-36.65-1-10.42-2.15-23.08-3.11-32.54-.11-1.15-.63-6.26-1.31-13.18-.26-2.67-.47-4.86-.61-6.31l-4.32.39c.19,6.35.88,27.48,2.85,48,1,10,2.24,20.17,2.24,20.17C246.36,235.16,247.05,240.11,247.66,244.2Z"/><path class="cls-2" d="M236.06,257.11l-12,11.52c-1.2,1.15-14.81,16.2-16,17.35-.91-.33-1.49-7.82-1.59-9.2-.09-1,1-1.79,3.52-3.77s15-8.31,15.81-9c4-3.38,3.83-4.62,6.17-5.51C233.94,257.75,234.85,257,236.06,257.11Z"/><path class="cls-2" d="M259.74,241.13c-.21.09,2.42,4.31.91,6.35-.62.83-1.48.69-3.37,2.33-.95.82-1.42,1.25-1.43,1.82,0,1.17,1.89,1.76,3.5,3,2.32,1.75,2.45,3.58,4,6.35a39.94,39.94,0,0,0,9.74,11.24c5.69,4.69,7.48,3.82,8.34,6.79,1.62,5.63,1.4,9.29,2.92,9.58,2.23.43,8.65-12.14,4.8-16.46-1.59-1.78-3.5-.58-8.17-1.82-5.17-1.36-11.62-5.17-14.52-11-1.9-3.84-.67-5.35-3.76-12.71C261.05,242.57,259.87,241.07,259.74,241.13Z"/><path class="cls-2" d="M283.57,281.92c0-1.15-.25-3.88-5-8.95-7.63-8.15-14.4-9-14.67-13.74-.17-2.82,2.17-4.17,1.21-5.84-1.32-2.32-8.76-2.32-12.61-5.69-3-2.63-5-.92-6.55-3.25,3.32,4,6.16,7.11,8.1,9.22,14.34,15.5,25.88,22.52,28.07,31.64"/><path class="cls-2" d="M253.17,247.29c.14,0,0,.67.79,1.34a2.14,2.14,0,0,0,2.72-.07,2.32,2.32,0,0,0,.25-2.53c-.62-1.35-2.18-1.42-2.14-2s2-1.52,3.3-.88c1.76.84,1.54,3.82,1.51,4.2-.11,1.47-.87,4.34-3,4.71a3.42,3.42,0,0,1-3.13-1.36C252.12,249,253,247.29,253.17,247.29Z"/></g><g id="Layer_12" data-name="Layer 12"><path class="cls-1" d="M199.05,464.46a95.64,95.64,0,0,1,18.29-8.93,100.15,100.15,0,0,1,36-5.72c27.56.1,50,10.18,61.4,16.19a248.17,248.17,0,0,0-47.94-7.48,239.82,239.82,0,0,0-29.42.12A232.46,232.46,0,0,0,199.05,464.46Z"/></g><g id="Layer_6" data-name="Layer 6"><path class="cls-3" d="M246.88,196.2c.06.18.13.36.18.55C247,196.6,247,196.4,246.88,196.2Z"/><path class="cls-4" d="M246.75,195.62a2.54,2.54,0,0,0,.12.54A2.1,2.1,0,0,1,246.75,195.62Z"/><path class="cls-2" d="M236.92,182.87c.37.13,1-.17,1.45.21a.83.83,0,0,1,.11.15.51.51,0,0,1,.13.09c.32.34.08.85-.05,1.54a7.16,7.16,0,0,0,0,.94c.14,1.35,1.15,2.06,1.56,2.68a1.54,1.54,0,0,1,.31.34c.12.22.08.22.06.42a.53.53,0,0,1-.36.44,3.43,3.43,0,0,1-.94.21,8.2,8.2,0,0,0-3.93,1.28,2,2,0,0,0-.22.2c-.18.18-1,1-.9,1.71a3,3,0,0,0,.4.5,2.61,2.61,0,0,0,.33.27c.75.28,1.83.32,2.14,1.09s-.46,1.17-.22,2.35c.2,1,.75,1,.77,1.67a1.42,1.42,0,0,1-.52,1c-.16.17-.34.34-.51.53a2.26,2.26,0,0,0-.61,1.11,2.66,2.66,0,0,0,.06,1.26.87.87,0,0,0,.52.4c.87.15,1.61-2,2.48-1.83a.74.74,0,0,1,.47.4,7.59,7.59,0,0,1,.57.68l.12,0c.23,0,.59-.07,1.28-1,1.31-1.8,1.17-3.07,1.7-3.16s1,.52,1.41,1.34c.23.38,1.13,1.24.67,1.62a3.6,3.6,0,0,0-.67-1.62,4.73,4.73,0,0,1,.33,2.09,2,2,0,0,1-.3.67l-.15.23c-.54.65-1.29,1-1.25,1.69.06,1,1.54,1.87,2.85,2a3.84,3.84,0,0,0,.59,0h0a3.75,3.75,0,0,0,.6-.14l.16-.06.44-.2.11,0,.44-.28a.1.1,0,0,1,.05,0l.6-.45,0,0,.6-.48a10.26,10.26,0,0,0,2.11-2.23h0a4.09,4.09,0,0,0,.26-.51h0a2.55,2.55,0,0,0,.15-.52,1.64,1.64,0,0,0,0-.44.43.43,0,0,0,0-.11c0-.05,0-.1,0-.14-.36-1.34-2.32-1-4.14-3.06a7.93,7.93,0,0,1-1.24-2,2.1,2.1,0,0,0,.12.54v0h0c.07.2.14.4.18.55-.05-.19-.12-.37-.18-.55h0v0a2.54,2.54,0,0,1-.12-.54c-.26-.67-.32-1.26-.06-1.57.55-.65,2,.49,3.21-.28a3.07,3.07,0,0,0,.87-3.54.5.5,0,0,0-.08-.12l0-.07c-.53-.86-1.43-.77-2.38-2a7.26,7.26,0,0,1-.68-1.58c.14,1,.38,1.34.38,1.74a7.6,7.6,0,0,1-.38-1.74c-.12-.37-.26-.82-.43-1.39a32,32,0,0,0-1.17-3.92,2.53,2.53,0,0,0-.13-.22,2,2,0,0,0-.24-.16c-.81-.38-1.23.34-2.17.13a2.11,2.11,0,0,1-.47-.19h-.27c-2.05-.09-3-1.22-4.29-.82.48-.09-.23,0-.24.1s.11.34.19.34-.07-.27-.1-.4h0c-1.25.53-1.92,2.27-1.53,2.79l.05,0"/><path class="cls-4" d="M247.6,186.48a7.6,7.6,0,0,0,.38,1.74C248,187.82,247.74,187.48,247.6,186.48Z"/><path class="cls-4" d="M244.49,199.76a3.6,3.6,0,0,1,.67,1.62C245.62,201,244.72,200.14,244.49,199.76Z"/><path class="cls-3" d="M302.82,233.63c1-1.25,1.72-1.31,2.46-2.25,1.17-1.52.31-2.57,1-4.21,1.49-3.46,7.8-4.4,8.93-4.57,2.41-.36,4-.09,4.71-1.22a3,3,0,0,0-.21-3c-1.07-1.7-3-1-4.79-2.33-2.9-2.15-2.28-7.45-2.18-8.31a15.15,15.15,0,0,1,3.78-8c1.93-2.08,3.46-2.43,4.15-4.58s.12-4.28-.55-4.42-1,2.14-3.39,4.24c-1.53,1.32-2.27,1.14-2.94,2.31s-.17,1.7-.47,4.23c-.25,2.06-.49,4-1.75,4.73s-3-.24-3.25.31,1.26,1.26,1.16,2.51a2.45,2.45,0,0,1-1.69,1.88,3.12,3.12,0,0,1-2.09-.18c-3-1.28-2.06-8.77-2.59-8.79-.28,0-.38,1.93-1.47,4.73-.26.66-.51,1.21-.69,1.59a5.79,5.79,0,0,1,1.74,2.27c.51,1.26.13,1.8.43,4,0,.28.29,1.4.8,3.64a13.3,13.3,0,0,1,.59,2.9,7.11,7.11,0,0,1-2.3,4.32c-1.39,1.33-2.34,1.33-2.61,2.39s.48,1.12.49,2.53c0,1.72-1.07,2.42-.64,3.67a2.65,2.65,0,0,0,.75,1.07,3.85,3.85,0,0,1,.91,2.08,5.92,5.92,0,0,1,.26-1A9.48,9.48,0,0,1,302.82,233.63Z"/><path class="cls-4" d="M301.35,240.12a14.27,14.27,0,0,0-.22-2.91A7.44,7.44,0,0,0,301.35,240.12Z"/><path class="cls-2" d="M165.7,260.27c5.6-16.57-14.92-23.25-11.23-45.39,1.48-8.87,8.5-30.12,8.4-38.16,0-.62-.12-5.76-2.35-6.54-.67-.24-1.21,0-1.66-.39-.61-.59-.09-1.58.22-2.88-1.65.35-3.24,3.78-2.44,4.79s3.75-.45,4,.07-1.6,1.68-6.28,4.93c-2.67,1.85-3.24,2.24-3.36,3.05-.33,2.1,2.86,3.31,2.55,5.75-.18,1.51-1.47,1.61-1.59,3.09-.2,2.42,3,4.09,2.58,4.91-.35.61-2-.54-4.35.2-1.57.5-1.7,1.32-3.28,1.61s-2.08-.46-3.08-.14c-2.4.77-2.37,5.9-3.23,5.89-.69,0-.27-3.41-2.38-5.61a7,7,0,0,0-7.47-1.53c-2.28,1.06-1.74,3-4.43,4.41a11.85,11.85,0,0,1-5.21,1c-2.75.11-3.51-.47-4.68.19-1.67,1-2,3.28-2.15,4.18-.63,4.22,2.14,7.64,2.55,8.13,2,2.45,3.06,1.56,5.34,4.35,1.57,1.92,1.79,3.21,3.46,4,1.26.57,1.59.06,3.78.31.77.09,1.57.25,7.48,2.58,2.83,1.12,3.06,1.25,3.71,1.19,2.42-.19,3.46-2.33,4.84-1.82,1,.36,1.52,1.79,1.16,2.35s-1.28,0-2.11.6-.41,1.26-1,2.45c-.92,1.79-2.59,2-2.46,2.8s1.82.66,2.13,1.67-1,1.67-.74,2.75c.13.59.63.93,1.63,1.5,3.46,1.95,4.68,1.86,4.91,2.69.34,1.25-2.27,2.06-2.35,4.39,0,1.42.9,2,.51,2.86-.46,1.08-2.38,1.76-3.91,1.31-2.19-.64-2.09-3.15-4.28-3.72-1.62-.41-2.71.7-3.35,0-.83-.85.78-3-.3-4.32a2.52,2.52,0,0,0-1.18-.75c-1.2-.36-2,.39-2.53,0s-.43-1.49-.19-2.26c.46-1.46,1.58-2,4.17-4,1.78-1.4,2.68-2.11,2.73-2.53.29-2.21-5.14-5.57-10.53-6.66-3.9-.78-5.27.14-8.29-1.44-2.08-1.08-3-2.33-4.58-2s-1.83,1.9-4,2.55c-1.83.54-2.31-.38-3.64.21-1.73.77-1.25,2.46-3.37,5.19-1.76,2.28-3.18,2.51-3.18,3.91a2.93,2.93,0,0,0,2.13,2.7c1.89.38,3.58-2.28,4.21-1.85s-1.33,4-.42,4.7c.22.17.5.08,1.54-.21a37.75,37.75,0,0,1,3.8-1c2-.08,2.39,1.53,3.77,1.22,1.65-.38,1.6-2.82,3.36-3.23a2.51,2.51,0,0,1,2.64,1c.79,1.62-1.89,4.76-4.28,6.61-3.86,3-6.86,2.48-7.61,4.82-.61,1.91,1.06,3.34,0,4.92-.86,1.29-2.32.84-3.07,2.24s.25,2.9-.53,3.48-1.9-.57-2.72,0-.06,2-.89,2.8a3,3,0,0,1-3.91-.51c-.89-1.21.28-2.87-.59-3.62s-2,.37-2.73-.21c-1.29-1,1.09-4.86-.29-6.1-.78-.71-2.35-.16-3,.05-1.37.48-2.12,1.37-3.41,3-1.72,2.12-2.71,3.34-2.5,4.8.18,1.28,1.14,1.86.81,2.5-.44.84-2.28.22-2.78,1.09s1,2,.54,2.83-2.52,1.06-3.71.07a2.13,2.13,0,0,1-.83-1.33c-.18-1.62,2.27-2.6,1.95-3.72-.2-.72-1.3-.65-1.4-1.33s1.36-1.08,1.69-2.38c.28-1.1-.62-1.48-.38-2.48.37-1.47,2.51-1.28,3-2.78.31-1-.59-1.4-.45-3.2.09-1.27.57-1.59.31-2.13-.4-.83-1.81-.54-3.89-.93-3-.58-3.07-1.8-5.55-2-2.32-.21-4.68.65-4.78,1.55-.08.73,1.32,1.14,1.21,2-.08.57-.71.58-1.83,1.6s-1.11,1.65-1.86,1.84-1.45-.44-2,0-.24.84-.69,1.19c-.79.62-2.11-.59-3,0-.43.28-.34.66-.69,1.4-.73,1.54-1.92,1.52-2.67,2.53-1.23,1.68-.48,5.2,1.4,7,1.48,1.37,3.09,1.13,3.32,2.19.29,1.29-2,2.21-1.71,3.48s2.68.91,3.67,2.7c.74,1.35-.17,2.34.6,3.22,1.1,1.24,3.43-.16,4.28.87,1.07,1.3-1.15,5.32-2.24,5.15-.55-.09-.39-1.15-1.57-2.23A6.63,6.63,0,0,0,64.58,275a10.76,10.76,0,0,0-3.1-1c-2.13-.06-3.67,2.21-6.35,6.17-2.19,3.23-2.28,4.38-1.88,5s1.46.74,1.53,1.38c.13,1-2.37,1.93-2.18,2.56.13.43,1.34.07,1.8.74s-.6,2.12-.1,2.66,1.4-.33,2.05.13,0,1.72.49,2.9c.37.9,1.34,1.55,5.61,2.61s5.71,1,5.82,1.64c.23,1.29-6.21,2.25-6.82,5.75-.22,1.26.44,2.14-.2,3.94-.51,1.4-1.29,1.93-1.07,2.51s1.06.92,3.93.72c-1.86,2.23-2.32,4.8-1.26,6.29.66.95,2.1,1.71,2.94,1.29s.47-2.16,1.54-2.72a2.09,2.09,0,0,1,2.24.43c1.1,1.1-.37,2.76.45,4.5,1.07,2.27,4.72,1.85,5,3.52.21,1.26-1.75,2.16-1.4,3s2.37,0,5.08.85,3.38,2.55,4.7,2.1a3.07,3.07,0,0,0,1.71-2.85c0-1.16-.83-1.66-.56-2.1.43-.71,2.47.69,4.76,0,2-.62,2.52-2.34,3.53-2.07s1.52,1.82,1.36,3.2c-.4,3.39-5.59,5.37-5.26,6,.18.36,1.73-.47,2.61.29s.16,2,1,2.58a2.4,2.4,0,0,0,2.63-.28c1.2-.88.75-2.26,1.65-2.72,1.07-.53,2,1.24,3.78,1.22,2.56,0,3.23-3.87,5.41-3.81,1.92.06,2.38,3.06,5,3.27,1.11.08,1.18-.45,2.5-.34,2,.18,2.45,1.49,4,1.51,1.85,0,2.32-1.81,3.48-1.58,2.06.42,1.3,6.38,4.17,7.56.95.4,1.13-.23,3.78-.48,4.17-.39,5.53,1,7.16-.16,1.1-.79.53-1.47,2.06-3.18s2.71-1.48,3.62-3a5.62,5.62,0,0,0,.36-4.38,3.68,3.68,0,0,0-1.79-2.5c-1-.38-1.55.24-1.91-.1-.89-.82,2.87-4.51,2-8.35a3.5,3.5,0,0,0-1.4-2.34c-1.35-.8-3.23,0-5.6,1-3.2,1.4-4,2.46-4.78,2.06-1.49-.76.43-4.9-1.36-6.31s-6.35.37-6.89,2.62c-.29,1.22.64,2.41-.11,3.38a2.27,2.27,0,0,1-1.43.73c-1.92.39-2.76-1.1-4.95-1.18a4.46,4.46,0,0,0-3,.84c-1.84,1.58-.9,4.85-1.71,5s-1.62-3.51-3.79-3.81c-1.32-.18-1.89,1.09-3.39.79a2.94,2.94,0,0,1-2.34-2.28c-.1-1.23,1.31-1.52,1.54-3.15s-.87-2.61-.45-3,1.34.75,2.69.56,1.43-1.47,2.73-1.77,1.87,1.11,4.13,1.48c2,.34,2.37-.68,4.21-.28,2.16.47,2.59,2.09,3.78,1.86,1.5-.29,1-2.93,2.8-4,2.57-1.57,6.18,2.45,8.83.86,1.68-1,1.28-3.27,2.94-3.72s2.9,1.51,3.84,1c1.27-.73-.58-4.44,1.2-6.11.79-.74,1.45-.31,2.66-1.18a6.08,6.08,0,0,0,2.1-3.4,3,3,0,0,1,.48-.88,57.73,57.73,0,0,1-2.14-6.49C139.91,284.46,160.77,274.84,165.7,260.27ZM60.49,290.83c-.29,0-1.41-.14-1.83-.87-.67-1.16.77-3.15,2-4.16s3.37-1.74,3.87-1.16c.24.28.09.84-.1,1.54a9.93,9.93,0,0,1-.77,1.74c-.68,1.48-.43,1.65-.88,2.13A3,3,0,0,1,60.49,290.83ZM65,295.49a3.61,3.61,0,0,1-3-.51,2.2,2.2,0,0,1-1-1.87,2,2,0,0,1,1.12-1.37,1.58,1.58,0,0,1,1-.2c.74.13.82.86,1.72,1.72s1.85,1,1.83,1.37S65.15,295.46,65,295.49Zm75.32-29.2c.26-.45,1.56-.1,1.71-.06,1,.26,2.15,1,2,1.59s-1,.77-1.7.68C141,268.34,140,266.79,140.28,266.29Zm-26.38-15c.42,0,.58.42,1.08.4s.65-.6,1.19-.8a2.41,2.41,0,0,1,2.61,1.42,2.33,2.33,0,0,1-.34,2.61c-.72.63-1.82.28-3.24-.17-1.24-.4-2.25-.72-2.43-1.53A1.7,1.7,0,0,1,113.9,251.31Zm-1.19,18.5c.43-.48,1.23-.16,1.53-.69a1.28,1.28,0,0,0,0-1c-.15-.6-.44-.68-.51-1.08-.13-.7.55-1.65,1.13-1.64s.58,1,1.48,1.3c.75.29,1.16-.22,1.87.11a1.76,1.76,0,0,1,1,1.25c.09.77-.62,1.07-1.71,2.73-.83,1.27-.72,1.57-1.24,1.87a2.73,2.73,0,0,1-3.41-.85A1.9,1.9,0,0,1,112.71,269.81ZM87.4,270.86c.49-.25,1.33.95,1.94.63.21-.11.19-.3.53-1.25s.47-1.35.72-1.55a1.79,1.79,0,0,1,1.94-.05c1.15.75,1,3.15.19,4.69a3.21,3.21,0,0,1-1.93,1.93,3,3,0,0,1-2.86-1.06C86.9,273,86.88,271.13,87.4,270.86ZM76.31,290.52a2.17,2.17,0,0,1,2.13-.35A2.55,2.55,0,0,1,80,291.79c.46,1.36-.21,3-.87,3.09-.46.06-.6-.68-1.42-.81s-1.12.4-1.52.15-.34-.72-.35-1.37C75.78,291.75,75.77,291,76.31,290.52Zm3.6,15.21c-.43.15-.67-.26-1.92-.35a3.51,3.51,0,0,0-1.17.05c-.8.2-.9.63-1.52.71a2,2,0,0,1-1.42-.46A2.24,2.24,0,0,1,73,303.5c.17-.71.93-1.06,2.43-1.77s2.34-1.09,3.35-.86a2.75,2.75,0,0,1,1.62,1C81.38,303.16,80.8,305.43,79.91,305.73Zm9.18,9.74c-.1.31-.55.43-.81.51-.9.25-1.26-.26-2-.05s-.73.95-1.37,1c-.28,0-.36-.11-1.72-1-.41-.27-.81-.55-1.22-.81-.9-.6-1-.66-1.11-.87-.2-.52.23-1.11.66-1.72A3.55,3.55,0,0,1,83.46,311a2.48,2.48,0,0,1,1.12-.1c1.09.15,1.32,1,3.09,2.78C88.63,314.61,89.23,315.05,89.09,315.47ZM127,301.18c-.65.53-1.16.39-1.93.68-1.44.54-1.94,1.88-2.56,2.75-1.08,1.51-2.21,1.17-8.08,3-5.11,1.59-6.57,2.57-8.07,1.65-.82-.51-1.41-1.43-2.47-1.36s-1.1.87-2,1c-1.65.18-2.59-2.49-3.82-2.22s-1,2.41-2,2.51c-.36,0-.57-.23-2.32-2.08-1.44-1.51-1.65-1.71-2.08-1.89-1-.41-1.41,0-2.23-.53a2.28,2.28,0,0,1-1.21-2c0-.18.14-.64,1.5-1.5,1.57-1,2.88-1.81,4.16-1.4,1,.33.91,1.1,2,1.4s1.42-.19,3.2-.53a7.66,7.66,0,0,1,2.75-.24c1.78.29,1.93,1.6,4.64,3.19,2.16,1.26,3.11,1,3.39,1,.81-.23,1.7-.94,1.69-1.65s-.71-.78-.72-1.4a2,2,0,0,1,2.17-1.64c.73.23.44,1.28,1.35,2.12a3.6,3.6,0,0,0,3.63.54c1.43-.63,1.25-2,2.66-2.37,1-.27,1.81.18,2.13-.29s-.2-.76,0-1.26c.34-.88,2.26-1,3.62-.68.64.16,1.29.32,1.55.87A2.23,2.23,0,0,1,127,301.18ZM129.79,255c-.31.85.72,1.39.56,2.55a1.88,1.88,0,0,1-1.13,1.53c-.8.25-1.6-.42-2-.74a5.85,5.85,0,0,1-1.81-4.25,1.68,1.68,0,0,1-1.14.45c-1,0-1.49-1.21-1.53-1.3-.78-1.76.84-4.62,3.07-5.79,1.24-.66,2.84-.86,3.17-.34s-.85,1.48-.45,2.55a2.36,2.36,0,0,0,1,1c1,.68,1.49.41,1.82.91a2.31,2.31,0,0,1-.4,2.27C130.41,254.58,130,254.46,129.79,255Zm3.34,6c-.7-.13-1.06-1.23-1.41-2.27a6.25,6.25,0,0,1-.23-2.72,2.47,2.47,0,0,1,.11-.43c.08-.26.38-1.14.85-1.27s.76.56,2.05,1.47c.94.67,1.16.56,1.36.91C136.6,258,134.45,261.25,133.13,261Zm7.27,32.17a2.84,2.84,0,0,1-2.61,1.65,2.8,2.8,0,0,1-2-1.25,4.06,4.06,0,0,1-.34-3.12,4.28,4.28,0,0,1,1.08-2.55c.69-.7,1.91-1.31,2.44-.91s-.21,1.44.45,2.66c.41.75.86.68,1.14,1.42A2.86,2.86,0,0,1,140.4,293.18Zm.28-19.63c-.6.13-1.33-1-1.64-1.7-.46-1.05-.66-2.75.11-3.18a1.67,1.67,0,0,1,1.7.45,2.79,2.79,0,0,1,.63,2.33C141.46,271.7,141.37,273.4,140.68,273.55Z"/><path class="cls-2" d="M175.5,282.79c6.12-7.44,1.38-20.27-3.94-38.78-5.42-18.9-13.8-18.33-13.66-28,.23-15.24,10.63-20.61,8-35.69-1-5.67-4-13.57-6.59-13.43a1.08,1.08,0,0,0-.19,0c-.31,1.3-.83,2.29-.22,2.88.45.43,1,.15,1.66.39,2.23.78,2.34,5.92,2.35,6.54.1,8-6.92,29.29-8.4,38.16C150.78,237,171.3,243.7,165.7,260.27c-4.93,14.57-25.79,24.19-24.67,31.82a57.73,57.73,0,0,0,2.14,6.49C146.53,294.21,169.43,290.17,175.5,282.79Zm-14.17-5a1.63,1.63,0,0,1,1.54.34,1.43,1.43,0,0,1,.34,1.53,1.55,1.55,0,0,1-1.53.85c-.86,0-1.75-.81-1.65-1.59S160.85,277.92,161.33,277.81ZM142.1,289.49c-.19-.94.77-1.86,1.42-2.44,2.58-2.27,12.37-9.67,14.41-7.49a1.88,1.88,0,0,1,.34,1.93,1.58,1.58,0,0,1-1.13.57c-2.3.47-3.81.78-4.43,1.65s.17,1.67-.62,2.83a3.36,3.36,0,0,1-1.59,1.19c-1.75.72-2.73-.31-3.75.4s-.44,1.61-1.53,2.33a2.19,2.19,0,0,1-1.82.34A1.88,1.88,0,0,1,142.1,289.49Z"/><path class="cls-2" d="M184.21,112.89c-.58-1.85-.61-2.67-1.2-4.52,0-.16-2.7-1.86-2.74-2a12.48,12.48,0,0,0-4.42-.55c-2,.6,1.3,11.53.71,22.27-.63,11.65-4.82,16.41-2.12,18.94s8.39-.32,13.33-1.12c4.81-2.61,1.86-7.92.85-11.66C186.13,125,186,118.42,184.21,112.89Z"/><path class="cls-2" d="M298.8,232.7c.13,0-.24.84.23,1.52.68,1,2.36,2,3.56,1.33.07,0,1.31,1,1.14,1.94-.11.7-.84.69-1.18,1.33-.73,1.35,1.65,2.9,1.9,5.61.23,2.47-1.44,4.58-1.67,4.51s.72-1.55-.09-2.57c-.5-.63-.7-1.67-2.85-1.56-2,.09-2.11-3.07-2.42-4.47C296.5,236.26,298.52,232.64,298.8,232.7Z"/><path class="cls-3" d="M205.6,100.5a1.63,1.63,0,0,0,1.83-.85c.49-1.07-1-2.16-.53-3.13.17-.41.72-.89,2.52-1a3.1,3.1,0,0,0-3-1.59c-1.81.43-1.81,3.65-1.81,3.93C204.64,98.38,204.65,100.16,205.6,100.5Z"/><path class="cls-3" d="M195.06,262.46c1.2.44,1.87-.32,2.42,0,1.36.79-1.37,6.38.13,7.46a2,2,0,0,0,2.15-.4c.43-.37,1-1.15-.2-7.53-.46-2.56-.78-3.76-1.48-3.9s-.87.71-2.15,1-2-.34-2.49.13-.12,1.55.27,2.15A2.78,2.78,0,0,0,195.06,262.46Z"/><path class="cls-3" d="M289.26,235.47a2.4,2.4,0,0,0-2.38.44c-.72.61-.48,1.22-1.06,1.54-.86.47-1.66-.73-3-.51a2.69,2.69,0,0,0-2.22,2.49,2.24,2.24,0,0,0,1.06,1.5c.23.14.67.35,2.4.24a21.2,21.2,0,0,1,2.57-.26c1.55.13,1.88,1,2.64.71,1-.35,1.36-2.21,1.29-3.38C290.51,237.63,290.42,236,289.26,235.47Z"/><path class="cls-3" d="M295.83,175.12c-.13-.11-.38-.22-1.45,0-2.74.65-3.45,1.89-4.66,1.67-1.41-.26-1.65-2.18-2.26-2-.82.19-1.51,4,.42,6.29a4,4,0,0,0,2.67,1.53c2.15.15,3.63-2,4.17-2.75C295.86,178.21,296.62,175.76,295.83,175.12Z"/><path class="cls-3" d="M294.86,217.29a2.37,2.37,0,0,0,.8.62,2.11,2.11,0,0,0,1.56.14c.65-.28.78-1.21,1-3.68A36.11,36.11,0,0,1,299,209c.34-1.34.46-1,1-2.85a26.44,26.44,0,0,0,1.22-8.2c0-.84,0-1.26-.07-1.28C300.74,196.59,299,202,294.86,217.29Z"/><path class="cls-3" d="M290.28,209.85c-.37,0-1,1-2.12,5.42.56,1.14,1.42,1.79,2.15,1.67a1.41,1.41,0,0,0,.84-.56c.34-.43.56-1.13-.18-4.41C290.66,210.58,290.49,209.88,290.28,209.85Z"/><path class="cls-3" d="M304.66,154.49a2.4,2.4,0,0,0,2.29-.31c.36-.42.17-.87.07-2.3a32.55,32.55,0,0,1,.07-4.76c.09-1.09.17-1.35,0-1.42-.55-.28-2.57,3.23-3.54,5.18-.48,1-.79,1.71-.49,2.43A2.43,2.43,0,0,0,304.66,154.49Z"/><path class="cls-3" d="M313.84,235.57a2.11,2.11,0,0,0-.82,1.85c.09.85.76,1.1.61,1.69s-.58.43-1.16,1.24a1.57,1.57,0,0,0-.45,1.14c.13.63,1.07.9,1.14.92,1.59.44,3.88-1.1,4.56-3.12a2.81,2.81,0,0,0,.11-1.92C317.29,235.81,315,234.78,313.84,235.57Z"/><path class="cls-3" d="M315.16,232c1.38.07,1.73.18,2.06-.11s.44-.7.24-2.51c-.3-2.72-.47-4.1-1.48-4.67-.46-.26-1.2-.41-1.53-.1s.24,1.49-.34,2.48a2,2,0,0,1-.88.76c-1.19.58-2-.47-3.3-.1a2.62,2.62,0,0,0-1.82,2.27,2.33,2.33,0,0,0,1.14,2.16c.63.32,1,0,2.61-.18A22.69,22.69,0,0,1,315.16,232Z"/><path class="cls-3" d="M344.73,159.41c-1,.45.15,3.19-1.52,6.18a3.32,3.32,0,0,1-1.69,1.75c-1.15.39-2-.45-2.79.06-.6.39-.26,1-.85,2.12-.86,1.7-2.31,1.79-2.36,3a2.05,2.05,0,0,0,.67,1.45,2.8,2.8,0,0,0,2.9.73c1.67-.71,1.18-5.82,3.11-5.29,2.24.6,3.58-.37,5.19-2.28,1.29-1.53,1.16-4.26-.06-6C346.72,160.25,345.46,159.08,344.73,159.41Z"/><path class="cls-3" d="M298.82,161.57c-.5-.17-1.23-.41-1.7,0s-.33,1.58-.31,1.67a6,6,0,0,1-1.5-1.74c-.6-1.08-.51-1.78-1.28-3.47-.61-1.35-.92-1.47-1.08-1.5-.67-.13-1.55.71-1.77,1.63a2.43,2.43,0,0,0,.38,1.85c-.46-.28-3.47-2-5.49-1.32a2,2,0,0,0-1.18.83,2.17,2.17,0,0,0,0,1.74,3,3,0,0,0,1.67,1.87c1.28.42,2-.82,3.71-.52a3.37,3.37,0,0,1,1.7.8c1,.93.55,1.84,1.39,2.71s1.59.11,3.09,1.08a18.22,18.22,0,0,1,2.51,2.39c.73.76.84.92,1.07.94,1.5.1,2.84-4.39,3-5A8.86,8.86,0,0,0,298.82,161.57Z"/><path class="cls-3" d="M327.72,199.82a1.48,1.48,0,0,0-1.25-.56,1.44,1.44,0,0,0-1.08.52c-.2.3-.13.55,0,1.53.07.73.14,1.64.17,2.22.06,1.15,0,1.32.18,1.53a2,2,0,0,0,2.67-.38c.25-.59-.6-.93-.76-2.23S328.2,200.49,327.72,199.82Z"/><path class="cls-3" d="M360.77,152.87c-1.23-.77-1.35-2.37-1.69-2.3s.24,1.89-.55,3.75-2.16,1.76-3,3.94a3.12,3.12,0,0,0-.06,2.66,1.9,1.9,0,0,0,1.21.91c1.34.19,2.64-1.85,3.27-2.84,1.18-1.85.85-2.39,1.94-3.64s2.37-1.72,2.24-2.06S362.19,153.76,360.77,152.87Z"/><path class="cls-3" d="M318.41,161.89a3.35,3.35,0,0,0-.94,1.45c-.44,1.17-.19,1.93-.48,2s-.7-.2-1.91-2l-1.74,3.3a3.73,3.73,0,0,0,1.74,1.22,4.41,4.41,0,0,0,3.5-.59,7.51,7.51,0,0,0,3.44-5C320.68,161.46,319.25,161.25,318.41,161.89Z"/><path class="cls-3" d="M306.29,188.77a3.65,3.65,0,0,0-3,.94A2.87,2.87,0,0,0,302,191.9a2.09,2.09,0,0,0,.45,1.11,2.12,2.12,0,0,0,1.32.69c1,.12,1.24-.57,2.26-.69,1.3-.15,1.91.84,2.33.55C309,193.07,308.46,189.36,306.29,188.77Z"/><path class="cls-3" d="M319.8,174.29c-.65-.16-1.65-.16-4.13,1.28-1.9,1.1-2.24,1.63-2.82,1.43-.8-.29-.76-1.54-2-2.09a1.45,1.45,0,0,0-.9-.17c-1.24.22-1.68,2.45-1.74,2.78a4.07,4.07,0,0,0,.17,2.67,3.87,3.87,0,0,0,2.12,1.91c.89.36,2.22.53,2.47.07s-.73-1-.63-2.08a2.13,2.13,0,0,1,.59-1.22c1.24-1.31,3.31.2,5.53-.87,1.51-.73,2.62-2.43,2.25-3.19C320.54,174.47,320.11,174.36,319.8,174.29Z"/><path class="cls-3" d="M184.9,218.82c.36.17.54-.06,1.55-.13s1.21.16,1.67,0c.91-.31,1.66-1.64,1.29-2.38s-1.58-.63-2.7-.58-2.06.11-2.45.78A1.83,1.83,0,0,0,184.9,218.82Z"/><path class="cls-3" d="M178.73,198.36a1.56,1.56,0,0,0,1,1.42,1.76,1.76,0,0,0,1.61-.2c.93-.55,1.49-1.89,1-2.51-.35-.46-1.19-.35-1.48-.32C180.07,196.85,178.76,197.37,178.73,198.36Z"/><path class="cls-3" d="M180.85,218.57c-2.44-.14-2.58,1.16-5.34,1.54-3,.4-3.63-1-6.95-.39-1.48.28-1.76.63-2.7.45-2.31-.42-3.08-3-4.06-2.7s-.93,2.39-.9,3.28a7.88,7.88,0,0,0,1.48,4.12c1.2,1.69,3.68,3.9,5.41,3.28.76-.27,1-1,1.93-1s1.09.46,1.93.39c1.21-.1,1.76-1.28,2.12-1.09.56.28-.85,3.11,0,3.79.43.35,1-.22,2.64-.38,1.85-.19,2.59.38,3-.07.67-.8-1.52-2.88-.77-4.18.55-1,2.22-.67,2.38-1.42s-1.51-1.58-1.35-1.93c.25-.54,4.3,1.44,5.27.26.55-.67-.16-2-.19-2.06C183.78,218.73,181.38,218.6,180.85,218.57Z"/><path class="cls-3" d="M266.88,147.14c1.15.46,2.78-1,3.41-2.38a3.33,3.33,0,0,0,0-3c-.4-.6-1.17-1.11-1.54-.9-.54.29.25,1.79-.45,2.44s-1.77-.19-2.39.45a1.9,1.9,0,0,0-.19,1.61C265.75,145.49,266,146.8,266.88,147.14Z"/><path class="cls-3" d="M230,144.5c-.55.14-.18,1.78-1,2.32s-2.42-.68-2.7-.32.78,1.77,2.19,2.77c.69.49,2.29,1.63,3.15,1.09s.45-3.13-.39-4.63C231.13,145.55,230.49,144.39,230,144.5Z"/><path class="cls-3" d="M238.31,134.92c.49-.23.32-.7.9-1.29,1-1,2.22-.45,2.57-1.16a1.67,1.67,0,0,0-.83-1.86,2.29,2.29,0,0,0-2.06.06c-.88.38-.92.91-1.42.9-.73,0-.8-1.14-1.93-1.61-.69-.28-1.64-.26-1.93.19,0,.08-.19.34.13,1.16a5.83,5.83,0,0,0,2,2.51C236.62,134.49,237.59,135.24,238.31,134.92Z"/><path class="cls-3" d="M172.94,214.77a2.6,2.6,0,0,0,1.6-1.61,2.07,2.07,0,0,0-.77-2.06c-.7-.49-1.29,0-1.74-.51-.58-.62.18-1.68-.38-2.26a1.84,1.84,0,0,0-2.13.07c-1,.74-.7,2.3-1.35,2.44s-.87-1-1.8-1a1.38,1.38,0,0,0-1.22.71c-.33.68.25,1.54.51,1.93C167.07,214.6,170.5,215.91,172.94,214.77Z"/><path class="cls-3" d="M176,176.81a1.92,1.92,0,0,0,.06,2.25,2.29,2.29,0,0,0,1.81.83c1.31.08,2.78-.79,2.76-1.54C180.56,177.19,177,175.77,176,176.81Z"/><path class="cls-3" d="M202.6,219.85a2.08,2.08,0,0,0-.26-2.44c-.41-.46-.7-.26-1.48-.84a14.42,14.42,0,0,1-1.48-1.54c-.93-1-1.11-1-1.22-1-.63.05-1.12,1.23-1.16,2.19a3.55,3.55,0,0,0,.84,2.32C199.14,220.15,201.81,220.76,202.6,219.85Z"/><path class="cls-3" d="M254.4,151c-1-.11-1.36.56-2.32.32-1.5-.36-1.65-2.28-2.83-2.31a1.7,1.7,0,0,0-1.42,1,1.92,1.92,0,0,0,.39,2.26c.87.7,2.23-.23,2.64.32s-1.14,2-.65,3c.31.6,1.1.32,2.32.9a4.9,4.9,0,0,1,1.44,1c.82.83,1.19,1.66,1.52,1.53s-.29-1.61.45-3.15c.55-1.15,1.32-1.13,1.42-1.93a2.11,2.11,0,0,0-.52-1.45A3.85,3.85,0,0,0,254.4,151Z"/><path class="cls-3" d="M172.81,175.2c1.67,0,1.69-.12,2.38-.07,1.34.11,1.52.6,2.44.45s1.68-.76,1.61-1.09-1.08-.06-1.93-.77c-.69-.58-.61-1.26-1.09-1.35s-.91.83-1.61.77-.61-.73-1.22-.84c-.8-.14-1.66.84-2,1.61-.13.29-.3.68-.13,1S171.84,175.2,172.81,175.2Z"/><path class="cls-3" d="M179.82,194.05c.21-.6-.89-1-1.61-2.7-.58-1.4-.33-2.3-.71-2.38s-1.49,1.31-1.6,2.83a2.85,2.85,0,0,0,.83,2.57C177.8,195.16,179.58,194.74,179.82,194.05Z"/><path class="cls-3" d="M175.38,207.5a2.71,2.71,0,0,0-.32,2.38,2.06,2.06,0,0,0,1.09,1.09c1.42.52,3.55-1.06,4.31-3a5,5,0,0,0,.26-2.64c-.36-2.81-2.61-5.59-3.92-5.27-.82.2-1.41,1.62-1.29,2.77.16,1.58,1.66,2.23,1.35,3.21C176.66,206.72,176,206.55,175.38,207.5Z"/><path class="cls-3" d="M270.74,161.94a9.69,9.69,0,0,1-3.09-2.51c-1.48-1.72-1.41-2.67-2.64-3.22-.91-.4-2.09-.37-2.31.07s1.37,1.3,1.8,3.22c.33,1.46-.45,1.89,0,2.83.77,1.63,3.55,1.22,3.86,2.51.22.91-1,1.7-.71,2.18s2-.55,3.48.13,1.39,2.84,2,2.83c.95,0,2.56-5.29.64-7C273,162.31,272.43,162.77,270.74,161.94Z"/><path class="cls-3" d="M302.82,233.63c1-1.25,1.72-1.31,2.46-2.25,1.17-1.52.31-2.57,1-4.21,1.49-3.46,7.8-4.4,8.93-4.57,2.41-.36,4-.09,4.71-1.22a3,3,0,0,0-.21-3c-1.07-1.7-3-1-4.79-2.33-2.9-2.15-2.28-7.45-2.18-8.31a15.15,15.15,0,0,1,3.78-8c1.93-2.08,3.46-2.43,4.15-4.58s.12-4.28-.55-4.42-1,2.14-3.39,4.24c-1.53,1.32-2.27,1.14-2.94,2.31s-.17,1.7-.47,4.23c-.25,2.06-.49,4-1.75,4.73s-3-.24-3.25.31,1.26,1.26,1.16,2.51a2.45,2.45,0,0,1-1.69,1.88,3.12,3.12,0,0,1-2.09-.18c-3-1.28-2.06-8.77-2.59-8.79-.28,0-.38,1.93-1.47,4.73-.26.66-.51,1.21-.69,1.59a5.79,5.79,0,0,1,1.74,2.27c.51,1.26.13,1.8.43,4,0,.28.29,1.4.8,3.64a13.3,13.3,0,0,1,.59,2.9,7.11,7.11,0,0,1-2.3,4.32c-1.39,1.33-2.34,1.33-2.61,2.39s.48,1.12.49,2.53c0,1.72-1.07,2.42-.64,3.67a2.65,2.65,0,0,0,.75,1.07,3.85,3.85,0,0,1,.91,2.08,5.92,5.92,0,0,1,.26-1A9.48,9.48,0,0,1,302.82,233.63Z"/><path class="cls-3" d="M301.35,240.12a14.27,14.27,0,0,0-.22-2.91A7.44,7.44,0,0,0,301.35,240.12Z"/><path class="cls-2" d="M261.91,141.73c.62-.64,1.75.15,2.39-.45s-.09-2.15.45-2.44c.37-.21,1.14.3,1.54.9a3.33,3.33,0,0,1,0,3c-.63,1.41-2.26,2.84-3.41,2.38-.88-.34-1.13-1.65-1.16-1.8A1.9,1.9,0,0,1,261.91,141.73ZM269.12,168c-.6,0-.46-2.1-2-2.83s-3.11.45-3.48-.13.93-1.27.71-2.18c-.31-1.29-3.09-.88-3.86-2.51-.45-.94.33-1.37,0-2.83-.43-1.92-2.1-2.64-1.8-3.22s1.4-.47,2.31-.07c1.23.55,1.16,1.5,2.64,3.22a9.69,9.69,0,0,0,3.09,2.51c1.69.83,2.29.37,3,1C271.68,162.69,270.07,168,269.12,168Zm36.13,62.18a2.33,2.33,0,0,1-1.14-2.16,2.62,2.62,0,0,1,1.82-2.27c1.26-.37,2.11.68,3.3.1a2,2,0,0,0,.88-.76c.58-1-.14-2,.34-2.48s1.07-.16,1.53.1c1,.57,1.18,1.95,1.48,4.67.2,1.81.06,2.26-.24,2.51s-.68.18-2.06.11a22.69,22.69,0,0,0-3.3,0C306.22,230.13,305.88,230.48,305.25,230.16Zm8.47,7.13c-.68,2-3,3.56-4.56,3.12-.07,0-1-.29-1.14-.92a1.57,1.57,0,0,1,.45-1.14c.58-.81,1-.77,1.16-1.24s-.52-.84-.61-1.69a2.11,2.11,0,0,1,.82-1.85c1.17-.79,3.45.24,4,1.8A2.81,2.81,0,0,1,313.72,237.29Zm-14.14-88.41c1-1.95,3-5.46,3.54-5.18.14.07.06.33,0,1.42a32.55,32.55,0,0,0-.07,4.76c.1,1.43.29,1.88-.07,2.3a2.4,2.4,0,0,1-2.29.31,2.43,2.43,0,0,1-1.57-1.18C298.79,150.59,299.1,149.83,299.58,148.88Zm-14.32,90.74c-.76.25-1.09-.58-2.64-.71a21.2,21.2,0,0,0-2.57.26c-1.73.11-2.17-.1-2.4-.24a2.24,2.24,0,0,1-1.06-1.5,2.69,2.69,0,0,1,2.22-2.49c1.35-.22,2.15,1,3,.51.58-.32.34-.93,1.06-1.54a2.4,2.4,0,0,1,2.38-.44c1.16.51,1.25,2.16,1.29,2.77C286.62,237.41,286.29,239.27,285.26,239.62Zm1.89-25.24a1.41,1.41,0,0,1-.84.56c-.73.12-1.59-.53-2.15-1.67,1.13-4.47,1.75-5.46,2.12-5.42.21,0,.38.73.69,2.12C287.71,213.25,287.49,214,287.15,214.38Zm-.6-33.79a4,4,0,0,1-2.67-1.53c-1.93-2.3-1.24-6.1-.42-6.29.61-.13.85,1.79,2.26,2,1.21.22,1.92-1,4.66-1.67,1.07-.25,1.32-.14,1.45,0,.79.64,0,3.09-1.11,4.72C290.18,178.62,288.7,180.74,286.55,180.59ZM297.22,196a27.49,27.49,0,0,1-1.39,8.15c-.58,1.84-.53,1.56-.87,2.9a36.11,36.11,0,0,0-.69,5.35c-.27,2.47-.4,3.4-1,3.68a2.11,2.11,0,0,1-1.56-.14,2.37,2.37,0,0,1-.8-.62c4.13-15.34,5.88-20.7,6.29-20.6C297.23,194.71,297.23,195.13,297.22,196Zm-4.41-34.76c0-.09-.28-1.19.31-1.67s1.2-.14,1.7,0a8.86,8.86,0,0,1,4.2,3.89c-.18.65-1.52,5.14-3,5-.23,0-.34-.18-1.07-.94a18.22,18.22,0,0,0-2.51-2.39c-1.5-1-2.21-.18-3.09-1.08s-.38-1.78-1.39-2.71a3.37,3.37,0,0,0-1.7-.8c-1.73-.3-2.43.94-3.71.52a3,3,0,0,1-1.67-1.87,2.17,2.17,0,0,1,0-1.74,2,2,0,0,1,1.18-.83c2-.68,5,1,5.49,1.32a2.43,2.43,0,0,1-.38-1.85c.22-.92,1.1-1.76,1.77-1.63.16,0,.47.15,1.08,1.5m14.31,35.56c-.42.29-1-.7-2.33-.55-1,.12-1.29.81-2.26.69a2.12,2.12,0,0,1-1.32-.69,2.09,2.09,0,0,1-.45-1.11,2.87,2.87,0,0,1,1.32-2.19,3.65,3.65,0,0,1,3-.94C304.46,187.36,305,191.07,304.34,191.56ZM314.45,176c-2.22,1.07-4.29-.44-5.53.87a2.13,2.13,0,0,0-.59,1.22c-.1,1.06.86,1.64.63,2.08s-1.58.29-2.47-.07a3.87,3.87,0,0,1-2.12-1.91,4.07,4.07,0,0,1-.17-2.67c.06-.33.5-2.56,1.74-2.78a1.45,1.45,0,0,1,.9.17c1.25.55,1.21,1.8,2,2.09.58.2.92-.33,2.82-1.43,2.48-1.44,3.48-1.44,4.13-1.28.31.07.74.18.9.52C317.07,173.57,316,175.27,314.45,176Zm.13-10.73a4.41,4.41,0,0,1-3.5.59,3.73,3.73,0,0,1-1.74-1.22l1.74-3.3c1.21,1.85,1.69,2.14,1.91,2s0-.88.48-2a3.35,3.35,0,0,1,.94-1.45c.84-.64,2.27-.43,3.61.34A7.51,7.51,0,0,1,314.58,165.27Zm9.8,37.41a2,2,0,0,1-2.67.38c-.19-.21-.12-.38-.18-1.53,0-.58-.1-1.49-.17-2.22-.1-1-.17-1.23,0-1.53a1.44,1.44,0,0,1,1.08-.52,1.48,1.48,0,0,1,1.25.56c.48.67-.27,1.31-.1,2.63S324.63,202.09,324.38,202.68Zm19-37.58c-1.61,1.91-2.95,2.88-5.19,2.28-1.93-.53-1.44,4.58-3.11,5.29a2.8,2.8,0,0,1-2.9-.73,2.05,2.05,0,0,1-.67-1.45c.05-1.18,1.5-1.27,2.36-3,.59-1.14.25-1.73.85-2.12.79-.51,1.64.33,2.79-.06a3.32,3.32,0,0,0,1.69-1.75c1.67-3,.51-5.73,1.52-6.18.73-.33,2,.84,2.6,1.69C344.55,160.84,344.68,163.57,343.39,165.1Zm14.53-11.75c-1.09,1.25-.76,1.79-1.94,3.64-.63,1-1.93,3-3.27,2.84a1.9,1.9,0,0,1-1.21-.91,3.12,3.12,0,0,1,.06-2.66c.81-2.18,2.17-2,3-3.94s.17-3.68.55-3.75.46,1.53,1.69,2.3c1.42.89,3.23,0,3.39.42S359.05,152.06,357.92,153.35Zm-101.58,31c-.69,1.4-2.35,1.37-3,3.22a4.94,4.94,0,0,0,.09,2.88c.76,2.89,2.39,3.59,3.43,5.5,2.27,4.17-1.83,7.52.47,11.79,1.06,1.94,3.22,3.66,4.34,3.19,2.26-.95,0-10.57,3.05-13.43.07-.07,1.35-1.25,1.92-.91.35.2.14.79.58,1.14s1.28-.12,1.63.22-.61,1.56-.22,2.44c.52,1.16,3,.51,3.53,1.72.29.6-.22.93-.29,2.29-.08,1.82.81,2.2.62,3.21-.36,1.95-3.91,1.65-4.67,3.75a3.89,3.89,0,0,0,2.13,4.4c2,.88,4.24-.71,5.21-2.15A5.2,5.2,0,0,0,276,211c3.31-.57,4.29-.31,4.46.11s-1,1.11-1.25,2.58c-.18,1.3.7,1.56.81,3.3s-.67,2-.3,3.13c.45,1.35,1.86,1.51,1.82,2.37s-1.35,1.38-2.05,1.67c-2.5,1.07-3.89.2-5.55,1.27a4.51,4.51,0,0,0-1.58,1.84c1.09-.63,2.16-1.26,2.78-.86,1.22.78-1.2,4.19-.19,8.31.77,3.12,3.4,7.09,6.58,8.21,4,1.42,7.54-1.6,8.7.19.46.7.2,1.44.15,2.29h.2a4.73,4.73,0,0,0,2.7,1,2.26,2.26,0,0,0,1.73-.43c.55-.57.16-1.31.71-2.15a2.58,2.58,0,0,1,1.27-1,39.23,39.23,0,0,0,.32-4.69,7.44,7.44,0,0,1-.22-2.91,3.85,3.85,0,0,0-.91-2.08,2.65,2.65,0,0,1-.75-1.07c-.43-1.25.64-1.95.64-3.67,0-1.41-.72-1.58-.49-2.53s1.22-1.06,2.61-2.39a7.11,7.11,0,0,0,2.3-4.32,13.3,13.3,0,0,0-.59-2.9c-.51-2.24-.77-3.36-.8-3.64-.3-2.23.08-2.77-.43-4a5.15,5.15,0,0,0-1.49-2.21c.19-.39.18-1,.44-1.65,1.09-2.8,1.08-4.27,1.35-4.26.53,0-.26,7,2.71,8.32a3.12,3.12,0,0,0,2.09.18,2.45,2.45,0,0,0,1.69-1.88c.1-1.25-1.42-2-1.16-2.51s2,.42,3.25-.31,1.5-2.67,1.75-4.73c.3-2.53-.19-3.09.47-4.23s1.41-1,2.94-2.31c2.43-2.1,2.69-4.37,3.39-4.24s1.2,2.4.55,4.42-2.22,2.5-4.15,4.58a15.15,15.15,0,0,0-3.78,8c-.1.86-.72,6.16,2.18,8.31,1.77,1.32,3.72.63,4.79,2.33a3,3,0,0,1,.21,3c-.71,1.13-2.42.49-4.82.85-1.14.17-7.33,1.48-8.82,4.94-.71,1.64.15,2.69-1,4.21-.74.94-1.43,1-2.46,2.25a9.48,9.48,0,0,0-1.43,2.58,5.92,5.92,0,0,0-.26,1,14.27,14.27,0,0,1,.22,2.91,25.43,25.43,0,0,1,.84,5.62c0,1.44-.09,1.61,0,3.35.14,2.91.23,4.38,1.2,5.4a3.47,3.47,0,0,0,.92.67,15,15,0,0,1,2.78,0,3,3,0,0,1,.6-2.31c.68-.7,1.43-.39,2.18-1.08,1.24-1.12.64-3.24,1.13-3.35s1.08,3.45,3.21,4.1c1.17.35,1.88-.47,3.12.11s1.13,1.49,1.86,1.68,1.19,0,3.28-3.19c-.36-.15-.26-.71-.91-.92-3.36-1.08-5-.6-5.54-1.58a2.58,2.58,0,0,1,.86-2.73c1.13-1,2.06-1.41,4.25-1,3.4.65,2.07-.84,3.55-1.23,1.67-.45,2-.31,2.5-.87s-.95-1.91-.78-4.16c.11-1.5.86-1.9.53-2.79-.49-1.34-2.48-1.16-2.62-2s2.22-1.38,4.24-3.78c1.54-1.84,2-3.74,2.31-3.64.51.15-.83,3.73.75,5.1a2.74,2.74,0,0,0,2.38.45c1.38-.36,1.33-1.61,2.7-2.08s1.7.45,3.18.1,2.77-1.55,2.65-2.49c0-.15-.09-.36-1.34-1.42-1.54-1.3-1.8-1.29-1.95-1.71-.36-1.07,1.11-1.66,1.25-3.3.17-1.94-1.75-2.74-1.35-4s2.6-.58,4.45-2.27.77-3.1,2.54-5,4.2-1.75,4.24-2.79c0-.82-1.4-1.73-2.68-1.91-1.57-.22-2.18.76-3.06.37-1.53-.68-.87-4.13-1.87-4.36-.65-.15-1.59,1.12-2,2.22-.66,1.65,0,2.37-.48,3.76s-2.12,3-3.86,2.8c-2.25-.22-3.76-3.23-3.18-4.07s2.68.57,3.62-.43c1.09-1.16-.4-4.42-.63-4.93a20.7,20.7,0,0,1-1.45-3.08,11.48,11.48,0,0,1-.46-2.24c-.5-3.95.68-4.93-.2-6.32s-2.52-.91-3.22-2.48c-.47-1.08-.26-2.56.43-2.93.5-.26.91.24,2.52.75a6.33,6.33,0,0,0,3.84.34,4.21,4.21,0,0,0,1.64-1,5.61,5.61,0,0,0,2.91,2.86c.3.12,2.78,1.1,3.92-.2a2.88,2.88,0,0,0,.43-2.4,3.77,3.77,0,0,0,2.39-.2c1-.46,1.15-1.21,2-2.1.21-.24,1.9-2.05,3.8-2.1,2.42-.06,3.61,2.8,5.41,2.23.87-.27,1.23-1.16,1.8-1s.39,1.42,1.16,1.84,1.73-.65,2.55-.22.35,1.8,1.21,2.35a2.57,2.57,0,0,0,2.93-.76c.88-1.05,0-1.95.73-3.43.88-1.78,2.67-1.5,3.18-3.16.33-1.06-.36-1.35-.11-2.68.31-1.61,1.39-1.56,2.19-3.28,1-2.17-.21-3.27,1-5,.79-1.2,2-1.69,1.83-2.06s-1.52.26-2.12-.33c-.92-.91,1.28-3.52.23-5.13-.36-.54-.73-.41-1.82-1-1.76-1-3.9-3.11-3.45-4.38.36-1,2.44-1.63,3.87-1,1.72.75,1.76,2.94,2.44,2.9.91-.07,2.37-4,1-7.32-.83-2-2.12-2.33-2.32-4.35-.19-1.81.72-2.78,0-3.7s-2.25-.46-2.79-1.47.45-2-.07-2.54-1.61-.13-2,0c-2.68.86-3.06,3.07-4.56,3-1.34,0-1.55-1.82-2.86-1.84-1.48,0-1.6,2.28-3.85,3.49-2.44,1.31-4.93,0-5.5,1.16-.33.67.47,1.13.55,2.77,0,.26.11,2.51-1.16,3.45s-2.1-.24-4.55.17-2.5,1.54-3.75,1.31c-2.19-.4-2.09-4-4.52-4.66-1.36-.36-2.73.44-3.81,1.08-2.64,1.56-3.19,3.77-4.45,3.57-1.06-.17-1.16-1.83-2.12-1.84s-2,1.49-1.88,2.81,1.34,2,1.14,2.28-2.9-.15-3.74-1.88.71-3.47-.29-4.62c-.64-.74-1.44-.19-2.12-1-.88-1,.2-2.23-.53-4.38-.43-1.28-.91-1.13-1.16-2.22-.42-1.83.87-2.5.73-4.2-.2-2.65-3.59-4.41-3.92-4.58-2-1-2.86-.31-4.11-1.41-1.5-1.32-.74-2.72-2.12-4a5.32,5.32,0,0,0-6.13-.47c-1.57,1.08-2.12,3.32-2.44,4.62-.38,1.52-.39,2.91-1,3-.42.09-.62-.6-1.52-.84a2.48,2.48,0,0,0-2.26.56,2.38,2.38,0,0,0-.77,2.23c.29,1.22,1.65,1.23,2.12,2.6.2.59,0,.76,0,1.83,0,2.62,1.12,4.08.64,4.45s-2.2-1.37-2.83-.91.45,2.32-.13,2.75-2-.36-2.75-1.62-.12-1.87-.36-4.47c-.15-1.73-.28-3.09-1.13-3.55s-1.91.69-3,.22c-1.51-.66-1.81-4.08-.95-4.55.71-.38,1.7,1.53,3.58,1.36a3.51,3.51,0,0,0,2.34-1.45,3.86,3.86,0,0,0,.55-2.79c-.27-1.22-1-1.17-1.37-2.47-.42-1.45.27-2.24-.33-2.87s-1.36-.07-1.91-.65c-.72-.75.24-2-.42-3.25a3,3,0,0,0-1.74-1.25,7.51,7.51,0,0,0-1.14-.35,7.2,7.2,0,0,1,1.08,1.8c1.61,5-15.54,10.77-26.77,23.5a70.28,70.28,0,0,0-7.53,10.71,2.11,2.11,0,0,1,.52,1.45c-.1.8-.87.78-1.42,1.93-.74,1.54,0,3-.45,3.15s-.7-.7-1.52-1.53c-3.2,5.59-5.8,9.64-9.39,9.26-2.07-.22-4-1.87-6.07-.79a5.37,5.37,0,0,0-2.21,2.84,9.5,9.5,0,0,1,4,.31c2.4.73,3.38,2.17,5.71,2.33a6.83,6.83,0,0,0,3-.52c-.48,1.86-.81,4.31.51,5.68,1.51,1.58,3.74.17,6.58,1.61"/><path class="cls-2" d="M235.51,165.92c2.05-1.08,4,.57,6.07.79,3.59.38,6.19-3.67,9.39-9.26a4.9,4.9,0,0,0-1.44-1c-1.22-.58-2-.3-2.32-.9-.49-.95,1.11-2.35.65-3s-1.77.38-2.64-.32a1.92,1.92,0,0,1-.39-2.26,1.7,1.7,0,0,1,1.42-1c1.18,0,1.33,2,2.83,2.31,1,.24,1.33-.43,2.32-.32a3.85,3.85,0,0,1,2.44,1.45,70.28,70.28,0,0,1,7.53-10.71c11.23-12.73,28.38-18.52,26.77-23.5-.18-.56,1.17-2.58.71-3.21-5.16-1.28-14.45.85-14.45.85-15.54,6.66-27.06,26.25-27.06,26.25a122.86,122.86,0,0,0-14.81,26.75l.77-.12A5.37,5.37,0,0,1,235.51,165.92Z"/><path class="cls-3" d="M284.14,255.42c-2.05.16-2.8.61-3.34.11s.12-1.73-.63-3c-.54-.94-1.69-1.64-2.25-1.36-.72.37.22,2-.68,3.66a4.88,4.88,0,0,1-4,2.25c-1.71,0-2.41-1-3.55-.47a2.49,2.49,0,0,0-1.36,1.94c-.14,1.17.76,2.13,2,3.45a14,14,0,0,0,1.46,1.36c3.18,2.58,4.82,3.88,6.9,4.08.51.05,2.17.21,2.72-.68a1.88,1.88,0,0,0,.06-1.47c-.5-1.4-2.17-1.4-2.25-2.3-.07-.72.95-1.61,1.93-1.83,1.23-.27,2,.56,2.57.11s0-1,.41-2c.29-.65.88-1.07,2-1.88,1.5-1.05,2.14-1.21,2.1-1.47C288.19,255.42,286,255.28,284.14,255.42Z"/><path class="cls-3" d="M302.73,277.26c-1.74,1.12-1.51,2-3.58,3.17a13.76,13.76,0,0,1-3.64,1.3c-1.67.3-2.56.08-2.68.41s.57,1.12,4.4,3.17a6.45,6.45,0,0,1,3.92-3.51,5.9,5.9,0,0,1,2.82-.07,8,8,0,0,1,1.71-3.23c1.38-1.53,2.85-1.87,2.75-2.2S305.22,275.66,302.73,277.26Z"/><path class="cls-3" d="M273.06,237.32c.55-.24,1.18-.75,1.09-1.09s-.4-.19-1-.48c-.89-.43-.86-.91-1.62-1.25-.12-.05-1.1-.48-1.62-.05s-.42,1.73.21,2.45A2.59,2.59,0,0,0,273.06,237.32Z"/><path class="cls-3" d="M302.73,277.26c-1.74,1.12-1.51,2-3.58,3.17a13.76,13.76,0,0,1-3.64,1.3c-1.67.3-2.56.08-2.68.41s.57,1.12,4.4,3.17a6.45,6.45,0,0,1,3.92-3.51,5.9,5.9,0,0,1,2.82-.07,8,8,0,0,1,1.71-3.23c1.38-1.53,2.85-1.87,2.75-2.2S305.22,275.66,302.73,277.26Z"/><path class="cls-3" d="M284.14,255.42c-2.05.16-2.8.61-3.34.11s.12-1.73-.63-3c-.54-.94-1.69-1.64-2.25-1.36-.72.37.22,2-.68,3.66a4.88,4.88,0,0,1-4,2.25c-1.71,0-2.41-1-3.55-.47a2.49,2.49,0,0,0-1.36,1.94c-.14,1.17.76,2.13,2,3.45a14,14,0,0,0,1.46,1.36c3.18,2.58,4.82,3.88,6.9,4.08.51.05,2.17.21,2.72-.68a1.88,1.88,0,0,0,.06-1.47c-.5-1.4-2.17-1.4-2.25-2.3-.07-.72.95-1.61,1.93-1.83,1.23-.27,2,.56,2.57.11s0-1,.41-2c.29-.65.88-1.07,2-1.88,1.5-1.05,2.14-1.21,2.1-1.47C288.19,255.42,286,255.28,284.14,255.42Z"/><path class="cls-3" d="M273.06,237.32c.55-.24,1.18-.75,1.09-1.09s-.4-.19-1-.48c-.89-.43-.86-.91-1.62-1.25-.12-.05-1.1-.48-1.62-.05s-.42,1.73.21,2.45A2.59,2.59,0,0,0,273.06,237.32Z"/><path class="cls-3" d="M273.06,237.32c.55-.24,1.18-.75,1.09-1.09s-.4-.19-1-.48c-.89-.43-.86-.91-1.62-1.25-.12-.05-1.1-.48-1.62-.05s-.42,1.73.21,2.45A2.59,2.59,0,0,0,273.06,237.32Z"/><path class="cls-3" d="M302.73,277.26c-1.74,1.12-1.51,2-3.58,3.17a13.76,13.76,0,0,1-3.64,1.3c-1.67.3-2.56.08-2.68.41s.57,1.12,4.4,3.17a6.45,6.45,0,0,1,3.92-3.51,5.9,5.9,0,0,1,2.82-.07,8,8,0,0,1,1.71-3.23c1.38-1.53,2.85-1.87,2.75-2.2S305.22,275.66,302.73,277.26Z"/><path class="cls-3" d="M284.14,255.42c-2.05.16-2.8.61-3.34.11s.12-1.73-.63-3c-.54-.94-1.69-1.64-2.25-1.36-.72.37.22,2-.68,3.66a4.88,4.88,0,0,1-4,2.25c-1.71,0-2.41-1-3.55-.47a2.49,2.49,0,0,0-1.36,1.94c-.14,1.17.76,2.13,2,3.45a14,14,0,0,0,1.46,1.36c3.18,2.58,4.82,3.88,6.9,4.08.51.05,2.17.21,2.72-.68a1.88,1.88,0,0,0,.06-1.47c-.5-1.4-2.17-1.4-2.25-2.3-.07-.72.95-1.61,1.93-1.83,1.23-.27,2,.56,2.57.11s0-1,.41-2c.29-.65.88-1.07,2-1.88,1.5-1.05,2.14-1.21,2.1-1.47C288.19,255.42,286,255.28,284.14,255.42Z"/><path class="cls-3" d="M317.44,261.59c-1.11-.41-1-1.39-2-1.72s-1.74.63-2.62.21-.7-1.71-1.37-1.86-1,.76-2.13,1.79c-1.81,1.59-3,1.37-3.23,2.2-.3,1.3,2.5,3,3.43,3.5a12.51,12.51,0,0,0,7.22,1.72c.63-.05,2.42-.2,2.62-1s-1.38-1.37-1.31-2.54,1.64-1.82,1.44-2.2S318.46,262,317.44,261.59Z"/><path class="cls-2" d="M329.61,268.69c-1.23-.21-1.74,2.79-4.69,4.19-1.72.81-3.91.91-4.36.14-.26-.45.17-1,.72-2.28a14.15,14.15,0,0,0,1.17-4.44c0-2.51-1.95-4.92-3.91-6-1-.52-1.4-.41-4.51-1.26-3.67-1-3.33-1.23-5.17-1.62a17.65,17.65,0,0,0-1.77-.26c0,.18,0,.37.07.54a6.08,6.08,0,0,1-3.06-1.12c-1.33.1-2,.77-3.23,0-1.36-.91-1-1.61-3.19-3.23-1.57-1.18-2.25-1.17-2.84-2.14a3,3,0,0,1-.42-1.79c-2.33-.11,0-11.47-13.83-7.77-.5.14-8.31-5.7-4.3-10.16a.7.7,0,0,0,.11-.21c-1.11.64-2.25,1.28-3,.78-.93-.64.05-2.51-1.13-3.36a3.18,3.18,0,0,0-4.15.57c-.75,1,0,2.18-.82,3.06-.62.62-1.16.19-2.08.83-1.3.9-1.15,2.42-1.84,2.49s-1-1.8-2.21-2.05c-1.06-.23-1.56,1.08-3.17,1.59a5.09,5.09,0,0,1-5.13-1.37c-1.15-1.4-.12-2.59-.85-6.27-.59-2.9-1.77-4.85-2-4.78s.21,1.12-.4,1.77c-.45.47-.94.2-1.3.62-.51.6.24,1.46-.06,2.71-.14.6-.61,1.65-1.29,1.76-1.41.22-2.17-3.84-4.47-4.08a3,3,0,0,0-2.65,1.48c-1.1,1.82.14,4.92,2.12,6,2.59,1.45,5.46-1.11,7.11.48,1,1,.17,2.28,1.68,3.89,1,1,1.6.9,2.31,1.89,1.29,1.8,0,3.33,1.11,4.69s3.1.49,4.24,1.92c.82,1,.46,2.3.42,3.46-.09,2.55,0,3.71,8.2,13.44a37.1,37.1,0,0,0,5.22,5c1.29,1.19,2.41,2.42,4.05,4,.86.83.65.67,1.82,1.91,1.93,2,3.94,1.51,5.17,2.45,2.17,1.68,3.95.52,5.24,2.1,1,1.21.06,2,1.05,3.88.54,1,1.14,1.38,4.23,3.6a16.82,16.82,0,0,1,3.56,3c.75.42,6.72,5.67,10.75,3.65,1.16-.59,3.67-4.17,2.63-6.66-3.53-8.42,2.28-4.42,3.92-6,1.79-1.76,2.76-1.16,8.6-3.37,7.15-2.72,7.58-4.35,7.66-4.89C331.13,270.25,330.41,268.83,329.61,268.69Zm-59.69-32.24c.52-.43,1.5,0,1.62.05.76.34.73.82,1.62,1.25.59.29.93.24,1,.48s-.54.85-1.09,1.09a2.59,2.59,0,0,1-2.93-.42C269.5,238.18,269.36,236.9,269.92,236.45Zm16.26,22.91c-1.16.81-1.75,1.23-2,1.88-.43,1,0,1.61-.41,2s-1.34-.38-2.57-.11c-1,.22-2,1.11-1.93,1.83.08.9,1.75.9,2.25,2.3a1.88,1.88,0,0,1-.06,1.47c-.55.89-2.21.73-2.72.68-2.08-.2-3.72-1.5-6.9-4.08a14,14,0,0,1-1.46-1.36c-1.23-1.32-2.13-2.28-2-3.45a2.49,2.49,0,0,1,1.36-1.94c1.14-.51,1.84.52,3.55.47a4.88,4.88,0,0,0,4-2.25c.9-1.63,0-3.29.68-3.66.56-.28,1.71.42,2.25,1.36.75,1.31-.05,2.4.63,3s1.29.05,3.34-.11c1.82-.14,4.05,0,4.14.47C288.32,258.15,287.68,258.31,286.18,259.36Zm19.5,21.14a8,8,0,0,0-1.71,3.23,5.9,5.9,0,0,0-2.82.07,6.45,6.45,0,0,0-3.92,3.51c-3.83-2.05-4.52-2.84-4.4-3.17s1-.11,2.68-.41a13.76,13.76,0,0,0,3.64-1.3c2.07-1.15,1.84-2.05,3.58-3.17,2.49-1.6,5.57-1.41,5.7-1S307.06,279,305.68,280.5Zm12.38-14.57c-.07,1.17,1.5,1.78,1.31,2.54s-2,.91-2.62,1a12.51,12.51,0,0,1-7.22-1.72c-.93-.55-3.73-2.2-3.43-3.5.19-.83,1.42-.61,3.23-2.2,1.16-1,1.55-1.92,2.13-1.79s.48,1.42,1.37,1.86,1.53-.57,2.62-.21.88,1.31,2,1.72,1.91-.17,2.06.14S318.12,264.77,318.06,265.93Z"/><path class="cls-2" d="M301,302.42c-3.46-.08-4.89,4.35-6.41,3.65-1.15-.52-1.69-3.23-1.19-5a10.73,10.73,0,0,0,.64-2,5.46,5.46,0,0,0-.24-3c-.82-1.87-1.61-2.15-1.57-3.1,0-.61-.33-.52,2.13-2.23a11.33,11.33,0,0,0,2.14-1.67c1.41-1.72.58-3.07,1.75-4.13a3.57,3.57,0,0,1,4.45,0c.82.86.26,2,.8,2.31,1.41.79,5.21-4.68,6-4.14.46.3.21.63.64,3.66.24,1.65.88,2,.72,3.34-.28,2.15-2.31,3.32-2.07,3.65.35.49,4.13-2.83,6.6-1.63a2.73,2.73,0,0,1,1.59,2.43c-.24,2-4.64,2.57-4.61,4.29,0,.86,1.13,1.32.95,1.67-.35.7-4.51-1.69-6.36-.16"/><path class="cls-2" d="M418.79,287.75c0-1.09.23-1.78-.2-2.09s-.87.11-1.67-.14a2.69,2.69,0,0,1-1.16-.88c-1.39-1.53-1.13-2.1-2.05-2.9s-1.52-.42-2.55-1.4a3.52,3.52,0,0,1-1.13-1.79c-.32-1.46.87-2,.52-3.45-.19-.78-.59-.76-.9-1.87a4.81,4.81,0,0,1-.18-1.89c.2-1.53,1.15-1.88.95-2.77-.08-.32-.53-.71-1.44-1.49-1.47-1.26-1.75-1.27-1.94-1.78a5.87,5.87,0,0,1,.24-2.44c.26-1.34.44-1.75.19-2.29-.17-.36-.38-.43-1.05-1a6.93,6.93,0,0,1-2-2,6.56,6.56,0,0,1-.43-2.81c-.05-1.12.05-1.73-.34-2a1.38,1.38,0,0,0-1.14,0c-1.61.49-1.91,1.7-2.88,1.72-.52,0-.89-.33-1.48-.88-1.3-1.2-1-2.12-2.09-3a8.15,8.15,0,0,0-2-.85,10.45,10.45,0,0,1-1.86-.66c-.83-.46-.79-.74-1.52-1.2a5,5,0,0,0-2.71-.73,5.07,5.07,0,0,0-2.6.82c-1.24.81-1.11,1.55-2.52,2.5a3.52,3.52,0,0,1-1.81.78c-.28,0-1.08,0-3.06-1.59-1.66-1.33-1.33-1.51-2.2-2-1.49-.82-2.16-.16-3.85-1.07a10,10,0,0,1-1.81-1.35c-1.23-1.08-1.21-1.43-2-1.8-1.1-.53-1.78-.14-2.18-.71s.07-1.23-.39-1.66-.8-.08-1.18-.34c-.56-.39-.43-1.57-.18-2.8a15.52,15.52,0,0,1,2.13-6c1-1.55,1.69-1.93,1.62-2.91a2.51,2.51,0,0,0-1.78-2.18,2.72,2.72,0,0,0-2.79,1.31,4.49,4.49,0,0,0-.44,2.41c0,1.24.28,1.54,0,1.92-.44.57-1.3.13-2.31.89-.33.26-.23.3-.71.72a3.59,3.59,0,0,1-1.78,1c-1,.12-1.38-.72-2-.45-.49.19-.7.79-.88,1.31-.33.92-.08,1.37-.53,2-.18.27-.39.58-.7.61-.77.09-1.32-1.54-1.87-1.41-.2.05-.3.32-.42.74-.54,1.9-.17,2.46-.6,3.11-.77,1.18-3,.88-3.21.86a5,5,0,0,1-1.76-.65c-1.85-1-1.84-2.09-3.18-2.38-.83-.18-1.24.14-1.76-.27-.15-.12-.34-.32-.73-1.49-.49-1.51-.39-1.84-.73-2.07-.6-.4-1.67.11-2.24.51-1,.72-.78,1.36-1.77,2.2-.12.1-1.65,1.37-2.9.8a1.77,1.77,0,0,1-1-1.19c-.09-.54.26-.86.1-1.46a1.65,1.65,0,0,0-.48-.75c-1-1-4.52-1.91-6.29-.19a3,3,0,0,0-.77,1.13c-.39,1,.08,1.6-.2,2.41s-.93,1.11-2,1.67c-2.17,1.14-3.11.65-3.79,1.57a3.88,3.88,0,0,0-.3,2.86c.24,1.43.93,2.06.58,2.84-.05.11-.2.4-1.08.88-1.77,1-2.44.46-3.61,1.21a5.22,5.22,0,0,0-1.8,2.28c-.54,1.17-.21,1.47-.7,2.06-.93,1.11-2.47.49-3,1.46-.41.76-4.37,1-4.37,1-.32,2,5.8,1.52,6.15,2.28.46,1-1.69.21-1.81.39-.39.6-2,1.27-2.37,1.66-1.12,1.36,1.57-.77,2.85-.35,1.09.35,1.86-.16,2.61-1.58.59-1.12,1.68,4.13,2.43,2,.63-1.77,1-2.79,1.87-3.07s1.74.62,2.59.17c.44-.23.48-.6.92-1.67.68-1.63,1.34-3.2,2.61-3.71.57-.23,1.33-.27,1.48,0s-.26.69-.39.84a20.14,20.14,0,0,0-2.77,5.14c-1,2.53-.32,3.25-1.58,4.93a12.47,12.47,0,0,1-1.66,1.71c-1.44,1.25-2.17,1.35-2.79,2.4-.36.61-.79,1.71-.36,2.24s1,.06,1.8.49.76,1.14,1.47,2a5.34,5.34,0,0,0,3.13,1.55,10.17,10.17,0,0,0,4.12-.08c1.56-.28,2.62-.76,3.68-.18a1.44,1.44,0,0,1,.65.54c.59,1-1,2.11-.84,4,.09,1,.59,1.45.25,2.16a2,2,0,0,1-.91.84c-1.57.92-2.57.25-3.23,1a2.27,2.27,0,0,0,.12,2.69,10.55,10.55,0,0,0,.91.61c.71.48,1.06.73,1.09.88.09.55-1.27.74-2.32,1.95a4.69,4.69,0,0,0-1,4,4.14,4.14,0,0,0,.52,1.23c.76,1.17,1.61,1,2.57,1.94s1.51,2.68,1,3.62a1.28,1.28,0,0,1-.73.67c-.46.12-.78-.23-1.19,0a.93.93,0,0,0-.45.56c-.24.75.57,1.45.28,1.86a.65.65,0,0,1-.43.2c-.82.15-1.15-.57-2.2-.76a2.51,2.51,0,0,0-1.7.23c-.5.28-.59.64-1,.66s-.69-.28-1-.63c-.7-.7-.88-1.36-1.21-1.32a.36.36,0,0,0-.24.18c-.36.45,0,1,0,1.8a2.92,2.92,0,0,1-.74,1.8c-.53.57-.92.39-1.29.94a2.24,2.24,0,0,0-.26,1.56c.11.53.43,1,.31,1.47,0,.06-.06.23-.15.24s-.22-.2-.25-.26a7.15,7.15,0,0,0-1.45-1.52,2.8,2.8,0,0,0-2.53-.42c-.2.06-1.22.42-1.4,1.22s.45,1.34.22,1.55-.64-.06-1.26-.35c-.33-.15-.56-.28-.59-.29-.72-.42-2-1.13-2.81-.82s-1,1.17-1.19,1.85a4.69,4.69,0,0,0-.15,2q0,.29.09.48,0-.19-.09-.48a4.82,4.82,0,0,0-.5-1.33,4.88,4.88,0,0,0-3.07-2.34,4.94,4.94,0,0,0-2.34.14,5.53,5.53,0,0,0-1.69.8,5.38,5.38,0,0,0-1.92,2c-.7,1.33-.36,2.34-.92,2.59-1,.44-2.6-2.3-3.93-1.82a1.78,1.78,0,0,0-.86,1.07c-.54,1.22.15,1.82,0,3.61-.13,1.38-.58,1.48-.46,2.55a4.18,4.18,0,0,0,1,2.2,5.16,5.16,0,0,0,2.26,1.34,29,29,0,0,0,4.21,1.45c3.4.4,4.9-1.9,6.58-.9,1,.62,1.56,2.14,1.14,2.68-.82,1-5.08-2-6.79-.44-.71.65-.25,1.41-1,2-1.52,1.27-4.39-1.48-6.18-.37-.91.57-1,2.2-1.24,5.45-.18,2.68-.34,5.15.46,5.42,1.13.37,3.11-4,4.4-3.61.92.31.28,2.74,1.61,3.47,1,.54,1.76-.56,4.15-.55,1.9,0,2.32.69,3,.27,1.59-.92.41-4.79,1.66-5.29.8-.31,1.57,1.16,3,1,1-.11,1.59-.95,2.35-1.94,2.27-2.91,4.39-5.63,5.41-5.3.79.25,1.16,2.43.31,3.57-.45.61-.9.45-1.88,1.11-.25.17-2.49,1.73-2.27,3.63a3.36,3.36,0,0,0,1.41,2.16c1.14.81,2.21.47,2.54,1.19.22.47-.16.76-.2,1.69a4.53,4.53,0,0,0,.59,2.23c1.23,2,5,1.68,6.74,1.27,1.37-.31,2.83-.64,3.37-1.9a3.23,3.23,0,0,0-.67-3.28,3.5,3.5,0,0,0-2.31-1.13c.23-.12,2.37-1.18,4-.15,1.33.82,1.58,2.52,1.72,3.51a35.46,35.46,0,0,1-.07,4.49c-.06,1.2-.1,1.88.36,2.28s.88.05,2,.3c1.41.31,2.1,1.13,2.41.87s-.32-.95,0-1.48c.45-.72,2-.13,2.46-.85.19-.31,0-.67-.06-1.1a5.8,5.8,0,0,1,.61-4.51,3.22,3.22,0,0,1,3-1.39c.88.21,1.05,1,2,1,.71,0,.83-.44,1.72-.56a3.15,3.15,0,0,1,2.13.53c1.15.87.7,2.25,1.53,2.56s1.86-.6,2.38-1.35a3.67,3.67,0,0,0,.63-2.39c4.31,0,5.86,1,6.38,2.11s.18,2.68,1.14,3.2a2,2,0,0,0,1.39,0c3.35-.74,4.47-1.88,5.68-1.35a2.88,2.88,0,0,1,1.24,1.25c.68,1.1.39,2,.86,2.19.63.26,1.33-1.25,2.42-1.16.73.07.9.79,1.76,1.56,1.45,1.29,4,1.91,4.89,1.07s-.13-2.21,1-3.72a2,2,0,0,1,1.2-.87c1-.16,1.33,1.11,2.72,1.49s2.23-.75,3.72-.19a5.08,5.08,0,0,1,1.35,1c2.16,1.9,2.16,2.65,3.14,3a3.69,3.69,0,0,0,3.87-1.16c1.1-1.43-.05-3,1-4s3,.06,3.77-1c.55-.72-.22-1.44,0-3.56a9.07,9.07,0,0,1,.9-3.2c1-2.1,1.93-1.9,2.39-3.35s-.52-2.17-.62-4.92c-.08-2.09.51-2,.54-4.22a10.06,10.06,0,0,0-1.81-6.24c-.37-.49-1.38-1.84-2.37-1.66-.48.08-.6.45-1.24,1.07a5.8,5.8,0,0,1-3.26,1.71c-1.64.06-2.57-1.46-3.18-1.05s.13,1.73-.53,2.28c-.36.3-.84.12-2-.14-3.08-.68-3.53-.24-4.25-.93s-.36-1.25-1.33-2.29a4.57,4.57,0,0,0-1.61-1.15c-1.78-.71-2.6.68-4.61.22-1.06-.23-1-.65-3.06-1.47a15.29,15.29,0,0,0-2.1-.67c-3.23-.75-4.53,1.78-7.83,1.39-1.42-.17-2.57-.8-4.57-1.9a29.52,29.52,0,0,1-2.58-1.65c-4.23-2.87-5-4-6.33-3.74s-1.26,1.5-2.62,1.65c-1.72.19-2.44-1.73-4-1.47-1.41.23-1.54,2-2.83,2-1,0-1.21-1.06-3-2s-3.3-.54-3.51-1.23,1-2,2.43-2.45c1.67-.55,2.3.45,4.16.18,2.38-.34,2.35-2.12,4.52-2.43s3.18,1.53,5.3.91c.73-.21.73-.46,2.58-1.88a23.92,23.92,0,0,1,4.13-2.76c3.12-1.5,5-.57,5.51-1.72s-.78-3.2-2.31-4.27c-2.41-1.69-5.07-.85-5.21-1.53s2.47-2.33,5.47-2.44c1.91-.07,2.63.53,4.73.83a15.27,15.27,0,0,0,6.77-.6,8.64,8.64,0,0,0,4.05,4.22c2.33,1,3.55-.06,6.36.86,2.29.75,5.31,2.72,5.54,5.16.15,1.63-1.06,2.15-.94,4.44a5.46,5.46,0,0,0,1.25,3.48c.36.39,1.2,1.13,7,1.53,2.12.15,1.87,0,5,.23a27.82,27.82,0,0,0,4.41.18c2.71-.29,2.63-1.17,5-1.31s3.43.75,4.85-.12a4.5,4.5,0,0,0,1.54-1.7c.49-1,.13-1.61.71-2.29s1-.36,2-1.16c.6-.48,1-.82,1.05-1.27,0-1.13-2.57-1.9-2.41-2.49.1-.35,1-.1,1.75-.8a2.75,2.75,0,0,0,.72-1.36c.35-1.18-.05-1.83.42-2.23.12-.1.2-.12.93-.23a9.41,9.41,0,0,0,1.93-.37C420,291.05,418.84,290,418.79,287.75Zm-100.5,43.09c-1.2,1.31-3.5,1.15-3.76.54s1.07-.95,1.62-2.61-.16-2.71.31-3,2.11.79,2.48,2.32A3.18,3.18,0,0,1,318.29,330.84Zm53.14-2.6a2.17,2.17,0,0,1,1-1.31c1.87-1.21,3.72.35,5.12-.78.71-.58.36-1.11,1.25-1.86s2.67-1.19,3.17-.62-.48,1.7.13,2.59c.4.59,1,.36,1.37.93s-.17,1.41-.23,2.68c-.1,2.09,1.46,3.28,1,3.72s-2-.37-2.83-.92c-1.34-.86-1.75-1.68-2.3-1.52s-.38,1.35-1.23,1.92a2.9,2.9,0,0,1-2.4,0,6.6,6.6,0,0,1-3.08-2.61C371.33,329,371.39,328.43,371.43,328.24Zm-24.52-.84a5,5,0,0,1,3.61,2.24c.18-.33,1.52-2.55,3.69-2.59a3,3,0,0,1,1,.14c1.8.62,2.9,3.18,2.5,5.36a4.74,4.74,0,0,1-1.94,3.09,4.65,4.65,0,0,1-4,.51c-1.35-.44-1.19-1.15-3.3-2.56-1.43-.95-1.8-.83-3.19-1.86s-2.23-1.65-2.16-2.43C343.22,328.21,345.22,327.29,346.91,327.4Zm-.53-69.19c-.79.63-1.6.17-3.23,1.15-1.36.82-1.72,1.69-2.11,1.53-.77-.3.91-3.55-.65-6.12-.67-1.1-1.53-1.43-1.41-2.2.16-1,1.63-1,2.16-2.3.44-1.12-.28-2,.18-2.4s2.13.07,3.19.87C347.6,251.05,348.28,256.72,346.38,258.21ZM368.43,267c-.45.36-2.11-.55-2.9-2-.47-.85-.76-2.12-.33-2.44s1.14.64,2.71.7c1,0,1.59-.3,1.72-.06s-.83.76-1.14,1.92S368.74,266.72,368.43,267Zm7.72,9.09c-.72-.76,1-4.22,2.36-4.11.93.08,1.07,1.81,2,1.85,1.14.06,1.35-2.7,3.44-3.54a3,3,0,0,1,3.14.45c1.05,1.1.7,3.26-.2,3.74s-2.09-1-3.15-.48-.48,1.8-1.42,2.33-1.5-.45-3.46-.49C377.15,275.78,376.51,276.43,376.15,276.06Zm9.21,13.75c-1.07-.87-.77-1.87-2.05-2.74-.75-.51-1.1-.32-1.49-.8-.83-1-.36-3.25.55-3.54s1.24,1.28,3.46,2.25c1.59.69,2.1.23,3.47,1,.31.18,2.34,1.37,2.12,2.67s-2.37,1.73-2.6,1.77A4.33,4.33,0,0,1,385.36,289.81Zm8.34,9.48a2.68,2.68,0,0,1-2.34.62,3.31,3.31,0,0,1-1.83-1.42c-.59-.75-1.45-1.84-1-2.69a1.87,1.87,0,0,1,2.27-.68c.6.28.44.77,1.11,1.36,1,.91,2.13.45,2.44,1.13S394,299,393.7,299.29Zm8.12-15.84c-1.12.32-2.82.44-3.07-.16s1.36-1.2,2-3.13c.48-1.54-.14-2.48.4-2.82s2.24.69,3.07,1.85a2.7,2.7,0,0,1,.71,1.77C404.73,282.63,402.11,283.37,401.82,283.45Z"/><path class="cls-2" d="M170.28,301.8c2.29,1.93,4.12,3.86,6.41,5.79a9,9,0,0,0,2.37-.64c.51-.27,2.4-1.27,2.45-2.55.06-1.54-2.59-2.64-2.36-3.07.14-.27,1.06.19,2.29.14,1.58-.06,2-.88,3.7-1.59,3-1.28,4.78,0,5.82-1.37a3.55,3.55,0,0,0,.39-2.58c-.28-2.26-1.9-3.35-1.51-3.9.23-.33.92-.13,2.65.2a23.41,23.41,0,0,0,4.67.68,7.44,7.44,0,0,0,4.4-2.11c3.22-2.72,8.69-5.73,9.21-7.85,1.75-7.14-4.45-7.77,6.11-14.08-.37-2.53-1.35-3.7-2.2-4.29-2.07-1.44-4.53-.29-5.7-1.83-.87-1.16.18-2.25-.77-3.48-1.15-1.48-3.21-.56-4.05-1.85-1-1.54,1.24-3.94.16-5.13-.64-.69-1.64-.13-2.49-1s-.35-1.76-1-2.17c-.92-.57-2.19.9-2.95.48-1.15-.65,1.32-4.37-.15-7.76-.89-2.06-2.31-1.85-3.05-4.06-.1-.31-1-3.2.74-5.4a6.2,6.2,0,0,1,6.73-1.69,2.27,2.27,0,0,0,1.43-1.17c.38-1-.72-1.93-1.2-3.7-.32-1.18-.06-1.63,0-3.48.15-4.51-1.26-5-.64-7.75.41-1.81,1-1.49,1.93-4.33.82-2.48,1.25-3.77.84-5.24-.73-2.62-3.41-3.17-3.15-4.89.17-1.08,1.25-1,1.65-2.45s-.64-2-.34-3.73c.25-1.39,1.05-1.48,1.44-3.11a6.69,6.69,0,0,0,0-2.71c-.16-1-1.67-10.65-5.84-13.68a5,5,0,0,0-2.72-1.19c-1.13-.07-1.76.4-2.09.06s.67-1.56.56-3.38c-.08-1.15-.58-1.33-.81-2.51a7.06,7.06,0,0,1,.69-4c.94-2.93-1.14-6.12-2.25-8.1-1.54-2.72-2.82-11.47-4-15-3.94.63-8.2,8-11.13,7.55-.31,1-1.68,1.72-1.45,2.69.12.54.58.4.91,1.15.41.95-.15,1.54.26,2.39.31.62.77.62,1.11,1,1.38,1.64-1.48,7.24-5,8.56a2.26,2.26,0,0,1-1.9.07c-.79-.51-.73-1.84-.71-2.06.11-2.2,2.18-3.61,1.82-4.06-.23-.29-1.17.3-1.5-.06s.8-1.88.33-2.45c-.32-.38-1.06,0-1.57-.45a1.33,1.33,0,0,1-.32-1.15c.16-1.09,1.52-1.07,2.74-2.38s.51-1.85,1.76-3.22a6.66,6.66,0,0,1,1.35-1.14c-2.37-2.57,1.67-7.37,2.3-18.75.59-10.74-2.24-20.72-.21-21.32.63-.19,1.27.63,2.16,1a6.65,6.65,0,0,1-.61-3.19c.25-1.93,1.53-2.66,1.16-3.71s-2-1.34-2.91-1.52c-.55-.11-4.79-.94-7.17,1.88-.21.25-1.8,2.18-1.26,4.08.4,1.41,1.64,1.68,1.51,2.49-.17,1.11-2.7,2.14-5,1.74-2.46-.42-3.16-2.23-4.42-1.84s-1,2.22-2.64,4.41c-1.26,1.69-2.8,1.36-3.22,2.7-.26.84,0,1.59.55,2.93.77,2,1.38,2,1.89,3.49.81,2.34-.39,3.36.58,4.58.84,1.06,1.87.44,3.27,1.7s1,2.21,1.94,2.64c1.24.55,2.24-.93,4.61-1.48,3.14-.74,6.22.71,6.18,1.19s-2.35-.24-4.05,1.17c-1.95,1.62-1.15,4.32-2.67,4.87-.94.33-1.3-.68-3.56-.86-1.59-.12-1.84.34-3.15,0s-1.62-1-2.62-1c-1.16.07-1.24,1-2.49,1.32-1.69.43-2.51-1-3.83-.59a3.42,3.42,0,0,0-1.87,3.63c.41,2.18,3.39,2.4,3.47,4.15.07,1.46-2,1.67-2.36,3.73-.34,1.8,1.1,2.25.93,4.63-.13,1.75-1,2.5-.44,3.36s1.49.44,2.24,1.28c.91,1,0,2.15.38,4.09.48,2.64,2.48,2.53,2.92,5a5.32,5.32,0,0,1-.11,2.24l.2,0c2.61-.14,5.66,7.76,6.68,13.43,2.71,15.08-7.84,20.45-8.07,35.69-.14,9.68,4.09,8.83,9.6,27.73,5.39,18.51,9,31.05,2.83,38.48s-24,12-27.36,16.37a24.36,24.36,0,0,1,1.13,4.17c0,.3.15,1.18.75,1.49.83.43,1.62-.72,3-.69,1.57,0,1.72,1.49,3.48,1.89s2.07-.78,4.47-.93c2.22-.15,2.73.8,4.69.81s2-1.28,5.4-2.28c1.41-.42,1.88-.37,2.5-.94,1.27-1.14.77-2.64,1.68-3.33.61-.46-1-.06,2.05,1.67M195.54,214c.11,0,.3,0,1.24,1a16.12,16.12,0,0,0,1.5,1.54c.8.58,1.09.38,1.51.84a2.08,2.08,0,0,1,.26,2.44c-.81.91-3.51.3-4.83-1.28a3.5,3.5,0,0,1-.85-2.32C194.4,215.2,194.91,214,195.54,214Zm-4.78,45.17c.45-.47,1.19.18,2.52-.13s1.57-1.13,2.19-1,1,1.34,1.5,3.9c1.16,6.38.63,7.16.2,7.53a2,2,0,0,1-2.18.4c-1.53-1.08,1.24-6.67-.14-7.46-.55-.32-1.23.44-2.45,0a2.8,2.8,0,0,1-1.37-1.08C190.64,260.69,190.31,259.61,190.76,259.14Zm-13-80.88c0,.75-1.47,1.62-2.81,1.54a2.34,2.34,0,0,1-1.83-.83,1.89,1.89,0,0,1-.06-2.25C174.06,175.68,177.7,177.1,177.73,178.26Zm-5.16,24.51c-.12-1.14.48-2.56,1.31-2.76,1.33-.32,3.61,2.46,4,5.27a5,5,0,0,1-.26,2.64c-.77,1.9-2.94,3.47-4.38,3a2.09,2.09,0,0,1-1.1-1.09,2.68,2.68,0,0,1,.32-2.38c.61-.95,1.3-.78,1.5-1.42C174.26,205,172.74,204.36,172.57,202.77Zm1.24-8.49a2.87,2.87,0,0,1-.85-2.57c.12-1.52,1.13-3,1.64-2.83s.12,1,.71,2.38c.73,1.71,1.84,2.1,1.63,2.7S174.9,195.07,173.81,194.28Zm-5.41-20.46c.34-.77,1.21-1.75,2-1.61.62.11.65.78,1.24.84s1-.88,1.63-.77.41.77,1.11,1.35c.86.71,1.88.41,2,.77s-.73.95-1.63,1.09-1.12-.34-2.48-.45c-.7,0-.72.07-2.42.07-1,0-1.4-.05-1.56-.33S168.26,174.11,168.4,173.82Zm-6.33,36.68a1.39,1.39,0,0,1,1.24-.71c.93,0,1.28,1.08,1.82,1s.34-1.7,1.37-2.44a1.87,1.87,0,0,1,2.16-.07c.56.58-.21,1.64.39,2.26.45.46,1,0,1.76.51a2.08,2.08,0,0,1,.78,2.06,2.59,2.59,0,0,1-1.63,1.61c-2.47,1.14-5.94-.17-7.37-2.25C162.32,212,161.73,211.18,162.07,210.5Zm20,11.9c-1,1.18-5.1-.8-5.35-.26-.16.35,1.54,1.16,1.37,1.93s-1.86.46-2.42,1.42c-.76,1.3,1.46,3.38.79,4.18-.38.45-1.13-.12-3,.07-1.69.16-2.24.73-2.68.38-.86-.68.57-3.51,0-3.79-.36-.19-.92,1-2.15,1.09-.85.07-1.09-.45-2-.39s-1.18.76-2,1c-1.75.62-4.26-1.59-5.48-3.28a7.7,7.7,0,0,1-1.5-4.12c0-.89.05-3,.91-3.28s1.78,2.28,4.11,2.7c1,.18,1.24-.17,2.74-.45,3.38-.61,4,.79,7,.39,2.81-.38,3-1.68,5.42-1.54.54,0,3,.16,3.91,1.86C181.94,220.4,182.66,221.73,182.1,222.4Zm-.65-6c.39-.67,1.29-.72,2.48-.78s2.28,0,2.64.65a1.91,1.91,0,0,1-1.21,2.31c-.47.16-.59-.18-1.66-.11s-1.23.41-1.6.24A1.81,1.81,0,0,1,181.45,216.42Zm-2-19.44c.47.62-.1,2-1,2.51a1.83,1.83,0,0,1-1.64.2,1.57,1.57,0,0,1-1-1.42c0-1,1.35-1.51,2.15-1.61C178.28,196.62,179.13,196.52,179.49,197Z"/><path class="cls-2" d="M249.13,140.72s12.95-17.71,28.49-24.37c0,0,6.07-2.6,11.23-1.32-.83-1.16-1.72-2.44-1.26-3.81s1.64-1.72,1.48-2.81a2.64,2.64,0,0,0-2-1.88c-1.73-.44-2.47,1.14-3.91.9-2.38-.38-2.46-5-4.69-5.33-1.63-.25-2.6,2.11-4.1,1.65a2.43,2.43,0,0,1-1.49-2.81c.61-1.32,3.47-.19,4.92-2,.78-1,1-2.54.34-3.29-.9-1-2.82.24-5.59-.08-3.5-.39-6.88-3.18-6.56-4.65s5.51-2.85,9.34-1.12c3.37,1.52,4.81,4.92,5.62,4.5.51-.27.25-1.77-.11-3.94-.6-3.55-1.36-4.69-.68-5.62.83-1.14,2.65-.42,3-1.27.44-1.08-1.95-3.59-4.89-4.47-1.57-.46-1.64,0-3.62-.32-3.93-.71-4.68-2.82-7.09-2.43-1.53.25-1.48,1.14-3.38,1.45s-2.46-.6-4.12-.37c-2.52.34-5.08,2.94-5,5.09.09,1.38,1.23,2,.87,3.22a2.21,2.21,0,0,1-1.66,1.51c-1.79.29-3.76-2.56-3.23-4.08.17-.49.46-.44,1-1.14.8-1.14,1.16-2.87.48-3.87-.46-.68-1-.4-1.76-1-1.94-1.45-.5-4.69-2.12-5.9-1.27-.94-2.69.62-4.18-.32-1.77-1.11-.81-4-2.43-4.8s-3.48,1.09-4.18.37,1-3.32.47-3.74c-.38-.28-1.11.84-2.7,1.15-1.74.34-2.36-.72-3.72-.32s-1.15,1.86-2.72,2.74c-2.18,1.24-4.47-.62-5.73.71-.34.36-.43.93-.61,2.06-.29,1.83-.48,3.08.27,4a3.68,3.68,0,0,0,4.41.74c1.27-.76,1.55-2.49,1.89-2.4s-.23,1.73.62,2.57c.6.59,1.26.11,2,.61,1.18.76.4,2.27,1.51,3.94s2.5,1.25,3.1,2.68c.42,1-.07,1.56-.44,3.42-.8,4.1.57,6.48-.61,7.18-.63.38-1-.31-2.61-.12-1.87.22-2.51,1.37-3.09,1.07-1.13-.6.94-5.23-.53-6.27-1-.68-2.77.65-3.13.14-.51-.72,2.94-3.37,2.24-5-.32-.71-1.14-.48-1.65-1.4-.66-1.18.32-2.24-.32-3s-2.45-.43-2.61-.39c-1.26.33-2.61,1.43-2.6,2.59s1.14,1.35,1.09,2.25c0,1.05-1.63,1.34-3,2.45-2.4,1.9-2.95,5.2-3.37,7.76-.57,3.48.12,5.26-1,6a2.94,2.94,0,0,1-3.37-.85c-1.58-1.88-.36-6,1.69-8.64,1.8-2.29,3.76-2.76,3.85-4.64.05-1.26-.8-1.45-1-3.12-.36-2.7,1.51-4.7,1-5.09s-2.76,2.11-3.69,1.55.17-3.1-.71-3.55c-.36-.18-.69.18-1.58.45-1.6.47-2.26-.17-3.36,0-1.89.34-1.55,2.52-4,4.25s-4.23.87-4.87,2.33c-.41,1,.36,1.42.18,3.5a4.52,4.52,0,0,1-1.14,3.13c-1.22,1-2.59.08-3.24.85-1.22,1.45,3.1,5.66,1.6,8.35-.44.8-1.3,1.27-1.15,2.06s1.37,1,1.42,1.85-1.2,1.09-1.22,1.74c-.05,1.52,6.8,2.27,6.8,3.59,0,.72-2.06,1.72-3.95,1.4-2.21-.38-2.44-2.28-4.39-2.46s-2.48,1.72-4.46,1.57c-2.32-.17-3-2.91-4.68-2.64s-1.57,2.58-3.31,3a2,2,0,0,1-1.2-.14c0,.14.09.28.14.43.59,1.86,1,3.78,1.54,5.63,1.75,5.53,2,12.8,4.45,22,1,3.74,1.92,7.09,2.88,10.13,2.59-.42,5-.33,6.74,1.25.3.27,2.89,2.64,2.37,4.84-.31,1.28-1.58,2-1.25,3,.28.82,1.31.72,1.58,1.58s-.92,1.66-.67,2.66,1.5.77,2.36,1.84.1,2.36.45,4.83a10.28,10.28,0,0,0,2.11,4.85,9.15,9.15,0,0,0,4.67,3.36c3,.81,3.9-1,6.56,0,1.86.71,2.16,1.88,4,2,1.4.09,1.57-.58,3.16-.61,2.41,0,3,1.5,4.35,1.1,1.81-.53,1.45-3.43,3.62-4.3,1.26-.5,1.67.36,3,0,1.6-.45,2.14-2.1,2.84-3.69l-.76.12A122.44,122.44,0,0,1,249.13,140.72Zm-43.9-48.2a3.15,3.15,0,0,1,3,1.59c-1.8.11-2.35.59-2.53,1-.42,1,1,2.06.54,3.13a1.65,1.65,0,0,1-1.84.85c-.94-.34-.95-2.12-.95-2.63C203.43,96.18,203.42,93,205.23,92.52Zm5,52.63c-.54.36-1-.24-2.45-.26-1.13,0-1.32.34-2.32.26a6.92,6.92,0,0,1-2.06-.71c-2.28-.76-3.23.53-4.89-.32a3.32,3.32,0,0,1-1.73-2c-.22-1,.43-1.66,0-2.45s-1.16-.57-1.29-1.09c-.19-.78,1.5-1.18,2.12-2.83a4.4,4.4,0,0,0-.19-3.35c-.46-.92-1.05-1.15-1-1.74a1.82,1.82,0,0,1,1.8-1.28c1.09.05,1.2,1.32,2.51,1.61,1.11.24,1.55-.57,2.44-.2s.71,1.35,1.61,1.74,1.3-.3,2.64-.32c1,0,2.7.35,3.09,1.35.47,1.22-1,3.23-2.58,3.54-1.08.21-1.43-.54-3.09-.52-1.47,0-2.84.66-2.83,1.1s1.1.32,1.55,1.16,0,1.68.13,1.73.55-1.75,1.86-2.44a2.44,2.44,0,0,1,2.77.26c.56.67-.19,1.39.32,2.51s1.52,1,1.93,2.05A2,2,0,0,1,210.27,145.15Zm8.86-45.92c.84,0,1.09,2,1.87,2,.45,0,.85-.72.94-1.29.14-.85-.43-1.22-.49-2-.11-1.31,1.25-2.88,2-2.73,1.12.23,2.07,4.45.25,7.2-.32.48-1.44,2.17-3.16,2.08a3.16,3.16,0,0,1-2.88-2.8C217.61,100.49,218.44,99.2,219.13,99.23Zm7.67,64.71c-1.33,2.21-7.66,1.66-11.45-1.16A8.23,8.23,0,0,1,212.9,160a7.61,7.61,0,0,1-.77-4.57c.1-.61.35-2.16,1.09-2.32s1.1,1.37,2.51,1.74,2.51-1,3.54-.45c.56.31.42.8,1.1,2.19a7,7,0,0,0,2.18,3c1.55,1,2.74.12,3.74,1.09A2.94,2.94,0,0,1,226.8,163.94Zm3.61-15c-.86.54-2.46-.6-3.16-1.1-1.4-1-2.45-2.43-2.19-2.76s1.78.91,2.71.32.48-2.19,1-2.32,1.12,1,1.22,1.23C230.86,145.81,231.39,148.33,230.41,149Zm14.86-20.79c1-.67,2.08-.12,2.44-.7s-.27-1,0-1.35c.49-.57,2.63.81,3,.32.22-.28-.4-.77-.45-1.74a2.66,2.66,0,0,1,1.54-2.64,2,2,0,0,1,1.61.19,2.7,2.7,0,0,1,.84,2.13c.12,1.5-.42,1.75-.32,3,.12,1.65,1.24,2.55,1,2.83s-2.11-1.56-3.73-1c-.68.22-.54.61-1.42,1s-1.75.33-3.47.13-1.89-.47-1.93-.58C244.19,129.26,244.69,128.54,245.27,128.16Zm-3.15,9.91a3.51,3.51,0,0,1,3.15,1c.12.12,1.47,1.48,1.09,2.77-.29,1-1.25.82-2,2.06s-.15,1.88-.84,2.57c-1,1-3,.36-3.15.32a4.49,4.49,0,0,1-2.51-2.31c-.3-.56-1-1.88-.52-2.51.78-1,4,.42,4.19-.07.13-.32-1.28-.81-1.35-1.8S241.13,138.35,242.12,138.07Zm-9.59-8.17c-.32-.82-.18-1.08-.13-1.16.29-.45,1.24-.48,1.93-.19,1.13.47,1.2,1.6,1.93,1.61.5,0,.54-.52,1.42-.9a2.31,2.31,0,0,1,2.06-.07,1.71,1.71,0,0,1,.83,1.87c-.35.71-1.61.19-2.57,1.16-.58.58-.41,1.06-.9,1.29-.72.32-1.7-.43-2.58-1.1A5.8,5.8,0,0,1,232.53,129.9Z"/><path class="cls-2" d="M205.29,217.68a5.78,5.78,0,0,1,1.69-2.5c.84-.69,1.28-.58,1.69-1.21.62-.92,0-1.66.31-2.87.14-.52.4-.95,2.75-2.89,2.09-1.72,3.13-2.58,3.77-2.79,1.64-.52,2,.2,4.43-.32,1.27-.27,2.68-.57,3.11-1.58s-.48-1.75,0-2.52c.3-.46,1.12-.6,2.78-.88a6.66,6.66,0,0,0,2.36-.51c.89-.49,1-1.06,1.33-1,1,.14.75,5.13,1.76,5.29.49.08.63-1.08,1.72-1.47,1.33-.47,2.36.81,3.34.27.79-.44.38-1.4,1.12-1.91s1.75.42,5,1.37c1.69.5,2.66.58,2.89,1.28s-.52,1.21-.22,2,1,.62,1.26,1.23c.39,1.07-1.6,2.23-1.23,3.19.21.56,1,.32,1.8,1a3.41,3.41,0,0,1,1,3.8c-.59,1.14-1.87.7-2.79,1.76s-.44,2.45,0,5.4c.54,4.13,1,7.54-.62,8.77a3.37,3.37,0,0,1-2.76.34c-3.09-.84-3.55-5.37-5-5.25-1.13.1-.87,2.87-3.37,4.53a5.68,5.68,0,0,1-3,1,6,6,0,0,1-2.75-.77c-5.87-2.73-4.94-2.14-6.09-2.79-3.19-1.81-3.62-2.57-4.84-2.38-1.68.27-1.88,1.9-3.36,1.91-1.28,0-1.46-1.24-4-2.94-2-1.35-2.6-1-3.37-2.11A5.1,5.1,0,0,1,205.29,217.68Z"/><path class="cls-2" d="M209.29,181.28c.21.09,1,1.57,2.08,1.56s1.48-1.63,2.42-1.55.8,1.54,2,2.11c1.62.81,3.56-1.18,4.44-.42.56.5-.2,1.37.28,2.9s1.79,1.8,1.78,2.9-1.34,2.23-2.55,2.62c-1.72.56-2.88-.41-3.74.36s-1,1.31-1.43,1.4-8.58-.26-9.42-2.08c-1.06-2.28-2.35-5.08-3.4-7.36C201.33,182.9,207.14,180.36,209.29,181.28Z"/><path class="cls-2" d="M232.53,247.47c.38-.37,1.07.27,2-.16s.81-1.65,1.64-1.93,1.51.93,2.54.71,1.06-1.85,2.14-2.12,1.55,1.21,3.07,1.31,2-1.43,3.83-1.63a5.48,5.48,0,0,1,3.89,1.6c2.17,1.81,3.18,4.77,2.6,5.22s-2.94-3-6-2.63c-.7.09-1.1.34-3.42,2.21-2.65,2.15-5.38,4.2-8,6.43-1.78,1.53-2.58,2.26-3,2-.67-.4.78-2.48.37-5.51S231.88,248.09,232.53,247.47Z"/><path class="cls-4" d="M223.75,235.5c.14-.23,0-.57-.08-.75-.25-.59-.66-.62-.93-1-.39-.59.09-1.07,0-2.12-.08-.86-.53-2-1.17-2.13-.83-.12-2,1.63-1.61,2.44.29.61,1.29.37,1.57,1s-.74,1.39-.46,2.08"/><path class="cls-2" d="M232.84,254.94a1.54,1.54,0,0,1,1.28.54,3.64,3.64,0,0,1,.81,1.88,23.18,23.18,0,0,1-3.5,3.72c-2.84,2.83-16.89,9.64-18.92,10.61.08-.45,4.46-3.62,4.17-4.32-.51-1.26,4.9-4.22,5.15-4.63s-.27-.71,1.94-1c1.84-.23,4.21.16,4.9-.4s.43-1,1.31-1.74,1.65-.57,2-1.12-.51-1-.25-2.14C231.84,255.83,232.23,255.07,232.84,254.94Z"/><path class="cls-3" d="M297.37,270.64c-.83-.55-.8-1.22-1.27-1.29s-1.08.71-2.08,2.44c-2.5,4.34-2.33,5-2.12,5.41s.93,1,1.43.85c1.36-.39.87-5.15,2.05-5.38.48-.08.76.64,1.74.63a2.1,2.1,0,0,0,1.24-.43c.43-.34.95-1,.75-1.49S298.23,271.21,297.37,270.64Z"/><path class="cls-4" d="M305.51,306c0-.08,0-.1,0,0Z"/><path class="cls-2" d="M305.51,306m-18.73-39c-1,.64-.54,1.7-1.46,2.32-1.23.82-2.66-.65-4.49-.13a4.56,4.56,0,0,0-2.69,2.55c5.94,6.54,4.74,6.72,4.11,12.34-.19,1.67-.61,4.67.95,7.47a5.53,5.53,0,0,0,2.55,2.65,16.56,16.56,0,0,0,3.47.7c1.31.2,1.84.23,1.92.52.13.5-1.3.88-2.09,2.45a2.79,2.79,0,0,0-.4,2c.37,1.25,2,.78,3.74,2.47,1,1,1.09,1.66,2.19,2.1.86.35,1.66-3.08,1.69-2.86.05.38-.95,1.13-1.31,2.26-.3,1,3.33-6,.91,1-.2.6,2.51-3.52,2.83-3.34,2.12-.81,2.86-2.66,5-3.47h0"/><path class="cls-2" d="M350.35,205c.08-1,2.75-1.72,4.19-2.1,2.35-.61,3-.28,4.19-1.11a7.42,7.42,0,0,0,2.1-2.58c1-1.78.61-2.16,1.35-3,1.39-1.49,3.13-.5,4.19-1.85.93-1.17-.1-2.26.87-3.82a3.82,3.82,0,0,1,3.57-1.85,3.9,3.9,0,0,1,3.08,3.45c.07-.06,1.56-1.29,3-.74s2,2.81,1.35,4.07-2.05.92-5.91,2.59c-2,.85-3,1.3-3.45,2.09-1.08,1.89.64,3.68-.5,5.3-1,1.39-3.28,1.59-3.57,1.11s1.07-1.11,1-2.34-1.22-2.21-2.1-2.1c-.63.08-.7.75-1.85,2.1-1.31,1.54-1.76,1.3-2.34,2.34a4.27,4.27,0,0,0-.24,3.82c.45.9,1,.79,1.35,1.6.72,1.58-.32,4.09-1.35,4.19s-1.15-2.34-3.33-3.33c-2-.88-3.84.2-4.19-.49s2.48-2.32,2.22-4.07S350.27,206.19,350.35,205Z"/><path class="cls-2" d="M355.3,223.19c.31.45-.11,1.24-.3,1.6a4,4,0,0,1-3.3,2.11,3.42,3.42,0,0,1-2.44-1.05c-.8-.9-1.18-2.44-.54-3.13a1.49,1.49,0,0,1,.78-.37"/><path class="cls-5" d="M115.5,168.76c0-1.34.79-1.57,1.06-3.27s-.35-1.78,0-2.89c.43-1.44,2-2.88,3.28-2.73s1.73,2.1,3,2c.89-.05,1-1,2.29-1.27s1.51.41,2.14.1c1.14-.57.25-2.86,1.51-3.85a3.08,3.08,0,0,1,3.38.24,3.82,3.82,0,0,1,1.45,3.34,5,5,0,0,1-1.5,3.24c-1.72,1.78-3.21,1-4.79,2.65-1.12,1.2-.54,1.81-1.81,3.36a7.41,7.41,0,0,1-3.89,2.51c-.62.16-3.46.86-5.09-.85A4.1,4.1,0,0,1,115.5,168.76Z"/><path class="cls-5" d="M102.84,180.19c-.27-.92-1-1-1.4-1.68a2.86,2.86,0,0,1,1.11-3.55c.57-.23.8.18,1.74,0a4.6,4.6,0,0,0,2.22-1.12c1.46-1.09,1.26-1.44,2.19-2a4.84,4.84,0,0,1,3.57-.57c.82.24.58.52,2.54,1.67a8.88,8.88,0,0,0,2.16,1.07c1,.3,1.43.13,1.67.47.4.58-.57,1.31-.83,3.07-.14,1,.13,1,.08,3.2a5,5,0,0,1-.25,2c-.53,1.1-1.37,1-1.65,1.88s.46,1.24.41,2.62a4.08,4.08,0,0,1-.76,2.21c-.7,1-2.18,2-3.21,1.54s-1.4-2.13-2.1-5.27c-.26-1.13-.31-1.64-.8-2-.75-.58-1.61-.12-3.62,0s-4.15-.15-4.27-.75,1.12-.81,1.27-2A2.07,2.07,0,0,0,102.84,180.19Z"/><path class="cls-5" d="M120.63,182.53c-.06-.47-.34-.57-.54-1.19a2.81,2.81,0,0,1-.1-1.2c.22-.89,1.54-.79,3.3-1.72s1.57-1.54,3.43-2.37a5,5,0,0,1,2-.59c1.29-.06,1.88.56,3.22,1.13a46.58,46.58,0,0,0,6.23,1.08,5.13,5.13,0,0,1,2.81.87c.09.07,1.57,1.28,1.34,2.6s-1.76,1.19-2.42,2.84c-.44,1.09,0,1.57-.42,2.34s-1.48,1.1-3.61,1.35c-4.61.55-7.17.85-9.81-.09a4.93,4.93,0,0,0-2.49-.47c-1.32.16-1.71.91-2.82.75a2.91,2.91,0,0,1-1.79-1.1c-.25-.32-.81-1-.6-1.58s1.08-.39,1.78-1.26A2,2,0,0,0,120.63,182.53Z"/><path class="cls-5" d="M133.29,174.44a4.31,4.31,0,0,1-1.29-1.67,2.62,2.62,0,0,1-.27-1.74c.23-.85,1-.87,2.09-1.89a7.72,7.72,0,0,0,1.86-2.78c.54-1.43.06-1.7.61-2.72a4.17,4.17,0,0,1,3-2.11,3.94,3.94,0,0,1,2.16.26c2.06.92,2.59,3.5,2.54,5,0,.63,0,1.94-.81,2.34s-2.27-.66-2.62-.24.48,1,.18,1.65-.82.36-1.64,1.12a2.61,2.61,0,0,0-.75,1c-.26.72.08,1-.09,1.59a2.52,2.52,0,0,1-2.21,1.36A3.79,3.79,0,0,1,133.29,174.44Z"/><path class="cls-2" d="M295.3,232c.29,0,.23,1,1.15,1.3a3.44,3.44,0,0,0,2.5-.7,10.64,10.64,0,0,0-.58,4.33,15.64,15.64,0,0,0,1,3.86c.29.86.56,1.56.77,2a4.86,4.86,0,0,1-2.69-.27,3.42,3.42,0,0,1-1.51-1.34C294,238.34,294.62,232.11,295.3,232Z"/><path class="cls-2" d="M300,259.8c1.12-2.81.22-4.06,1.67-5.45,1.61-1.55,3.32-.59,6.26-2.34.92-.54,2.92-1.73,3.34-3.5.71-3-13.28-8.38-17.22-8.93-6.08-.84-2.85,8.2-3.65,15.55-.52,4.68,1.32,10.19,3.76,10.51C296.17,265.9,298.88,262.6,300,259.8Z"/></g><g id="Layer_8" data-name="Layer 8"><path class="cls-6" d="M162.77,240.23c.5-.61,1.31-1.43,4.26-3.06,3.5-1.93,5-2.21,5.83-2.31,2.24-.26,2.95.36,3.15.56.6.59,1,1.69.55,2.22-.66.86-2.71-.58-4.07.46-.93.71-.39,1.69-1.3,2.41-1.33,1.06-3.12-.54-4.53.46-1.2.84-.55,2.43-1.76,3.15s-3,.19-3.43-.83S162.06,241.09,162.77,240.23Z"/><path class="cls-6" d="M122,269.23c.52-.43,2,1.72,4,1.29,1.73-.37,2-2.38,2.87-2.31,1.5.12,3.14,5.7,1.39,10.28-.14.36-1.26,3.25-2.5,3.14-.82-.07-1.53-1.4-1.67-2.59-.34-2.87,2.6-5.25,2.13-5.74s-1.63,1.09-3.15.83C122.74,273.75,121.32,269.76,122,269.23Z"/><path class="cls-6" d="M191.11,281.41c1.17-1.1,3.43-1.05,4.26.19a2,2,0,0,1,.09,2.13c-1,1.46-4.61.9-5.09-.46C190.07,282.42,191.06,281.46,191.11,281.41Z"/><path class="cls-6" d="M197.42,276.34a2.11,2.11,0,0,1,2.69,1.29,1.88,1.88,0,0,1-.65,2.13c-1.07.59-3.11-.71-3.06-2A1.69,1.69,0,0,1,197.42,276.34Z"/><path class="cls-6" d="M171.05,266.62c.78-.83,1.92-1.58,2.32-1.29s-.44,1.4.09,2.5,1.7.85,2,1.76-.53,2.31-1.58,3a3.54,3.54,0,0,1-4.44-.56C168.19,270.29,170.15,267.59,171.05,266.62Z"/><path class="cls-6" d="M176.36,245.28c-.37-1.47-1-1.89-.74-2.41a1.58,1.58,0,0,1,2.13-.37c.28.35-.18.87.09,1.2.45.57,2.08-.55,2.68,0s0,1.84-.55,3.15c-.63,1.58-.94,2.36-1.76,3.05-1,.86-2.91,1.66-4,.84a1.75,1.75,0,0,1-.65-2c.47-.81,2.09-.1,2.78-1C176.83,247.16,176.58,246.17,176.36,245.28Z"/><path class="cls-6" d="M111.23,284.35c1.14-2.14,2.72-4,3.24-3.7s-.41,2,.55,3.05c.62.65,1.39.33,1.76.93s-.52,1.59-.74,3.05c-.37,2.54,2,3.94,1.39,5-.55.9-3,1-4.35-.27a3.77,3.77,0,0,1-1-3c-1.31.75-1.87.67-2.13.47C109,289.2,110.35,286,111.23,284.35Z"/><path class="cls-6" d="M117.11,321.57c.47-.22,1,.71,1.76.56,1-.2,1-1.86,1.95-2,.76-.15,1.66.82,2,1.67.63,1.43.29,3.75-1.48,4.53a3.4,3.4,0,0,1-3.89-1.11C116.44,323.88,116.51,321.86,117.11,321.57Z"/><path class="cls-6" d="M161.68,254.44a1.43,1.43,0,0,1,1.37-1.05c.67,0,.72.79,1.48,1.16,1.22.59,2.24-.75,3.39-.32s1.9,2.5,1.27,3.39c-.77,1.09-3.44.25-4.66-.32C163.47,256.81,161.46,255.57,161.68,254.44Z"/><path class="cls-6" d="M163.88,264.82a2,2,0,0,1,3-.53,1.58,1.58,0,0,1-1.8,2.54A1.79,1.79,0,0,1,163.88,264.82Z"/><path class="cls-6" d="M91.35,286.16c.59-1.54,2.74-2.28,3.27-1.8s-.44,1.32,0,2.44c.56,1.4,2.49,1.34,2.54,2.11s-1.77,1.95-3.38,1.59A3.52,3.52,0,0,1,91.35,286.16Z"/><path class="cls-6" d="M84.09,293.79a2.9,2.9,0,0,1,3.39-2c1.47.51,2,2.66,1.48,3.28s-1.47-.22-2.33.42-.53,1.81-.95,1.91S83.53,295.59,84.09,293.79Z"/><path class="cls-6" d="M185.31,169.47c.43-.51,1.28-1.2,1.8-1,.71.34-.1,2,.83,3.11s3,.47,3.35,1.32c.23.62-.65,1.58-1.44,2a3.77,3.77,0,0,1-4.66-.72A3.82,3.82,0,0,1,185.31,169.47Z"/><path class="cls-6" d="M160.58,178.73a2.52,2.52,0,0,1,2-1.32c1.14,0,1.37,1,2.51,1.2,1.67.25,2.48-1.81,3.71-1.55,1.57.32,2.59,4.18,1.55,5s-2.71-1.51-5.26-.84c-1.72.45-2.1,1.79-3.11,1.55C160.83,182.51,159.73,180.28,160.58,178.73Z"/><path class="cls-6" d="M121.17,206.74c0-1.39.94-2.4,2.75-4.43.73-.81,3.11-3.48,4-3,.64.37-.41,2.17.47,3.1.72.76,2,.2,4.91,0,2.47-.16,5.06,0,5.14.48s-3.48,1-3.71,2.63c-.16,1.15,1.5,2,1.19,2.63-.39.83-3.35-.5-4.42.72-.82.94.39,2.34-.36,3.34-1,1.33-4.56.83-6.93-.83C123.6,211,121.1,209.26,121.17,206.74Z"/><path class="cls-6" d="M220.55,209.8c-.16-2.17,1-4.48,1.79-4.43s1.35,2.75,1.44,4.31c.07,1.32,0,4-.84,4.18S220.71,211.94,220.55,209.8Z"/><path class="cls-6" d="M183.06,192.5c-.41-1.65,2.51-2.56,2.78-4.94.31-2.89-3.65-4.6-3.09-5.86s6.14-1.75,8.95,1.54a7.24,7.24,0,0,1,0,9.26,6.32,6.32,0,0,1-5.86,1.85C185.39,194.25,183.38,193.78,183.06,192.5Z"/><path class="cls-6" d="M210.91,213.05c3.45-3.74,5.19-5.6,5.86-5.25s-.53,2.51.31,5.56c.94,3.39,3.58,4.37,3.09,5.56-.58,1.38-4.6,1-7.1.3-1.38-.39-4.06-1.15-4.33-2.77C208.61,215.66,209.1,215,210.91,213.05Z"/><path class="cls-6" d="M155.87,286.34c1.61-1,4.21-2.66,5.87-1.54,1.88,1.27,1.64,5.52,0,6.48-1.83,1.06-4.8-2.27-6.18-1.24s1,5.53-.31,6.48c-1,.73-4-.68-4.63-2.77C149.62,290.4,155.09,286.83,155.87,286.34Z"/><path class="cls-6" d="M276.39,193.42c0-1.38.94-2.4,2.75-4.42.73-.82,3.11-3.48,3.94-3,.64.38-.4,2.17.48,3.11.71.75,2,.19,4.9,0,2.47-.16,5.06,0,5.14.48s-3.48,1-3.71,2.63c-.16,1.14,1.5,2,1.2,2.63-.4.83-3.36-.51-4.42.71-.83.94.39,2.35-.36,3.35-1,1.33-4.56.82-6.94-.84C278.81,197.69,276.32,195.94,276.39,193.42Z"/><path class="cls-6" d="M339.33,279.27c-.41-1.65,2.52-2.56,2.78-4.94.32-2.89-3.65-4.6-3.09-5.87s6.15-1.74,9,1.55a7.23,7.23,0,0,1,0,9.26,6.31,6.31,0,0,1-5.86,1.85C341.66,281,339.65,280.55,339.33,279.27Z"/><path class="cls-6" d="M272.24,181.72c1.16-1.1,3.43-1.06,4.26.19a2,2,0,0,1,.09,2.12c-1,1.46-4.61.9-5.09-.46C271.2,182.73,272.19,181.77,272.24,181.72Z"/><path class="cls-6" d="M278.55,176.64a2.1,2.1,0,0,1,2.68,1.3,1.87,1.87,0,0,1-.64,2.13c-1.07.59-3.11-.72-3.06-2A1.69,1.69,0,0,1,278.55,176.64Z"/><path class="cls-6" d="M272,148.9c.52-.43,2,1.72,4,1.3,1.74-.38,2-2.39,2.87-2.32,1.51.12,3.15,5.71,1.39,10.28-.14.36-1.25,3.25-2.5,3.15-.81-.07-1.52-1.41-1.66-2.6-.35-2.87,2.59-5.25,2.13-5.74s-1.63,1.1-3.15.84C272.74,153.42,271.32,149.43,272,148.9Z"/></g></svg>